<?xml version="1.0" encoding="utf-8" standalone="no"?>
<!DOCTYPE svg PUBLIC "-//W3C//DTD SVG 1.1//EN"
  "http://www.w3.org/Graphics/SVG/1.1/DTD/svg11.dtd">
<svg xmlns:xlink="http://www.w3.org/1999/xlink" width="1080pt" height="720pt" viewBox="0 0 1080 720" xmlns="http://www.w3.org/2000/svg" version="1.1">
 <metadata>
  <rdf:RDF xmlns:dc="http://purl.org/dc/elements/1.1/" xmlns:cc="http://creativecommons.org/ns#" xmlns:rdf="http://www.w3.org/1999/02/22-rdf-syntax-ns#">
   <cc:Work>
    <dc:type rdf:resource="http://purl.org/dc/dcmitype/StillImage"/>
    <dc:date>2024-09-10T13:32:44.078391</dc:date>
    <dc:format>image/svg+xml</dc:format>
    <dc:creator>
     <cc:Agent>
      <dc:title>Matplotlib v3.9.1, https://matplotlib.org/</dc:title>
     </cc:Agent>
    </dc:creator>
   </cc:Work>
  </rdf:RDF>
 </metadata>
 <defs>
  <style type="text/css">*{stroke-linejoin: round; stroke-linecap: butt}</style>
 </defs>
 <g id="figure_1">
  <g id="patch_1">
   <path d="M 0 720 
L 1080 720 
L 1080 0 
L 0 0 
z
" style="fill: #ffffff"/>
  </g>
  <g id="axes_1">
   <g id="patch_2">
    <path d="M 570.112131 551.55197 
C 536.73669 532.817258 508.946087 505.526401 489.608888 472.496381 
C 470.271688 439.466362 460.076934 401.874136 460.076934 363.6 
C 460.076934 325.325864 470.271688 287.733638 489.608888 254.703619 
C 508.946087 221.673599 536.73669 194.382742 570.112131 175.64803 
C 535.980378 152.535044 496.188819 139.150213 455.027113 136.936467 
C 413.865408 134.722721 372.867811 143.762573 336.453998 163.0815 
C 300.040186 182.400426 269.567439 211.278335 248.320822 246.602093 
C 227.074205 281.925852 215.845659 322.378808 215.845659 363.6 
C 215.845659 404.821192 227.074205 445.274148 248.320822 480.597907 
C 269.567439 515.921665 300.040186 544.799574 336.453998 564.1185 
C 372.867811 583.437427 413.865408 592.477279 455.027113 590.263533 
C 496.188819 588.049787 535.980378 574.664956 570.112131 551.55197 
" clip-path="url(#p81b2ee6e65)" style="fill: #ff0000; opacity: 0.4"/>
   </g>
   <g id="patch_3">
    <path d="M 570.112131 175.64803 
C 600.822461 196.444133 625.972899 224.453601 643.355265 257.217234 
C 660.73763 289.980867 669.827869 326.510887 669.827869 363.6 
C 669.827869 400.689113 660.73763 437.219133 643.355265 469.982766 
C 625.972899 502.746399 600.822461 530.755867 570.112131 551.55197 
C 602.909474 569.962177 639.961469 579.47106 677.571109 579.129833 
C 715.180749 578.788606 752.054114 568.609009 784.512019 549.60675 
C 816.969924 530.604491 843.89569 503.433323 862.602693 470.804356 
C 881.309696 438.175389 891.154341 401.211188 891.154341 363.6 
C 891.154341 325.988812 881.309696 289.024611 862.602693 256.395644 
C 843.89569 223.766677 816.969924 196.595509 784.512019 177.59325 
C 752.054114 158.590991 715.180749 148.411394 677.571109 148.070167 
C 639.961469 147.72894 602.909474 157.237823 570.112131 175.64803 
" clip-path="url(#p81b2ee6e65)" style="fill: #008000; opacity: 0.4"/>
   </g>
   <g id="patch_4">
    <path d="M 570.112131 551.55197 
C 600.822461 530.755867 625.972899 502.746399 643.355265 469.982766 
C 660.73763 437.219133 669.827869 400.689113 669.827869 363.6 
C 669.827869 326.510887 660.73763 289.980867 643.355265 257.217234 
C 625.972899 224.453601 600.822461 196.444133 570.112131 175.64803 
C 536.73669 194.382742 508.946087 221.673599 489.608888 254.703619 
C 470.271688 287.733638 460.076934 325.325864 460.076934 363.6 
C 460.076934 401.874136 470.271688 439.466362 489.608888 472.496381 
C 508.946087 505.526401 536.73669 532.817258 570.112131 551.55197 
" clip-path="url(#p81b2ee6e65)" style="fill: #b25900; opacity: 0.4"/>
   </g>
   <g id="text_1">
    <!-- 40 -->
    <g transform="translate(332.871296 365.8075) scale(0.08 -0.08)">
     <defs>
      <path id="DejaVuSans-34" d="M 2419 4116 
L 825 1625 
L 2419 1625 
L 2419 4116 
z
M 2253 4666 
L 3047 4666 
L 3047 1625 
L 3713 1625 
L 3713 1100 
L 3047 1100 
L 3047 0 
L 2419 0 
L 2419 1100 
L 313 1100 
L 313 1709 
L 2253 4666 
z
" transform="scale(0.015625)"/>
      <path id="DejaVuSans-30" d="M 2034 4250 
Q 1547 4250 1301 3770 
Q 1056 3291 1056 2328 
Q 1056 1369 1301 889 
Q 1547 409 2034 409 
Q 2525 409 2770 889 
Q 3016 1369 3016 2328 
Q 3016 3291 2770 3770 
Q 2525 4250 2034 4250 
z
M 2034 4750 
Q 2819 4750 3233 4129 
Q 3647 3509 3647 2328 
Q 3647 1150 3233 529 
Q 2819 -91 2034 -91 
Q 1250 -91 836 529 
Q 422 1150 422 2328 
Q 422 3509 836 4129 
Q 1250 4750 2034 4750 
z
" transform="scale(0.015625)"/>
     </defs>
     <use xlink:href="#DejaVuSans-34"/>
     <use xlink:href="#DejaVuSans-30" x="63.623047"/>
    </g>
   </g>
   <g id="text_2">
    <!-- 34 -->
    <g transform="translate(775.401105 365.8075) scale(0.08 -0.08)">
     <defs>
      <path id="DejaVuSans-33" d="M 2597 2516 
Q 3050 2419 3304 2112 
Q 3559 1806 3559 1356 
Q 3559 666 3084 287 
Q 2609 -91 1734 -91 
Q 1441 -91 1130 -33 
Q 819 25 488 141 
L 488 750 
Q 750 597 1062 519 
Q 1375 441 1716 441 
Q 2309 441 2620 675 
Q 2931 909 2931 1356 
Q 2931 1769 2642 2001 
Q 2353 2234 1838 2234 
L 1294 2234 
L 1294 2753 
L 1863 2753 
Q 2328 2753 2575 2939 
Q 2822 3125 2822 3475 
Q 2822 3834 2567 4026 
Q 2313 4219 1838 4219 
Q 1578 4219 1281 4162 
Q 984 4106 628 3988 
L 628 4550 
Q 988 4650 1302 4700 
Q 1616 4750 1894 4750 
Q 2613 4750 3031 4423 
Q 3450 4097 3450 3541 
Q 3450 3153 3228 2886 
Q 3006 2619 2597 2516 
z
" transform="scale(0.015625)"/>
     </defs>
     <use xlink:href="#DejaVuSans-33"/>
     <use xlink:href="#DejaVuSans-34" x="63.623047"/>
    </g>
   </g>
   <g id="text_3">
    <!-- tRF-18-I958M80E (Negative) -->
    <g transform="translate(508.099276 276.225) scale(0.08 -0.08)">
     <defs>
      <path id="DejaVuSans-74" d="M 1172 4494 
L 1172 3500 
L 2356 3500 
L 2356 3053 
L 1172 3053 
L 1172 1153 
Q 1172 725 1289 603 
Q 1406 481 1766 481 
L 2356 481 
L 2356 0 
L 1766 0 
Q 1100 0 847 248 
Q 594 497 594 1153 
L 594 3053 
L 172 3053 
L 172 3500 
L 594 3500 
L 594 4494 
L 1172 4494 
z
" transform="scale(0.015625)"/>
      <path id="DejaVuSans-52" d="M 2841 2188 
Q 3044 2119 3236 1894 
Q 3428 1669 3622 1275 
L 4263 0 
L 3584 0 
L 2988 1197 
Q 2756 1666 2539 1819 
Q 2322 1972 1947 1972 
L 1259 1972 
L 1259 0 
L 628 0 
L 628 4666 
L 2053 4666 
Q 2853 4666 3247 4331 
Q 3641 3997 3641 3322 
Q 3641 2881 3436 2590 
Q 3231 2300 2841 2188 
z
M 1259 4147 
L 1259 2491 
L 2053 2491 
Q 2509 2491 2742 2702 
Q 2975 2913 2975 3322 
Q 2975 3731 2742 3939 
Q 2509 4147 2053 4147 
L 1259 4147 
z
" transform="scale(0.015625)"/>
      <path id="DejaVuSans-46" d="M 628 4666 
L 3309 4666 
L 3309 4134 
L 1259 4134 
L 1259 2759 
L 3109 2759 
L 3109 2228 
L 1259 2228 
L 1259 0 
L 628 0 
L 628 4666 
z
" transform="scale(0.015625)"/>
      <path id="DejaVuSans-2d" d="M 313 2009 
L 1997 2009 
L 1997 1497 
L 313 1497 
L 313 2009 
z
" transform="scale(0.015625)"/>
      <path id="DejaVuSans-31" d="M 794 531 
L 1825 531 
L 1825 4091 
L 703 3866 
L 703 4441 
L 1819 4666 
L 2450 4666 
L 2450 531 
L 3481 531 
L 3481 0 
L 794 0 
L 794 531 
z
" transform="scale(0.015625)"/>
      <path id="DejaVuSans-38" d="M 2034 2216 
Q 1584 2216 1326 1975 
Q 1069 1734 1069 1313 
Q 1069 891 1326 650 
Q 1584 409 2034 409 
Q 2484 409 2743 651 
Q 3003 894 3003 1313 
Q 3003 1734 2745 1975 
Q 2488 2216 2034 2216 
z
M 1403 2484 
Q 997 2584 770 2862 
Q 544 3141 544 3541 
Q 544 4100 942 4425 
Q 1341 4750 2034 4750 
Q 2731 4750 3128 4425 
Q 3525 4100 3525 3541 
Q 3525 3141 3298 2862 
Q 3072 2584 2669 2484 
Q 3125 2378 3379 2068 
Q 3634 1759 3634 1313 
Q 3634 634 3220 271 
Q 2806 -91 2034 -91 
Q 1263 -91 848 271 
Q 434 634 434 1313 
Q 434 1759 690 2068 
Q 947 2378 1403 2484 
z
M 1172 3481 
Q 1172 3119 1398 2916 
Q 1625 2713 2034 2713 
Q 2441 2713 2670 2916 
Q 2900 3119 2900 3481 
Q 2900 3844 2670 4047 
Q 2441 4250 2034 4250 
Q 1625 4250 1398 4047 
Q 1172 3844 1172 3481 
z
" transform="scale(0.015625)"/>
      <path id="DejaVuSans-49" d="M 628 4666 
L 1259 4666 
L 1259 0 
L 628 0 
L 628 4666 
z
" transform="scale(0.015625)"/>
      <path id="DejaVuSans-39" d="M 703 97 
L 703 672 
Q 941 559 1184 500 
Q 1428 441 1663 441 
Q 2288 441 2617 861 
Q 2947 1281 2994 2138 
Q 2813 1869 2534 1725 
Q 2256 1581 1919 1581 
Q 1219 1581 811 2004 
Q 403 2428 403 3163 
Q 403 3881 828 4315 
Q 1253 4750 1959 4750 
Q 2769 4750 3195 4129 
Q 3622 3509 3622 2328 
Q 3622 1225 3098 567 
Q 2575 -91 1691 -91 
Q 1453 -91 1209 -44 
Q 966 3 703 97 
z
M 1959 2075 
Q 2384 2075 2632 2365 
Q 2881 2656 2881 3163 
Q 2881 3666 2632 3958 
Q 2384 4250 1959 4250 
Q 1534 4250 1286 3958 
Q 1038 3666 1038 3163 
Q 1038 2656 1286 2365 
Q 1534 2075 1959 2075 
z
" transform="scale(0.015625)"/>
      <path id="DejaVuSans-35" d="M 691 4666 
L 3169 4666 
L 3169 4134 
L 1269 4134 
L 1269 2991 
Q 1406 3038 1543 3061 
Q 1681 3084 1819 3084 
Q 2600 3084 3056 2656 
Q 3513 2228 3513 1497 
Q 3513 744 3044 326 
Q 2575 -91 1722 -91 
Q 1428 -91 1123 -41 
Q 819 9 494 109 
L 494 744 
Q 775 591 1075 516 
Q 1375 441 1709 441 
Q 2250 441 2565 725 
Q 2881 1009 2881 1497 
Q 2881 1984 2565 2268 
Q 2250 2553 1709 2553 
Q 1456 2553 1204 2497 
Q 953 2441 691 2322 
L 691 4666 
z
" transform="scale(0.015625)"/>
      <path id="DejaVuSans-4d" d="M 628 4666 
L 1569 4666 
L 2759 1491 
L 3956 4666 
L 4897 4666 
L 4897 0 
L 4281 0 
L 4281 4097 
L 3078 897 
L 2444 897 
L 1241 4097 
L 1241 0 
L 628 0 
L 628 4666 
z
" transform="scale(0.015625)"/>
      <path id="DejaVuSans-45" d="M 628 4666 
L 3578 4666 
L 3578 4134 
L 1259 4134 
L 1259 2753 
L 3481 2753 
L 3481 2222 
L 1259 2222 
L 1259 531 
L 3634 531 
L 3634 0 
L 628 0 
L 628 4666 
z
" transform="scale(0.015625)"/>
      <path id="DejaVuSans-20" transform="scale(0.015625)"/>
      <path id="DejaVuSans-28" d="M 1984 4856 
Q 1566 4138 1362 3434 
Q 1159 2731 1159 2009 
Q 1159 1288 1364 580 
Q 1569 -128 1984 -844 
L 1484 -844 
Q 1016 -109 783 600 
Q 550 1309 550 2009 
Q 550 2706 781 3412 
Q 1013 4119 1484 4856 
L 1984 4856 
z
" transform="scale(0.015625)"/>
      <path id="DejaVuSans-4e" d="M 628 4666 
L 1478 4666 
L 3547 763 
L 3547 4666 
L 4159 4666 
L 4159 0 
L 3309 0 
L 1241 3903 
L 1241 0 
L 628 0 
L 628 4666 
z
" transform="scale(0.015625)"/>
      <path id="DejaVuSans-65" d="M 3597 1894 
L 3597 1613 
L 953 1613 
Q 991 1019 1311 708 
Q 1631 397 2203 397 
Q 2534 397 2845 478 
Q 3156 559 3463 722 
L 3463 178 
Q 3153 47 2828 -22 
Q 2503 -91 2169 -91 
Q 1331 -91 842 396 
Q 353 884 353 1716 
Q 353 2575 817 3079 
Q 1281 3584 2069 3584 
Q 2775 3584 3186 3129 
Q 3597 2675 3597 1894 
z
M 3022 2063 
Q 3016 2534 2758 2815 
Q 2500 3097 2075 3097 
Q 1594 3097 1305 2825 
Q 1016 2553 972 2059 
L 3022 2063 
z
" transform="scale(0.015625)"/>
      <path id="DejaVuSans-67" d="M 2906 1791 
Q 2906 2416 2648 2759 
Q 2391 3103 1925 3103 
Q 1463 3103 1205 2759 
Q 947 2416 947 1791 
Q 947 1169 1205 825 
Q 1463 481 1925 481 
Q 2391 481 2648 825 
Q 2906 1169 2906 1791 
z
M 3481 434 
Q 3481 -459 3084 -895 
Q 2688 -1331 1869 -1331 
Q 1566 -1331 1297 -1286 
Q 1028 -1241 775 -1147 
L 775 -588 
Q 1028 -725 1275 -790 
Q 1522 -856 1778 -856 
Q 2344 -856 2625 -561 
Q 2906 -266 2906 331 
L 2906 616 
Q 2728 306 2450 153 
Q 2172 0 1784 0 
Q 1141 0 747 490 
Q 353 981 353 1791 
Q 353 2603 747 3093 
Q 1141 3584 1784 3584 
Q 2172 3584 2450 3431 
Q 2728 3278 2906 2969 
L 2906 3500 
L 3481 3500 
L 3481 434 
z
" transform="scale(0.015625)"/>
      <path id="DejaVuSans-61" d="M 2194 1759 
Q 1497 1759 1228 1600 
Q 959 1441 959 1056 
Q 959 750 1161 570 
Q 1363 391 1709 391 
Q 2188 391 2477 730 
Q 2766 1069 2766 1631 
L 2766 1759 
L 2194 1759 
z
M 3341 1997 
L 3341 0 
L 2766 0 
L 2766 531 
Q 2569 213 2275 61 
Q 1981 -91 1556 -91 
Q 1019 -91 701 211 
Q 384 513 384 1019 
Q 384 1609 779 1909 
Q 1175 2209 1959 2209 
L 2766 2209 
L 2766 2266 
Q 2766 2663 2505 2880 
Q 2244 3097 1772 3097 
Q 1472 3097 1187 3025 
Q 903 2953 641 2809 
L 641 3341 
Q 956 3463 1253 3523 
Q 1550 3584 1831 3584 
Q 2591 3584 2966 3190 
Q 3341 2797 3341 1997 
z
" transform="scale(0.015625)"/>
      <path id="DejaVuSans-69" d="M 603 3500 
L 1178 3500 
L 1178 0 
L 603 0 
L 603 3500 
z
M 603 4863 
L 1178 4863 
L 1178 4134 
L 603 4134 
L 603 4863 
z
" transform="scale(0.015625)"/>
      <path id="DejaVuSans-76" d="M 191 3500 
L 800 3500 
L 1894 563 
L 2988 3500 
L 3597 3500 
L 2284 0 
L 1503 0 
L 191 3500 
z
" transform="scale(0.015625)"/>
      <path id="DejaVuSans-29" d="M 513 4856 
L 1013 4856 
Q 1481 4119 1714 3412 
Q 1947 2706 1947 2009 
Q 1947 1309 1714 600 
Q 1481 -109 1013 -844 
L 513 -844 
Q 928 -128 1133 580 
Q 1338 1288 1338 2009 
Q 1338 2731 1133 3434 
Q 928 4138 513 4856 
z
" transform="scale(0.015625)"/>
     </defs>
     <use xlink:href="#DejaVuSans-74"/>
     <use xlink:href="#DejaVuSans-52" x="39.208984"/>
     <use xlink:href="#DejaVuSans-46" x="108.691406"/>
     <use xlink:href="#DejaVuSans-2d" x="166.210938"/>
     <use xlink:href="#DejaVuSans-31" x="202.294922"/>
     <use xlink:href="#DejaVuSans-38" x="265.917969"/>
     <use xlink:href="#DejaVuSans-2d" x="329.541016"/>
     <use xlink:href="#DejaVuSans-49" x="365.625"/>
     <use xlink:href="#DejaVuSans-39" x="395.117188"/>
     <use xlink:href="#DejaVuSans-35" x="458.740234"/>
     <use xlink:href="#DejaVuSans-38" x="522.363281"/>
     <use xlink:href="#DejaVuSans-4d" x="585.986328"/>
     <use xlink:href="#DejaVuSans-38" x="672.265625"/>
     <use xlink:href="#DejaVuSans-30" x="735.888672"/>
     <use xlink:href="#DejaVuSans-45" x="799.511719"/>
     <use xlink:href="#DejaVuSans-20" x="862.695312"/>
     <use xlink:href="#DejaVuSans-28" x="894.482422"/>
     <use xlink:href="#DejaVuSans-4e" x="933.496094"/>
     <use xlink:href="#DejaVuSans-65" x="1008.300781"/>
     <use xlink:href="#DejaVuSans-67" x="1069.824219"/>
     <use xlink:href="#DejaVuSans-61" x="1133.300781"/>
     <use xlink:href="#DejaVuSans-74" x="1194.580078"/>
     <use xlink:href="#DejaVuSans-69" x="1233.789062"/>
     <use xlink:href="#DejaVuSans-76" x="1261.572266"/>
     <use xlink:href="#DejaVuSans-65" x="1320.751953"/>
     <use xlink:href="#DejaVuSans-29" x="1382.275391"/>
    </g>
    <!-- tRF-29-RRJ89O9NF5JP (s Negative, t Positive) -->
    <g transform="translate(474.876151 285.18325) scale(0.08 -0.08)">
     <defs>
      <path id="DejaVuSans-32" d="M 1228 531 
L 3431 531 
L 3431 0 
L 469 0 
L 469 531 
Q 828 903 1448 1529 
Q 2069 2156 2228 2338 
Q 2531 2678 2651 2914 
Q 2772 3150 2772 3378 
Q 2772 3750 2511 3984 
Q 2250 4219 1831 4219 
Q 1534 4219 1204 4116 
Q 875 4013 500 3803 
L 500 4441 
Q 881 4594 1212 4672 
Q 1544 4750 1819 4750 
Q 2544 4750 2975 4387 
Q 3406 4025 3406 3419 
Q 3406 3131 3298 2873 
Q 3191 2616 2906 2266 
Q 2828 2175 2409 1742 
Q 1991 1309 1228 531 
z
" transform="scale(0.015625)"/>
      <path id="DejaVuSans-4a" d="M 628 4666 
L 1259 4666 
L 1259 325 
Q 1259 -519 939 -900 
Q 619 -1281 -91 -1281 
L -331 -1281 
L -331 -750 
L -134 -750 
Q 284 -750 456 -515 
Q 628 -281 628 325 
L 628 4666 
z
" transform="scale(0.015625)"/>
      <path id="DejaVuSans-4f" d="M 2522 4238 
Q 1834 4238 1429 3725 
Q 1025 3213 1025 2328 
Q 1025 1447 1429 934 
Q 1834 422 2522 422 
Q 3209 422 3611 934 
Q 4013 1447 4013 2328 
Q 4013 3213 3611 3725 
Q 3209 4238 2522 4238 
z
M 2522 4750 
Q 3503 4750 4090 4092 
Q 4678 3434 4678 2328 
Q 4678 1225 4090 567 
Q 3503 -91 2522 -91 
Q 1538 -91 948 565 
Q 359 1222 359 2328 
Q 359 3434 948 4092 
Q 1538 4750 2522 4750 
z
" transform="scale(0.015625)"/>
      <path id="DejaVuSans-50" d="M 1259 4147 
L 1259 2394 
L 2053 2394 
Q 2494 2394 2734 2622 
Q 2975 2850 2975 3272 
Q 2975 3691 2734 3919 
Q 2494 4147 2053 4147 
L 1259 4147 
z
M 628 4666 
L 2053 4666 
Q 2838 4666 3239 4311 
Q 3641 3956 3641 3272 
Q 3641 2581 3239 2228 
Q 2838 1875 2053 1875 
L 1259 1875 
L 1259 0 
L 628 0 
L 628 4666 
z
" transform="scale(0.015625)"/>
      <path id="DejaVuSans-73" d="M 2834 3397 
L 2834 2853 
Q 2591 2978 2328 3040 
Q 2066 3103 1784 3103 
Q 1356 3103 1142 2972 
Q 928 2841 928 2578 
Q 928 2378 1081 2264 
Q 1234 2150 1697 2047 
L 1894 2003 
Q 2506 1872 2764 1633 
Q 3022 1394 3022 966 
Q 3022 478 2636 193 
Q 2250 -91 1575 -91 
Q 1294 -91 989 -36 
Q 684 19 347 128 
L 347 722 
Q 666 556 975 473 
Q 1284 391 1588 391 
Q 1994 391 2212 530 
Q 2431 669 2431 922 
Q 2431 1156 2273 1281 
Q 2116 1406 1581 1522 
L 1381 1569 
Q 847 1681 609 1914 
Q 372 2147 372 2553 
Q 372 3047 722 3315 
Q 1072 3584 1716 3584 
Q 2034 3584 2315 3537 
Q 2597 3491 2834 3397 
z
" transform="scale(0.015625)"/>
      <path id="DejaVuSans-2c" d="M 750 794 
L 1409 794 
L 1409 256 
L 897 -744 
L 494 -744 
L 750 256 
L 750 794 
z
" transform="scale(0.015625)"/>
      <path id="DejaVuSans-6f" d="M 1959 3097 
Q 1497 3097 1228 2736 
Q 959 2375 959 1747 
Q 959 1119 1226 758 
Q 1494 397 1959 397 
Q 2419 397 2687 759 
Q 2956 1122 2956 1747 
Q 2956 2369 2687 2733 
Q 2419 3097 1959 3097 
z
M 1959 3584 
Q 2709 3584 3137 3096 
Q 3566 2609 3566 1747 
Q 3566 888 3137 398 
Q 2709 -91 1959 -91 
Q 1206 -91 779 398 
Q 353 888 353 1747 
Q 353 2609 779 3096 
Q 1206 3584 1959 3584 
z
" transform="scale(0.015625)"/>
     </defs>
     <use xlink:href="#DejaVuSans-74"/>
     <use xlink:href="#DejaVuSans-52" x="39.208984"/>
     <use xlink:href="#DejaVuSans-46" x="108.691406"/>
     <use xlink:href="#DejaVuSans-2d" x="166.210938"/>
     <use xlink:href="#DejaVuSans-32" x="202.294922"/>
     <use xlink:href="#DejaVuSans-39" x="265.917969"/>
     <use xlink:href="#DejaVuSans-2d" x="329.541016"/>
     <use xlink:href="#DejaVuSans-52" x="365.625"/>
     <use xlink:href="#DejaVuSans-52" x="435.107422"/>
     <use xlink:href="#DejaVuSans-4a" x="504.589844"/>
     <use xlink:href="#DejaVuSans-38" x="534.082031"/>
     <use xlink:href="#DejaVuSans-39" x="597.705078"/>
     <use xlink:href="#DejaVuSans-4f" x="661.328125"/>
     <use xlink:href="#DejaVuSans-39" x="740.039062"/>
     <use xlink:href="#DejaVuSans-4e" x="803.662109"/>
     <use xlink:href="#DejaVuSans-46" x="878.466797"/>
     <use xlink:href="#DejaVuSans-35" x="935.986328"/>
     <use xlink:href="#DejaVuSans-4a" x="999.609375"/>
     <use xlink:href="#DejaVuSans-50" x="1029.101562"/>
     <use xlink:href="#DejaVuSans-20" x="1089.404297"/>
     <use xlink:href="#DejaVuSans-28" x="1121.191406"/>
     <use xlink:href="#DejaVuSans-73" x="1160.205078"/>
     <use xlink:href="#DejaVuSans-20" x="1212.304688"/>
     <use xlink:href="#DejaVuSans-4e" x="1244.091797"/>
     <use xlink:href="#DejaVuSans-65" x="1318.896484"/>
     <use xlink:href="#DejaVuSans-67" x="1380.419922"/>
     <use xlink:href="#DejaVuSans-61" x="1443.896484"/>
     <use xlink:href="#DejaVuSans-74" x="1505.175781"/>
     <use xlink:href="#DejaVuSans-69" x="1544.384766"/>
     <use xlink:href="#DejaVuSans-76" x="1572.167969"/>
     <use xlink:href="#DejaVuSans-65" x="1631.347656"/>
     <use xlink:href="#DejaVuSans-2c" x="1692.871094"/>
     <use xlink:href="#DejaVuSans-20" x="1724.658203"/>
     <use xlink:href="#DejaVuSans-74" x="1756.445312"/>
     <use xlink:href="#DejaVuSans-20" x="1795.654297"/>
     <use xlink:href="#DejaVuSans-50" x="1827.441406"/>
     <use xlink:href="#DejaVuSans-6f" x="1884.119141"/>
     <use xlink:href="#DejaVuSans-73" x="1945.300781"/>
     <use xlink:href="#DejaVuSans-69" x="1997.400391"/>
     <use xlink:href="#DejaVuSans-74" x="2025.183594"/>
     <use xlink:href="#DejaVuSans-69" x="2064.392578"/>
     <use xlink:href="#DejaVuSans-76" x="2092.175781"/>
     <use xlink:href="#DejaVuSans-65" x="2151.355469"/>
     <use xlink:href="#DejaVuSans-29" x="2212.878906"/>
    </g>
    <!-- tRF-29-P4R8YP9LONHK (Positive) -->
    <g transform="translate(498.980526 294.1415) scale(0.08 -0.08)">
     <defs>
      <path id="DejaVuSans-59" d="M -13 4666 
L 666 4666 
L 1959 2747 
L 3244 4666 
L 3922 4666 
L 2272 2222 
L 2272 0 
L 1638 0 
L 1638 2222 
L -13 4666 
z
" transform="scale(0.015625)"/>
      <path id="DejaVuSans-4c" d="M 628 4666 
L 1259 4666 
L 1259 531 
L 3531 531 
L 3531 0 
L 628 0 
L 628 4666 
z
" transform="scale(0.015625)"/>
      <path id="DejaVuSans-48" d="M 628 4666 
L 1259 4666 
L 1259 2753 
L 3553 2753 
L 3553 4666 
L 4184 4666 
L 4184 0 
L 3553 0 
L 3553 2222 
L 1259 2222 
L 1259 0 
L 628 0 
L 628 4666 
z
" transform="scale(0.015625)"/>
      <path id="DejaVuSans-4b" d="M 628 4666 
L 1259 4666 
L 1259 2694 
L 3353 4666 
L 4166 4666 
L 1850 2491 
L 4331 0 
L 3500 0 
L 1259 2247 
L 1259 0 
L 628 0 
L 628 4666 
z
" transform="scale(0.015625)"/>
     </defs>
     <use xlink:href="#DejaVuSans-74"/>
     <use xlink:href="#DejaVuSans-52" x="39.208984"/>
     <use xlink:href="#DejaVuSans-46" x="108.691406"/>
     <use xlink:href="#DejaVuSans-2d" x="166.210938"/>
     <use xlink:href="#DejaVuSans-32" x="202.294922"/>
     <use xlink:href="#DejaVuSans-39" x="265.917969"/>
     <use xlink:href="#DejaVuSans-2d" x="329.541016"/>
     <use xlink:href="#DejaVuSans-50" x="365.625"/>
     <use xlink:href="#DejaVuSans-34" x="425.927734"/>
     <use xlink:href="#DejaVuSans-52" x="489.550781"/>
     <use xlink:href="#DejaVuSans-38" x="559.033203"/>
     <use xlink:href="#DejaVuSans-59" x="622.65625"/>
     <use xlink:href="#DejaVuSans-50" x="683.740234"/>
     <use xlink:href="#DejaVuSans-39" x="744.042969"/>
     <use xlink:href="#DejaVuSans-4c" x="807.666016"/>
     <use xlink:href="#DejaVuSans-4f" x="859.753906"/>
     <use xlink:href="#DejaVuSans-4e" x="938.464844"/>
     <use xlink:href="#DejaVuSans-48" x="1013.269531"/>
     <use xlink:href="#DejaVuSans-4b" x="1088.464844"/>
     <use xlink:href="#DejaVuSans-20" x="1154.041016"/>
     <use xlink:href="#DejaVuSans-28" x="1185.828125"/>
     <use xlink:href="#DejaVuSans-50" x="1224.841797"/>
     <use xlink:href="#DejaVuSans-6f" x="1281.519531"/>
     <use xlink:href="#DejaVuSans-73" x="1342.701172"/>
     <use xlink:href="#DejaVuSans-69" x="1394.800781"/>
     <use xlink:href="#DejaVuSans-74" x="1422.583984"/>
     <use xlink:href="#DejaVuSans-69" x="1461.792969"/>
     <use xlink:href="#DejaVuSans-76" x="1489.576172"/>
     <use xlink:href="#DejaVuSans-65" x="1548.755859"/>
     <use xlink:href="#DejaVuSans-29" x="1610.279297"/>
    </g>
    <!-- tRF-28-PIR8YP9LOND5 (Positive) -->
    <g transform="translate(500.351776 303.09975) scale(0.08 -0.08)">
     <defs>
      <path id="DejaVuSans-44" d="M 1259 4147 
L 1259 519 
L 2022 519 
Q 2988 519 3436 956 
Q 3884 1394 3884 2338 
Q 3884 3275 3436 3711 
Q 2988 4147 2022 4147 
L 1259 4147 
z
M 628 4666 
L 1925 4666 
Q 3281 4666 3915 4102 
Q 4550 3538 4550 2338 
Q 4550 1131 3912 565 
Q 3275 0 1925 0 
L 628 0 
L 628 4666 
z
" transform="scale(0.015625)"/>
     </defs>
     <use xlink:href="#DejaVuSans-74"/>
     <use xlink:href="#DejaVuSans-52" x="39.208984"/>
     <use xlink:href="#DejaVuSans-46" x="108.691406"/>
     <use xlink:href="#DejaVuSans-2d" x="166.210938"/>
     <use xlink:href="#DejaVuSans-32" x="202.294922"/>
     <use xlink:href="#DejaVuSans-38" x="265.917969"/>
     <use xlink:href="#DejaVuSans-2d" x="329.541016"/>
     <use xlink:href="#DejaVuSans-50" x="365.625"/>
     <use xlink:href="#DejaVuSans-49" x="425.927734"/>
     <use xlink:href="#DejaVuSans-52" x="455.419922"/>
     <use xlink:href="#DejaVuSans-38" x="524.902344"/>
     <use xlink:href="#DejaVuSans-59" x="588.525391"/>
     <use xlink:href="#DejaVuSans-50" x="649.609375"/>
     <use xlink:href="#DejaVuSans-39" x="709.912109"/>
     <use xlink:href="#DejaVuSans-4c" x="773.535156"/>
     <use xlink:href="#DejaVuSans-4f" x="825.623047"/>
     <use xlink:href="#DejaVuSans-4e" x="904.333984"/>
     <use xlink:href="#DejaVuSans-44" x="979.138672"/>
     <use xlink:href="#DejaVuSans-35" x="1056.140625"/>
     <use xlink:href="#DejaVuSans-20" x="1119.763672"/>
     <use xlink:href="#DejaVuSans-28" x="1151.550781"/>
     <use xlink:href="#DejaVuSans-50" x="1190.564453"/>
     <use xlink:href="#DejaVuSans-6f" x="1247.242188"/>
     <use xlink:href="#DejaVuSans-73" x="1308.423828"/>
     <use xlink:href="#DejaVuSans-69" x="1360.523438"/>
     <use xlink:href="#DejaVuSans-74" x="1388.306641"/>
     <use xlink:href="#DejaVuSans-69" x="1427.515625"/>
     <use xlink:href="#DejaVuSans-76" x="1455.298828"/>
     <use xlink:href="#DejaVuSans-65" x="1514.478516"/>
     <use xlink:href="#DejaVuSans-29" x="1576.001953"/>
    </g>
    <!-- tRF-29-86V8WPMN1EJ3 (Positive) -->
    <g transform="translate(498.538651 312.058) scale(0.08 -0.08)">
     <defs>
      <path id="DejaVuSans-36" d="M 2113 2584 
Q 1688 2584 1439 2293 
Q 1191 2003 1191 1497 
Q 1191 994 1439 701 
Q 1688 409 2113 409 
Q 2538 409 2786 701 
Q 3034 994 3034 1497 
Q 3034 2003 2786 2293 
Q 2538 2584 2113 2584 
z
M 3366 4563 
L 3366 3988 
Q 3128 4100 2886 4159 
Q 2644 4219 2406 4219 
Q 1781 4219 1451 3797 
Q 1122 3375 1075 2522 
Q 1259 2794 1537 2939 
Q 1816 3084 2150 3084 
Q 2853 3084 3261 2657 
Q 3669 2231 3669 1497 
Q 3669 778 3244 343 
Q 2819 -91 2113 -91 
Q 1303 -91 875 529 
Q 447 1150 447 2328 
Q 447 3434 972 4092 
Q 1497 4750 2381 4750 
Q 2619 4750 2861 4703 
Q 3103 4656 3366 4563 
z
" transform="scale(0.015625)"/>
      <path id="DejaVuSans-56" d="M 1831 0 
L 50 4666 
L 709 4666 
L 2188 738 
L 3669 4666 
L 4325 4666 
L 2547 0 
L 1831 0 
z
" transform="scale(0.015625)"/>
      <path id="DejaVuSans-57" d="M 213 4666 
L 850 4666 
L 1831 722 
L 2809 4666 
L 3519 4666 
L 4500 722 
L 5478 4666 
L 6119 4666 
L 4947 0 
L 4153 0 
L 3169 4050 
L 2175 0 
L 1381 0 
L 213 4666 
z
" transform="scale(0.015625)"/>
     </defs>
     <use xlink:href="#DejaVuSans-74"/>
     <use xlink:href="#DejaVuSans-52" x="39.208984"/>
     <use xlink:href="#DejaVuSans-46" x="108.691406"/>
     <use xlink:href="#DejaVuSans-2d" x="166.210938"/>
     <use xlink:href="#DejaVuSans-32" x="202.294922"/>
     <use xlink:href="#DejaVuSans-39" x="265.917969"/>
     <use xlink:href="#DejaVuSans-2d" x="329.541016"/>
     <use xlink:href="#DejaVuSans-38" x="365.625"/>
     <use xlink:href="#DejaVuSans-36" x="429.248047"/>
     <use xlink:href="#DejaVuSans-56" x="492.871094"/>
     <use xlink:href="#DejaVuSans-38" x="561.279297"/>
     <use xlink:href="#DejaVuSans-57" x="624.902344"/>
     <use xlink:href="#DejaVuSans-50" x="723.779297"/>
     <use xlink:href="#DejaVuSans-4d" x="784.082031"/>
     <use xlink:href="#DejaVuSans-4e" x="870.361328"/>
     <use xlink:href="#DejaVuSans-31" x="945.166016"/>
     <use xlink:href="#DejaVuSans-45" x="1008.789062"/>
     <use xlink:href="#DejaVuSans-4a" x="1071.972656"/>
     <use xlink:href="#DejaVuSans-33" x="1101.464844"/>
     <use xlink:href="#DejaVuSans-20" x="1165.087891"/>
     <use xlink:href="#DejaVuSans-28" x="1196.875"/>
     <use xlink:href="#DejaVuSans-50" x="1235.888672"/>
     <use xlink:href="#DejaVuSans-6f" x="1292.566406"/>
     <use xlink:href="#DejaVuSans-73" x="1353.748047"/>
     <use xlink:href="#DejaVuSans-69" x="1405.847656"/>
     <use xlink:href="#DejaVuSans-74" x="1433.630859"/>
     <use xlink:href="#DejaVuSans-69" x="1472.839844"/>
     <use xlink:href="#DejaVuSans-76" x="1500.623047"/>
     <use xlink:href="#DejaVuSans-65" x="1559.802734"/>
     <use xlink:href="#DejaVuSans-29" x="1621.326172"/>
    </g>
    <!-- tRF-17-W96KM8N (Negative) -->
    <g transform="translate(507.486151 321.01625) scale(0.08 -0.08)">
     <defs>
      <path id="DejaVuSans-37" d="M 525 4666 
L 3525 4666 
L 3525 4397 
L 1831 0 
L 1172 0 
L 2766 4134 
L 525 4134 
L 525 4666 
z
" transform="scale(0.015625)"/>
     </defs>
     <use xlink:href="#DejaVuSans-74"/>
     <use xlink:href="#DejaVuSans-52" x="39.208984"/>
     <use xlink:href="#DejaVuSans-46" x="108.691406"/>
     <use xlink:href="#DejaVuSans-2d" x="166.210938"/>
     <use xlink:href="#DejaVuSans-31" x="202.294922"/>
     <use xlink:href="#DejaVuSans-37" x="265.917969"/>
     <use xlink:href="#DejaVuSans-2d" x="329.541016"/>
     <use xlink:href="#DejaVuSans-57" x="361.625"/>
     <use xlink:href="#DejaVuSans-39" x="460.501953"/>
     <use xlink:href="#DejaVuSans-36" x="524.125"/>
     <use xlink:href="#DejaVuSans-4b" x="587.748047"/>
     <use xlink:href="#DejaVuSans-4d" x="653.324219"/>
     <use xlink:href="#DejaVuSans-38" x="739.603516"/>
     <use xlink:href="#DejaVuSans-4e" x="803.226562"/>
     <use xlink:href="#DejaVuSans-20" x="878.03125"/>
     <use xlink:href="#DejaVuSans-28" x="909.818359"/>
     <use xlink:href="#DejaVuSans-4e" x="948.832031"/>
     <use xlink:href="#DejaVuSans-65" x="1023.636719"/>
     <use xlink:href="#DejaVuSans-67" x="1085.160156"/>
     <use xlink:href="#DejaVuSans-61" x="1148.636719"/>
     <use xlink:href="#DejaVuSans-74" x="1209.916016"/>
     <use xlink:href="#DejaVuSans-69" x="1249.125"/>
     <use xlink:href="#DejaVuSans-76" x="1276.908203"/>
     <use xlink:href="#DejaVuSans-65" x="1336.087891"/>
     <use xlink:href="#DejaVuSans-29" x="1397.611328"/>
    </g>
    <!-- tRF-16-S45J7KE (Negative) -->
    <g transform="translate(511.478026 329.9745) scale(0.08 -0.08)">
     <defs>
      <path id="DejaVuSans-53" d="M 3425 4513 
L 3425 3897 
Q 3066 4069 2747 4153 
Q 2428 4238 2131 4238 
Q 1616 4238 1336 4038 
Q 1056 3838 1056 3469 
Q 1056 3159 1242 3001 
Q 1428 2844 1947 2747 
L 2328 2669 
Q 3034 2534 3370 2195 
Q 3706 1856 3706 1288 
Q 3706 609 3251 259 
Q 2797 -91 1919 -91 
Q 1588 -91 1214 -16 
Q 841 59 441 206 
L 441 856 
Q 825 641 1194 531 
Q 1563 422 1919 422 
Q 2459 422 2753 634 
Q 3047 847 3047 1241 
Q 3047 1584 2836 1778 
Q 2625 1972 2144 2069 
L 1759 2144 
Q 1053 2284 737 2584 
Q 422 2884 422 3419 
Q 422 4038 858 4394 
Q 1294 4750 2059 4750 
Q 2388 4750 2728 4690 
Q 3069 4631 3425 4513 
z
" transform="scale(0.015625)"/>
     </defs>
     <use xlink:href="#DejaVuSans-74"/>
     <use xlink:href="#DejaVuSans-52" x="39.208984"/>
     <use xlink:href="#DejaVuSans-46" x="108.691406"/>
     <use xlink:href="#DejaVuSans-2d" x="166.210938"/>
     <use xlink:href="#DejaVuSans-31" x="202.294922"/>
     <use xlink:href="#DejaVuSans-36" x="265.917969"/>
     <use xlink:href="#DejaVuSans-2d" x="329.541016"/>
     <use xlink:href="#DejaVuSans-53" x="365.625"/>
     <use xlink:href="#DejaVuSans-34" x="429.101562"/>
     <use xlink:href="#DejaVuSans-35" x="492.724609"/>
     <use xlink:href="#DejaVuSans-4a" x="556.347656"/>
     <use xlink:href="#DejaVuSans-37" x="585.839844"/>
     <use xlink:href="#DejaVuSans-4b" x="649.462891"/>
     <use xlink:href="#DejaVuSans-45" x="715.039062"/>
     <use xlink:href="#DejaVuSans-20" x="778.222656"/>
     <use xlink:href="#DejaVuSans-28" x="810.009766"/>
     <use xlink:href="#DejaVuSans-4e" x="849.023438"/>
     <use xlink:href="#DejaVuSans-65" x="923.828125"/>
     <use xlink:href="#DejaVuSans-67" x="985.351562"/>
     <use xlink:href="#DejaVuSans-61" x="1048.828125"/>
     <use xlink:href="#DejaVuSans-74" x="1110.107422"/>
     <use xlink:href="#DejaVuSans-69" x="1149.316406"/>
     <use xlink:href="#DejaVuSans-76" x="1177.099609"/>
     <use xlink:href="#DejaVuSans-65" x="1236.279297"/>
     <use xlink:href="#DejaVuSans-29" x="1297.802734"/>
    </g>
    <!-- tRF-30-86V8WPMN1E8Y (Positive) -->
    <g transform="translate(497.275526 338.93275) scale(0.08 -0.08)">
     <use xlink:href="#DejaVuSans-74"/>
     <use xlink:href="#DejaVuSans-52" x="39.208984"/>
     <use xlink:href="#DejaVuSans-46" x="108.691406"/>
     <use xlink:href="#DejaVuSans-2d" x="166.210938"/>
     <use xlink:href="#DejaVuSans-33" x="202.294922"/>
     <use xlink:href="#DejaVuSans-30" x="265.917969"/>
     <use xlink:href="#DejaVuSans-2d" x="329.541016"/>
     <use xlink:href="#DejaVuSans-38" x="365.625"/>
     <use xlink:href="#DejaVuSans-36" x="429.248047"/>
     <use xlink:href="#DejaVuSans-56" x="492.871094"/>
     <use xlink:href="#DejaVuSans-38" x="561.279297"/>
     <use xlink:href="#DejaVuSans-57" x="624.902344"/>
     <use xlink:href="#DejaVuSans-50" x="723.779297"/>
     <use xlink:href="#DejaVuSans-4d" x="784.082031"/>
     <use xlink:href="#DejaVuSans-4e" x="870.361328"/>
     <use xlink:href="#DejaVuSans-31" x="945.166016"/>
     <use xlink:href="#DejaVuSans-45" x="1008.789062"/>
     <use xlink:href="#DejaVuSans-38" x="1071.972656"/>
     <use xlink:href="#DejaVuSans-59" x="1135.595703"/>
     <use xlink:href="#DejaVuSans-20" x="1196.679688"/>
     <use xlink:href="#DejaVuSans-28" x="1228.466797"/>
     <use xlink:href="#DejaVuSans-50" x="1267.480469"/>
     <use xlink:href="#DejaVuSans-6f" x="1324.158203"/>
     <use xlink:href="#DejaVuSans-73" x="1385.339844"/>
     <use xlink:href="#DejaVuSans-69" x="1437.439453"/>
     <use xlink:href="#DejaVuSans-74" x="1465.222656"/>
     <use xlink:href="#DejaVuSans-69" x="1504.431641"/>
     <use xlink:href="#DejaVuSans-76" x="1532.214844"/>
     <use xlink:href="#DejaVuSans-65" x="1591.394531"/>
     <use xlink:href="#DejaVuSans-29" x="1652.917969"/>
    </g>
    <!-- tRF-31-86J8WPMN1E8Y0 (Positive) -->
    <g transform="translate(496.286776 347.891) scale(0.08 -0.08)">
     <use xlink:href="#DejaVuSans-74"/>
     <use xlink:href="#DejaVuSans-52" x="39.208984"/>
     <use xlink:href="#DejaVuSans-46" x="108.691406"/>
     <use xlink:href="#DejaVuSans-2d" x="166.210938"/>
     <use xlink:href="#DejaVuSans-33" x="202.294922"/>
     <use xlink:href="#DejaVuSans-31" x="265.917969"/>
     <use xlink:href="#DejaVuSans-2d" x="329.541016"/>
     <use xlink:href="#DejaVuSans-38" x="365.625"/>
     <use xlink:href="#DejaVuSans-36" x="429.248047"/>
     <use xlink:href="#DejaVuSans-4a" x="492.871094"/>
     <use xlink:href="#DejaVuSans-38" x="522.363281"/>
     <use xlink:href="#DejaVuSans-57" x="585.986328"/>
     <use xlink:href="#DejaVuSans-50" x="684.863281"/>
     <use xlink:href="#DejaVuSans-4d" x="745.166016"/>
     <use xlink:href="#DejaVuSans-4e" x="831.445312"/>
     <use xlink:href="#DejaVuSans-31" x="906.25"/>
     <use xlink:href="#DejaVuSans-45" x="969.873047"/>
     <use xlink:href="#DejaVuSans-38" x="1033.056641"/>
     <use xlink:href="#DejaVuSans-59" x="1096.679688"/>
     <use xlink:href="#DejaVuSans-30" x="1157.763672"/>
     <use xlink:href="#DejaVuSans-20" x="1221.386719"/>
     <use xlink:href="#DejaVuSans-28" x="1253.173828"/>
     <use xlink:href="#DejaVuSans-50" x="1292.1875"/>
     <use xlink:href="#DejaVuSans-6f" x="1348.865234"/>
     <use xlink:href="#DejaVuSans-73" x="1410.046875"/>
     <use xlink:href="#DejaVuSans-69" x="1462.146484"/>
     <use xlink:href="#DejaVuSans-74" x="1489.929688"/>
     <use xlink:href="#DejaVuSans-69" x="1529.138672"/>
     <use xlink:href="#DejaVuSans-76" x="1556.921875"/>
     <use xlink:href="#DejaVuSans-65" x="1616.101562"/>
     <use xlink:href="#DejaVuSans-29" x="1677.625"/>
    </g>
    <!-- tRF-28-86J8WPMN1E0J (Positive) -->
    <g transform="translate(500.094901 356.84925) scale(0.08 -0.08)">
     <use xlink:href="#DejaVuSans-74"/>
     <use xlink:href="#DejaVuSans-52" x="39.208984"/>
     <use xlink:href="#DejaVuSans-46" x="108.691406"/>
     <use xlink:href="#DejaVuSans-2d" x="166.210938"/>
     <use xlink:href="#DejaVuSans-32" x="202.294922"/>
     <use xlink:href="#DejaVuSans-38" x="265.917969"/>
     <use xlink:href="#DejaVuSans-2d" x="329.541016"/>
     <use xlink:href="#DejaVuSans-38" x="365.625"/>
     <use xlink:href="#DejaVuSans-36" x="429.248047"/>
     <use xlink:href="#DejaVuSans-4a" x="492.871094"/>
     <use xlink:href="#DejaVuSans-38" x="522.363281"/>
     <use xlink:href="#DejaVuSans-57" x="585.986328"/>
     <use xlink:href="#DejaVuSans-50" x="684.863281"/>
     <use xlink:href="#DejaVuSans-4d" x="745.166016"/>
     <use xlink:href="#DejaVuSans-4e" x="831.445312"/>
     <use xlink:href="#DejaVuSans-31" x="906.25"/>
     <use xlink:href="#DejaVuSans-45" x="969.873047"/>
     <use xlink:href="#DejaVuSans-30" x="1033.056641"/>
     <use xlink:href="#DejaVuSans-4a" x="1096.679688"/>
     <use xlink:href="#DejaVuSans-20" x="1126.171875"/>
     <use xlink:href="#DejaVuSans-28" x="1157.958984"/>
     <use xlink:href="#DejaVuSans-50" x="1196.972656"/>
     <use xlink:href="#DejaVuSans-6f" x="1253.650391"/>
     <use xlink:href="#DejaVuSans-73" x="1314.832031"/>
     <use xlink:href="#DejaVuSans-69" x="1366.931641"/>
     <use xlink:href="#DejaVuSans-74" x="1394.714844"/>
     <use xlink:href="#DejaVuSans-69" x="1433.923828"/>
     <use xlink:href="#DejaVuSans-76" x="1461.707031"/>
     <use xlink:href="#DejaVuSans-65" x="1520.886719"/>
     <use xlink:href="#DejaVuSans-29" x="1582.410156"/>
    </g>
    <!-- tRF-31-86V8WPMN1E8Y0 (Positive) -->
    <g transform="translate(494.730526 365.8075) scale(0.08 -0.08)">
     <use xlink:href="#DejaVuSans-74"/>
     <use xlink:href="#DejaVuSans-52" x="39.208984"/>
     <use xlink:href="#DejaVuSans-46" x="108.691406"/>
     <use xlink:href="#DejaVuSans-2d" x="166.210938"/>
     <use xlink:href="#DejaVuSans-33" x="202.294922"/>
     <use xlink:href="#DejaVuSans-31" x="265.917969"/>
     <use xlink:href="#DejaVuSans-2d" x="329.541016"/>
     <use xlink:href="#DejaVuSans-38" x="365.625"/>
     <use xlink:href="#DejaVuSans-36" x="429.248047"/>
     <use xlink:href="#DejaVuSans-56" x="492.871094"/>
     <use xlink:href="#DejaVuSans-38" x="561.279297"/>
     <use xlink:href="#DejaVuSans-57" x="624.902344"/>
     <use xlink:href="#DejaVuSans-50" x="723.779297"/>
     <use xlink:href="#DejaVuSans-4d" x="784.082031"/>
     <use xlink:href="#DejaVuSans-4e" x="870.361328"/>
     <use xlink:href="#DejaVuSans-31" x="945.166016"/>
     <use xlink:href="#DejaVuSans-45" x="1008.789062"/>
     <use xlink:href="#DejaVuSans-38" x="1071.972656"/>
     <use xlink:href="#DejaVuSans-59" x="1135.595703"/>
     <use xlink:href="#DejaVuSans-30" x="1196.679688"/>
     <use xlink:href="#DejaVuSans-20" x="1260.302734"/>
     <use xlink:href="#DejaVuSans-28" x="1292.089844"/>
     <use xlink:href="#DejaVuSans-50" x="1331.103516"/>
     <use xlink:href="#DejaVuSans-6f" x="1387.78125"/>
     <use xlink:href="#DejaVuSans-73" x="1448.962891"/>
     <use xlink:href="#DejaVuSans-69" x="1501.0625"/>
     <use xlink:href="#DejaVuSans-74" x="1528.845703"/>
     <use xlink:href="#DejaVuSans-69" x="1568.054688"/>
     <use xlink:href="#DejaVuSans-76" x="1595.837891"/>
     <use xlink:href="#DejaVuSans-65" x="1655.017578"/>
     <use xlink:href="#DejaVuSans-29" x="1716.541016"/>
    </g>
    <!-- tRF-29-86J8WPMN1EJ3 (s Negative, t Positive) -->
    <g transform="translate(473.405526 374.76575) scale(0.08 -0.08)">
     <use xlink:href="#DejaVuSans-74"/>
     <use xlink:href="#DejaVuSans-52" x="39.208984"/>
     <use xlink:href="#DejaVuSans-46" x="108.691406"/>
     <use xlink:href="#DejaVuSans-2d" x="166.210938"/>
     <use xlink:href="#DejaVuSans-32" x="202.294922"/>
     <use xlink:href="#DejaVuSans-39" x="265.917969"/>
     <use xlink:href="#DejaVuSans-2d" x="329.541016"/>
     <use xlink:href="#DejaVuSans-38" x="365.625"/>
     <use xlink:href="#DejaVuSans-36" x="429.248047"/>
     <use xlink:href="#DejaVuSans-4a" x="492.871094"/>
     <use xlink:href="#DejaVuSans-38" x="522.363281"/>
     <use xlink:href="#DejaVuSans-57" x="585.986328"/>
     <use xlink:href="#DejaVuSans-50" x="684.863281"/>
     <use xlink:href="#DejaVuSans-4d" x="745.166016"/>
     <use xlink:href="#DejaVuSans-4e" x="831.445312"/>
     <use xlink:href="#DejaVuSans-31" x="906.25"/>
     <use xlink:href="#DejaVuSans-45" x="969.873047"/>
     <use xlink:href="#DejaVuSans-4a" x="1033.056641"/>
     <use xlink:href="#DejaVuSans-33" x="1062.548828"/>
     <use xlink:href="#DejaVuSans-20" x="1126.171875"/>
     <use xlink:href="#DejaVuSans-28" x="1157.958984"/>
     <use xlink:href="#DejaVuSans-73" x="1196.972656"/>
     <use xlink:href="#DejaVuSans-20" x="1249.072266"/>
     <use xlink:href="#DejaVuSans-4e" x="1280.859375"/>
     <use xlink:href="#DejaVuSans-65" x="1355.664062"/>
     <use xlink:href="#DejaVuSans-67" x="1417.1875"/>
     <use xlink:href="#DejaVuSans-61" x="1480.664062"/>
     <use xlink:href="#DejaVuSans-74" x="1541.943359"/>
     <use xlink:href="#DejaVuSans-69" x="1581.152344"/>
     <use xlink:href="#DejaVuSans-76" x="1608.935547"/>
     <use xlink:href="#DejaVuSans-65" x="1668.115234"/>
     <use xlink:href="#DejaVuSans-2c" x="1729.638672"/>
     <use xlink:href="#DejaVuSans-20" x="1761.425781"/>
     <use xlink:href="#DejaVuSans-74" x="1793.212891"/>
     <use xlink:href="#DejaVuSans-20" x="1832.421875"/>
     <use xlink:href="#DejaVuSans-50" x="1864.208984"/>
     <use xlink:href="#DejaVuSans-6f" x="1920.886719"/>
     <use xlink:href="#DejaVuSans-73" x="1982.068359"/>
     <use xlink:href="#DejaVuSans-69" x="2034.167969"/>
     <use xlink:href="#DejaVuSans-74" x="2061.951172"/>
     <use xlink:href="#DejaVuSans-69" x="2101.160156"/>
     <use xlink:href="#DejaVuSans-76" x="2128.943359"/>
     <use xlink:href="#DejaVuSans-65" x="2188.123047"/>
     <use xlink:href="#DejaVuSans-29" x="2249.646484"/>
    </g>
    <!-- tRF-30-RRJ89O9NF5W8 (Positive) -->
    <g transform="translate(498.657401 383.724) scale(0.08 -0.08)">
     <use xlink:href="#DejaVuSans-74"/>
     <use xlink:href="#DejaVuSans-52" x="39.208984"/>
     <use xlink:href="#DejaVuSans-46" x="108.691406"/>
     <use xlink:href="#DejaVuSans-2d" x="166.210938"/>
     <use xlink:href="#DejaVuSans-33" x="202.294922"/>
     <use xlink:href="#DejaVuSans-30" x="265.917969"/>
     <use xlink:href="#DejaVuSans-2d" x="329.541016"/>
     <use xlink:href="#DejaVuSans-52" x="365.625"/>
     <use xlink:href="#DejaVuSans-52" x="435.107422"/>
     <use xlink:href="#DejaVuSans-4a" x="504.589844"/>
     <use xlink:href="#DejaVuSans-38" x="534.082031"/>
     <use xlink:href="#DejaVuSans-39" x="597.705078"/>
     <use xlink:href="#DejaVuSans-4f" x="661.328125"/>
     <use xlink:href="#DejaVuSans-39" x="740.039062"/>
     <use xlink:href="#DejaVuSans-4e" x="803.662109"/>
     <use xlink:href="#DejaVuSans-46" x="878.466797"/>
     <use xlink:href="#DejaVuSans-35" x="935.986328"/>
     <use xlink:href="#DejaVuSans-57" x="999.609375"/>
     <use xlink:href="#DejaVuSans-38" x="1098.486328"/>
     <use xlink:href="#DejaVuSans-20" x="1162.109375"/>
     <use xlink:href="#DejaVuSans-28" x="1193.896484"/>
     <use xlink:href="#DejaVuSans-50" x="1232.910156"/>
     <use xlink:href="#DejaVuSans-6f" x="1289.587891"/>
     <use xlink:href="#DejaVuSans-73" x="1350.769531"/>
     <use xlink:href="#DejaVuSans-69" x="1402.869141"/>
     <use xlink:href="#DejaVuSans-74" x="1430.652344"/>
     <use xlink:href="#DejaVuSans-69" x="1469.861328"/>
     <use xlink:href="#DejaVuSans-76" x="1497.644531"/>
     <use xlink:href="#DejaVuSans-65" x="1556.824219"/>
     <use xlink:href="#DejaVuSans-29" x="1618.347656"/>
    </g>
    <!-- tRF-28-86V8WPMN1E0J (Positive) -->
    <g transform="translate(498.538651 392.68225) scale(0.08 -0.08)">
     <use xlink:href="#DejaVuSans-74"/>
     <use xlink:href="#DejaVuSans-52" x="39.208984"/>
     <use xlink:href="#DejaVuSans-46" x="108.691406"/>
     <use xlink:href="#DejaVuSans-2d" x="166.210938"/>
     <use xlink:href="#DejaVuSans-32" x="202.294922"/>
     <use xlink:href="#DejaVuSans-38" x="265.917969"/>
     <use xlink:href="#DejaVuSans-2d" x="329.541016"/>
     <use xlink:href="#DejaVuSans-38" x="365.625"/>
     <use xlink:href="#DejaVuSans-36" x="429.248047"/>
     <use xlink:href="#DejaVuSans-56" x="492.871094"/>
     <use xlink:href="#DejaVuSans-38" x="561.279297"/>
     <use xlink:href="#DejaVuSans-57" x="624.902344"/>
     <use xlink:href="#DejaVuSans-50" x="723.779297"/>
     <use xlink:href="#DejaVuSans-4d" x="784.082031"/>
     <use xlink:href="#DejaVuSans-4e" x="870.361328"/>
     <use xlink:href="#DejaVuSans-31" x="945.166016"/>
     <use xlink:href="#DejaVuSans-45" x="1008.789062"/>
     <use xlink:href="#DejaVuSans-30" x="1071.972656"/>
     <use xlink:href="#DejaVuSans-4a" x="1135.595703"/>
     <use xlink:href="#DejaVuSans-20" x="1165.087891"/>
     <use xlink:href="#DejaVuSans-28" x="1196.875"/>
     <use xlink:href="#DejaVuSans-50" x="1235.888672"/>
     <use xlink:href="#DejaVuSans-6f" x="1292.566406"/>
     <use xlink:href="#DejaVuSans-73" x="1353.748047"/>
     <use xlink:href="#DejaVuSans-69" x="1405.847656"/>
     <use xlink:href="#DejaVuSans-74" x="1433.630859"/>
     <use xlink:href="#DejaVuSans-69" x="1472.839844"/>
     <use xlink:href="#DejaVuSans-76" x="1500.623047"/>
     <use xlink:href="#DejaVuSans-65" x="1559.802734"/>
     <use xlink:href="#DejaVuSans-29" x="1621.326172"/>
    </g>
    <!-- tRF-34-87R8WP9I1EWJIQ (s Negative, t Positive) -->
    <g transform="translate(468.786151 401.6405) scale(0.08 -0.08)">
     <defs>
      <path id="DejaVuSans-51" d="M 2522 4238 
Q 1834 4238 1429 3725 
Q 1025 3213 1025 2328 
Q 1025 1447 1429 934 
Q 1834 422 2522 422 
Q 3209 422 3611 934 
Q 4013 1447 4013 2328 
Q 4013 3213 3611 3725 
Q 3209 4238 2522 4238 
z
M 3406 84 
L 4238 -825 
L 3475 -825 
L 2784 -78 
Q 2681 -84 2626 -87 
Q 2572 -91 2522 -91 
Q 1538 -91 948 567 
Q 359 1225 359 2328 
Q 359 3434 948 4092 
Q 1538 4750 2522 4750 
Q 3503 4750 4090 4092 
Q 4678 3434 4678 2328 
Q 4678 1516 4351 937 
Q 4025 359 3406 84 
z
" transform="scale(0.015625)"/>
     </defs>
     <use xlink:href="#DejaVuSans-74"/>
     <use xlink:href="#DejaVuSans-52" x="39.208984"/>
     <use xlink:href="#DejaVuSans-46" x="108.691406"/>
     <use xlink:href="#DejaVuSans-2d" x="166.210938"/>
     <use xlink:href="#DejaVuSans-33" x="202.294922"/>
     <use xlink:href="#DejaVuSans-34" x="265.917969"/>
     <use xlink:href="#DejaVuSans-2d" x="329.541016"/>
     <use xlink:href="#DejaVuSans-38" x="365.625"/>
     <use xlink:href="#DejaVuSans-37" x="429.248047"/>
     <use xlink:href="#DejaVuSans-52" x="492.871094"/>
     <use xlink:href="#DejaVuSans-38" x="562.353516"/>
     <use xlink:href="#DejaVuSans-57" x="625.976562"/>
     <use xlink:href="#DejaVuSans-50" x="724.853516"/>
     <use xlink:href="#DejaVuSans-39" x="785.15625"/>
     <use xlink:href="#DejaVuSans-49" x="848.779297"/>
     <use xlink:href="#DejaVuSans-31" x="878.271484"/>
     <use xlink:href="#DejaVuSans-45" x="941.894531"/>
     <use xlink:href="#DejaVuSans-57" x="1005.078125"/>
     <use xlink:href="#DejaVuSans-4a" x="1103.955078"/>
     <use xlink:href="#DejaVuSans-49" x="1133.447266"/>
     <use xlink:href="#DejaVuSans-51" x="1162.939453"/>
     <use xlink:href="#DejaVuSans-20" x="1241.650391"/>
     <use xlink:href="#DejaVuSans-28" x="1273.4375"/>
     <use xlink:href="#DejaVuSans-73" x="1312.451172"/>
     <use xlink:href="#DejaVuSans-20" x="1364.550781"/>
     <use xlink:href="#DejaVuSans-4e" x="1396.337891"/>
     <use xlink:href="#DejaVuSans-65" x="1471.142578"/>
     <use xlink:href="#DejaVuSans-67" x="1532.666016"/>
     <use xlink:href="#DejaVuSans-61" x="1596.142578"/>
     <use xlink:href="#DejaVuSans-74" x="1657.421875"/>
     <use xlink:href="#DejaVuSans-69" x="1696.630859"/>
     <use xlink:href="#DejaVuSans-76" x="1724.414062"/>
     <use xlink:href="#DejaVuSans-65" x="1783.59375"/>
     <use xlink:href="#DejaVuSans-2c" x="1845.117188"/>
     <use xlink:href="#DejaVuSans-20" x="1876.904297"/>
     <use xlink:href="#DejaVuSans-74" x="1908.691406"/>
     <use xlink:href="#DejaVuSans-20" x="1947.900391"/>
     <use xlink:href="#DejaVuSans-50" x="1979.6875"/>
     <use xlink:href="#DejaVuSans-6f" x="2036.365234"/>
     <use xlink:href="#DejaVuSans-73" x="2097.546875"/>
     <use xlink:href="#DejaVuSans-69" x="2149.646484"/>
     <use xlink:href="#DejaVuSans-74" x="2177.429688"/>
     <use xlink:href="#DejaVuSans-69" x="2216.638672"/>
     <use xlink:href="#DejaVuSans-76" x="2244.421875"/>
     <use xlink:href="#DejaVuSans-65" x="2303.601562"/>
     <use xlink:href="#DejaVuSans-29" x="2365.125"/>
    </g>
    <!-- tRF-24-7SHRMFWRE2 (s Negative, t Positive) -->
    <g transform="translate(475.398026 410.59875) scale(0.08 -0.08)">
     <use xlink:href="#DejaVuSans-74"/>
     <use xlink:href="#DejaVuSans-52" x="39.208984"/>
     <use xlink:href="#DejaVuSans-46" x="108.691406"/>
     <use xlink:href="#DejaVuSans-2d" x="166.210938"/>
     <use xlink:href="#DejaVuSans-32" x="202.294922"/>
     <use xlink:href="#DejaVuSans-34" x="265.917969"/>
     <use xlink:href="#DejaVuSans-2d" x="329.541016"/>
     <use xlink:href="#DejaVuSans-37" x="365.625"/>
     <use xlink:href="#DejaVuSans-53" x="429.248047"/>
     <use xlink:href="#DejaVuSans-48" x="492.724609"/>
     <use xlink:href="#DejaVuSans-52" x="567.919922"/>
     <use xlink:href="#DejaVuSans-4d" x="637.402344"/>
     <use xlink:href="#DejaVuSans-46" x="723.681641"/>
     <use xlink:href="#DejaVuSans-57" x="781.201172"/>
     <use xlink:href="#DejaVuSans-52" x="880.078125"/>
     <use xlink:href="#DejaVuSans-45" x="949.560547"/>
     <use xlink:href="#DejaVuSans-32" x="1012.744141"/>
     <use xlink:href="#DejaVuSans-20" x="1076.367188"/>
     <use xlink:href="#DejaVuSans-28" x="1108.154297"/>
     <use xlink:href="#DejaVuSans-73" x="1147.167969"/>
     <use xlink:href="#DejaVuSans-20" x="1199.267578"/>
     <use xlink:href="#DejaVuSans-4e" x="1231.054688"/>
     <use xlink:href="#DejaVuSans-65" x="1305.859375"/>
     <use xlink:href="#DejaVuSans-67" x="1367.382812"/>
     <use xlink:href="#DejaVuSans-61" x="1430.859375"/>
     <use xlink:href="#DejaVuSans-74" x="1492.138672"/>
     <use xlink:href="#DejaVuSans-69" x="1531.347656"/>
     <use xlink:href="#DejaVuSans-76" x="1559.130859"/>
     <use xlink:href="#DejaVuSans-65" x="1618.310547"/>
     <use xlink:href="#DejaVuSans-2c" x="1679.833984"/>
     <use xlink:href="#DejaVuSans-20" x="1711.621094"/>
     <use xlink:href="#DejaVuSans-74" x="1743.408203"/>
     <use xlink:href="#DejaVuSans-20" x="1782.617188"/>
     <use xlink:href="#DejaVuSans-50" x="1814.404297"/>
     <use xlink:href="#DejaVuSans-6f" x="1871.082031"/>
     <use xlink:href="#DejaVuSans-73" x="1932.263672"/>
     <use xlink:href="#DejaVuSans-69" x="1984.363281"/>
     <use xlink:href="#DejaVuSans-74" x="2012.146484"/>
     <use xlink:href="#DejaVuSans-69" x="2051.355469"/>
     <use xlink:href="#DejaVuSans-76" x="2079.138672"/>
     <use xlink:href="#DejaVuSans-65" x="2138.318359"/>
     <use xlink:href="#DejaVuSans-29" x="2199.841797"/>
    </g>
    <!-- tRF-35-9EYK46S9Y81H93 (Negative) -->
    <g transform="translate(492.038651 419.557) scale(0.08 -0.08)">
     <use xlink:href="#DejaVuSans-74"/>
     <use xlink:href="#DejaVuSans-52" x="39.208984"/>
     <use xlink:href="#DejaVuSans-46" x="108.691406"/>
     <use xlink:href="#DejaVuSans-2d" x="166.210938"/>
     <use xlink:href="#DejaVuSans-33" x="202.294922"/>
     <use xlink:href="#DejaVuSans-35" x="265.917969"/>
     <use xlink:href="#DejaVuSans-2d" x="329.541016"/>
     <use xlink:href="#DejaVuSans-39" x="365.625"/>
     <use xlink:href="#DejaVuSans-45" x="429.248047"/>
     <use xlink:href="#DejaVuSans-59" x="492.431641"/>
     <use xlink:href="#DejaVuSans-4b" x="553.515625"/>
     <use xlink:href="#DejaVuSans-34" x="619.091797"/>
     <use xlink:href="#DejaVuSans-36" x="682.714844"/>
     <use xlink:href="#DejaVuSans-53" x="746.337891"/>
     <use xlink:href="#DejaVuSans-39" x="809.814453"/>
     <use xlink:href="#DejaVuSans-59" x="873.4375"/>
     <use xlink:href="#DejaVuSans-38" x="934.521484"/>
     <use xlink:href="#DejaVuSans-31" x="998.144531"/>
     <use xlink:href="#DejaVuSans-48" x="1061.767578"/>
     <use xlink:href="#DejaVuSans-39" x="1136.962891"/>
     <use xlink:href="#DejaVuSans-33" x="1200.585938"/>
     <use xlink:href="#DejaVuSans-20" x="1264.208984"/>
     <use xlink:href="#DejaVuSans-28" x="1295.996094"/>
     <use xlink:href="#DejaVuSans-4e" x="1335.009766"/>
     <use xlink:href="#DejaVuSans-65" x="1409.814453"/>
     <use xlink:href="#DejaVuSans-67" x="1471.337891"/>
     <use xlink:href="#DejaVuSans-61" x="1534.814453"/>
     <use xlink:href="#DejaVuSans-74" x="1596.09375"/>
     <use xlink:href="#DejaVuSans-69" x="1635.302734"/>
     <use xlink:href="#DejaVuSans-76" x="1663.085938"/>
     <use xlink:href="#DejaVuSans-65" x="1722.265625"/>
     <use xlink:href="#DejaVuSans-29" x="1783.789062"/>
    </g>
    <!-- tRF-28-P4R8YP9LOND5 (Positive) -->
    <g transform="translate(498.986776 428.51525) scale(0.08 -0.08)">
     <use xlink:href="#DejaVuSans-74"/>
     <use xlink:href="#DejaVuSans-52" x="39.208984"/>
     <use xlink:href="#DejaVuSans-46" x="108.691406"/>
     <use xlink:href="#DejaVuSans-2d" x="166.210938"/>
     <use xlink:href="#DejaVuSans-32" x="202.294922"/>
     <use xlink:href="#DejaVuSans-38" x="265.917969"/>
     <use xlink:href="#DejaVuSans-2d" x="329.541016"/>
     <use xlink:href="#DejaVuSans-50" x="365.625"/>
     <use xlink:href="#DejaVuSans-34" x="425.927734"/>
     <use xlink:href="#DejaVuSans-52" x="489.550781"/>
     <use xlink:href="#DejaVuSans-38" x="559.033203"/>
     <use xlink:href="#DejaVuSans-59" x="622.65625"/>
     <use xlink:href="#DejaVuSans-50" x="683.740234"/>
     <use xlink:href="#DejaVuSans-39" x="744.042969"/>
     <use xlink:href="#DejaVuSans-4c" x="807.666016"/>
     <use xlink:href="#DejaVuSans-4f" x="859.753906"/>
     <use xlink:href="#DejaVuSans-4e" x="938.464844"/>
     <use xlink:href="#DejaVuSans-44" x="1013.269531"/>
     <use xlink:href="#DejaVuSans-35" x="1090.271484"/>
     <use xlink:href="#DejaVuSans-20" x="1153.894531"/>
     <use xlink:href="#DejaVuSans-28" x="1185.681641"/>
     <use xlink:href="#DejaVuSans-50" x="1224.695312"/>
     <use xlink:href="#DejaVuSans-6f" x="1281.373047"/>
     <use xlink:href="#DejaVuSans-73" x="1342.554688"/>
     <use xlink:href="#DejaVuSans-69" x="1394.654297"/>
     <use xlink:href="#DejaVuSans-74" x="1422.4375"/>
     <use xlink:href="#DejaVuSans-69" x="1461.646484"/>
     <use xlink:href="#DejaVuSans-76" x="1489.429688"/>
     <use xlink:href="#DejaVuSans-65" x="1548.609375"/>
     <use xlink:href="#DejaVuSans-29" x="1610.132812"/>
    </g>
    <!-- tRF-30-86J8WPMN1E8Y (Positive) -->
    <g transform="translate(498.831776 437.4735) scale(0.08 -0.08)">
     <use xlink:href="#DejaVuSans-74"/>
     <use xlink:href="#DejaVuSans-52" x="39.208984"/>
     <use xlink:href="#DejaVuSans-46" x="108.691406"/>
     <use xlink:href="#DejaVuSans-2d" x="166.210938"/>
     <use xlink:href="#DejaVuSans-33" x="202.294922"/>
     <use xlink:href="#DejaVuSans-30" x="265.917969"/>
     <use xlink:href="#DejaVuSans-2d" x="329.541016"/>
     <use xlink:href="#DejaVuSans-38" x="365.625"/>
     <use xlink:href="#DejaVuSans-36" x="429.248047"/>
     <use xlink:href="#DejaVuSans-4a" x="492.871094"/>
     <use xlink:href="#DejaVuSans-38" x="522.363281"/>
     <use xlink:href="#DejaVuSans-57" x="585.986328"/>
     <use xlink:href="#DejaVuSans-50" x="684.863281"/>
     <use xlink:href="#DejaVuSans-4d" x="745.166016"/>
     <use xlink:href="#DejaVuSans-4e" x="831.445312"/>
     <use xlink:href="#DejaVuSans-31" x="906.25"/>
     <use xlink:href="#DejaVuSans-45" x="969.873047"/>
     <use xlink:href="#DejaVuSans-38" x="1033.056641"/>
     <use xlink:href="#DejaVuSans-59" x="1096.679688"/>
     <use xlink:href="#DejaVuSans-20" x="1157.763672"/>
     <use xlink:href="#DejaVuSans-28" x="1189.550781"/>
     <use xlink:href="#DejaVuSans-50" x="1228.564453"/>
     <use xlink:href="#DejaVuSans-6f" x="1285.242188"/>
     <use xlink:href="#DejaVuSans-73" x="1346.423828"/>
     <use xlink:href="#DejaVuSans-69" x="1398.523438"/>
     <use xlink:href="#DejaVuSans-74" x="1426.306641"/>
     <use xlink:href="#DejaVuSans-69" x="1465.515625"/>
     <use xlink:href="#DejaVuSans-76" x="1493.298828"/>
     <use xlink:href="#DejaVuSans-65" x="1552.478516"/>
     <use xlink:href="#DejaVuSans-29" x="1614.001953"/>
    </g>
    <!-- tRF-30-R9J89O9NF5W8 (Positive) -->
    <g transform="translate(498.891776 446.43175) scale(0.08 -0.08)">
     <use xlink:href="#DejaVuSans-74"/>
     <use xlink:href="#DejaVuSans-52" x="39.208984"/>
     <use xlink:href="#DejaVuSans-46" x="108.691406"/>
     <use xlink:href="#DejaVuSans-2d" x="166.210938"/>
     <use xlink:href="#DejaVuSans-33" x="202.294922"/>
     <use xlink:href="#DejaVuSans-30" x="265.917969"/>
     <use xlink:href="#DejaVuSans-2d" x="329.541016"/>
     <use xlink:href="#DejaVuSans-52" x="365.625"/>
     <use xlink:href="#DejaVuSans-39" x="435.107422"/>
     <use xlink:href="#DejaVuSans-4a" x="498.730469"/>
     <use xlink:href="#DejaVuSans-38" x="528.222656"/>
     <use xlink:href="#DejaVuSans-39" x="591.845703"/>
     <use xlink:href="#DejaVuSans-4f" x="655.46875"/>
     <use xlink:href="#DejaVuSans-39" x="734.179688"/>
     <use xlink:href="#DejaVuSans-4e" x="797.802734"/>
     <use xlink:href="#DejaVuSans-46" x="872.607422"/>
     <use xlink:href="#DejaVuSans-35" x="930.126953"/>
     <use xlink:href="#DejaVuSans-57" x="993.75"/>
     <use xlink:href="#DejaVuSans-38" x="1092.626953"/>
     <use xlink:href="#DejaVuSans-20" x="1156.25"/>
     <use xlink:href="#DejaVuSans-28" x="1188.037109"/>
     <use xlink:href="#DejaVuSans-50" x="1227.050781"/>
     <use xlink:href="#DejaVuSans-6f" x="1283.728516"/>
     <use xlink:href="#DejaVuSans-73" x="1344.910156"/>
     <use xlink:href="#DejaVuSans-69" x="1397.009766"/>
     <use xlink:href="#DejaVuSans-74" x="1424.792969"/>
     <use xlink:href="#DejaVuSans-69" x="1464.001953"/>
     <use xlink:href="#DejaVuSans-76" x="1491.785156"/>
     <use xlink:href="#DejaVuSans-65" x="1550.964844"/>
     <use xlink:href="#DejaVuSans-29" x="1612.488281"/>
    </g>
    <!-- tRF-29-79MP9P9NH52Q (Positive) -->
    <g transform="translate(497.823651 455.39) scale(0.08 -0.08)">
     <use xlink:href="#DejaVuSans-74"/>
     <use xlink:href="#DejaVuSans-52" x="39.208984"/>
     <use xlink:href="#DejaVuSans-46" x="108.691406"/>
     <use xlink:href="#DejaVuSans-2d" x="166.210938"/>
     <use xlink:href="#DejaVuSans-32" x="202.294922"/>
     <use xlink:href="#DejaVuSans-39" x="265.917969"/>
     <use xlink:href="#DejaVuSans-2d" x="329.541016"/>
     <use xlink:href="#DejaVuSans-37" x="365.625"/>
     <use xlink:href="#DejaVuSans-39" x="429.248047"/>
     <use xlink:href="#DejaVuSans-4d" x="492.871094"/>
     <use xlink:href="#DejaVuSans-50" x="579.150391"/>
     <use xlink:href="#DejaVuSans-39" x="639.453125"/>
     <use xlink:href="#DejaVuSans-50" x="703.076172"/>
     <use xlink:href="#DejaVuSans-39" x="763.378906"/>
     <use xlink:href="#DejaVuSans-4e" x="827.001953"/>
     <use xlink:href="#DejaVuSans-48" x="901.806641"/>
     <use xlink:href="#DejaVuSans-35" x="977.001953"/>
     <use xlink:href="#DejaVuSans-32" x="1040.625"/>
     <use xlink:href="#DejaVuSans-51" x="1104.248047"/>
     <use xlink:href="#DejaVuSans-20" x="1182.958984"/>
     <use xlink:href="#DejaVuSans-28" x="1214.746094"/>
     <use xlink:href="#DejaVuSans-50" x="1253.759766"/>
     <use xlink:href="#DejaVuSans-6f" x="1310.4375"/>
     <use xlink:href="#DejaVuSans-73" x="1371.619141"/>
     <use xlink:href="#DejaVuSans-69" x="1423.71875"/>
     <use xlink:href="#DejaVuSans-74" x="1451.501953"/>
     <use xlink:href="#DejaVuSans-69" x="1490.710938"/>
     <use xlink:href="#DejaVuSans-76" x="1518.494141"/>
     <use xlink:href="#DejaVuSans-65" x="1577.673828"/>
     <use xlink:href="#DejaVuSans-29" x="1639.197266"/>
    </g>
   </g>
   <g id="text_4">
    <!-- S ganglion -->
    <g transform="translate(379.594889 621.835721) scale(0.12 -0.12)">
     <defs>
      <path id="DejaVuSans-6e" d="M 3513 2113 
L 3513 0 
L 2938 0 
L 2938 2094 
Q 2938 2591 2744 2837 
Q 2550 3084 2163 3084 
Q 1697 3084 1428 2787 
Q 1159 2491 1159 1978 
L 1159 0 
L 581 0 
L 581 3500 
L 1159 3500 
L 1159 2956 
Q 1366 3272 1645 3428 
Q 1925 3584 2291 3584 
Q 2894 3584 3203 3211 
Q 3513 2838 3513 2113 
z
" transform="scale(0.015625)"/>
      <path id="DejaVuSans-6c" d="M 603 4863 
L 1178 4863 
L 1178 0 
L 603 0 
L 603 4863 
z
" transform="scale(0.015625)"/>
     </defs>
     <use xlink:href="#DejaVuSans-53"/>
     <use xlink:href="#DejaVuSans-20" x="63.476562"/>
     <use xlink:href="#DejaVuSans-67" x="95.263672"/>
     <use xlink:href="#DejaVuSans-61" x="158.740234"/>
     <use xlink:href="#DejaVuSans-6e" x="220.019531"/>
     <use xlink:href="#DejaVuSans-67" x="283.398438"/>
     <use xlink:href="#DejaVuSans-6c" x="346.875"/>
     <use xlink:href="#DejaVuSans-69" x="374.658203"/>
     <use xlink:href="#DejaVuSans-6f" x="402.441406"/>
     <use xlink:href="#DejaVuSans-6e" x="463.623047"/>
    </g>
   </g>
   <g id="text_5">
    <!-- T ganglion -->
    <g transform="translate(675.615637 610.383319) scale(0.12 -0.12)">
     <defs>
      <path id="DejaVuSans-54" d="M -19 4666 
L 3928 4666 
L 3928 4134 
L 2272 4134 
L 2272 0 
L 1638 0 
L 1638 4134 
L -19 4134 
L -19 4666 
z
" transform="scale(0.015625)"/>
     </defs>
     <use xlink:href="#DejaVuSans-54"/>
     <use xlink:href="#DejaVuSans-20" x="61.083984"/>
     <use xlink:href="#DejaVuSans-67" x="92.871094"/>
     <use xlink:href="#DejaVuSans-61" x="156.347656"/>
     <use xlink:href="#DejaVuSans-6e" x="217.626953"/>
     <use xlink:href="#DejaVuSans-67" x="281.005859"/>
     <use xlink:href="#DejaVuSans-6c" x="344.482422"/>
     <use xlink:href="#DejaVuSans-69" x="372.265625"/>
     <use xlink:href="#DejaVuSans-6f" x="400.048828"/>
     <use xlink:href="#DejaVuSans-6e" x="461.230469"/>
    </g>
   </g>
   <g id="text_6">
    <!-- Venn Diagram of Significant tRFs in the S and T ganglion -->
    <g transform="translate(383.205938 80.4) scale(0.12 -0.12)">
     <defs>
      <path id="DejaVuSans-72" d="M 2631 2963 
Q 2534 3019 2420 3045 
Q 2306 3072 2169 3072 
Q 1681 3072 1420 2755 
Q 1159 2438 1159 1844 
L 1159 0 
L 581 0 
L 581 3500 
L 1159 3500 
L 1159 2956 
Q 1341 3275 1631 3429 
Q 1922 3584 2338 3584 
Q 2397 3584 2469 3576 
Q 2541 3569 2628 3553 
L 2631 2963 
z
" transform="scale(0.015625)"/>
      <path id="DejaVuSans-6d" d="M 3328 2828 
Q 3544 3216 3844 3400 
Q 4144 3584 4550 3584 
Q 5097 3584 5394 3201 
Q 5691 2819 5691 2113 
L 5691 0 
L 5113 0 
L 5113 2094 
Q 5113 2597 4934 2840 
Q 4756 3084 4391 3084 
Q 3944 3084 3684 2787 
Q 3425 2491 3425 1978 
L 3425 0 
L 2847 0 
L 2847 2094 
Q 2847 2600 2669 2842 
Q 2491 3084 2119 3084 
Q 1678 3084 1418 2786 
Q 1159 2488 1159 1978 
L 1159 0 
L 581 0 
L 581 3500 
L 1159 3500 
L 1159 2956 
Q 1356 3278 1631 3431 
Q 1906 3584 2284 3584 
Q 2666 3584 2933 3390 
Q 3200 3197 3328 2828 
z
" transform="scale(0.015625)"/>
      <path id="DejaVuSans-66" d="M 2375 4863 
L 2375 4384 
L 1825 4384 
Q 1516 4384 1395 4259 
Q 1275 4134 1275 3809 
L 1275 3500 
L 2222 3500 
L 2222 3053 
L 1275 3053 
L 1275 0 
L 697 0 
L 697 3053 
L 147 3053 
L 147 3500 
L 697 3500 
L 697 3744 
Q 697 4328 969 4595 
Q 1241 4863 1831 4863 
L 2375 4863 
z
" transform="scale(0.015625)"/>
      <path id="DejaVuSans-63" d="M 3122 3366 
L 3122 2828 
Q 2878 2963 2633 3030 
Q 2388 3097 2138 3097 
Q 1578 3097 1268 2742 
Q 959 2388 959 1747 
Q 959 1106 1268 751 
Q 1578 397 2138 397 
Q 2388 397 2633 464 
Q 2878 531 3122 666 
L 3122 134 
Q 2881 22 2623 -34 
Q 2366 -91 2075 -91 
Q 1284 -91 818 406 
Q 353 903 353 1747 
Q 353 2603 823 3093 
Q 1294 3584 2113 3584 
Q 2378 3584 2631 3529 
Q 2884 3475 3122 3366 
z
" transform="scale(0.015625)"/>
      <path id="DejaVuSans-68" d="M 3513 2113 
L 3513 0 
L 2938 0 
L 2938 2094 
Q 2938 2591 2744 2837 
Q 2550 3084 2163 3084 
Q 1697 3084 1428 2787 
Q 1159 2491 1159 1978 
L 1159 0 
L 581 0 
L 581 4863 
L 1159 4863 
L 1159 2956 
Q 1366 3272 1645 3428 
Q 1925 3584 2291 3584 
Q 2894 3584 3203 3211 
Q 3513 2838 3513 2113 
z
" transform="scale(0.015625)"/>
      <path id="DejaVuSans-64" d="M 2906 2969 
L 2906 4863 
L 3481 4863 
L 3481 0 
L 2906 0 
L 2906 525 
Q 2725 213 2448 61 
Q 2172 -91 1784 -91 
Q 1150 -91 751 415 
Q 353 922 353 1747 
Q 353 2572 751 3078 
Q 1150 3584 1784 3584 
Q 2172 3584 2448 3432 
Q 2725 3281 2906 2969 
z
M 947 1747 
Q 947 1113 1208 752 
Q 1469 391 1925 391 
Q 2381 391 2643 752 
Q 2906 1113 2906 1747 
Q 2906 2381 2643 2742 
Q 2381 3103 1925 3103 
Q 1469 3103 1208 2742 
Q 947 2381 947 1747 
z
" transform="scale(0.015625)"/>
     </defs>
     <use xlink:href="#DejaVuSans-56"/>
     <use xlink:href="#DejaVuSans-65" x="60.658203"/>
     <use xlink:href="#DejaVuSans-6e" x="122.181641"/>
     <use xlink:href="#DejaVuSans-6e" x="185.560547"/>
     <use xlink:href="#DejaVuSans-20" x="248.939453"/>
     <use xlink:href="#DejaVuSans-44" x="280.726562"/>
     <use xlink:href="#DejaVuSans-69" x="357.728516"/>
     <use xlink:href="#DejaVuSans-61" x="385.511719"/>
     <use xlink:href="#DejaVuSans-67" x="446.791016"/>
     <use xlink:href="#DejaVuSans-72" x="510.267578"/>
     <use xlink:href="#DejaVuSans-61" x="551.380859"/>
     <use xlink:href="#DejaVuSans-6d" x="612.660156"/>
     <use xlink:href="#DejaVuSans-20" x="710.072266"/>
     <use xlink:href="#DejaVuSans-6f" x="741.859375"/>
     <use xlink:href="#DejaVuSans-66" x="803.041016"/>
     <use xlink:href="#DejaVuSans-20" x="838.246094"/>
     <use xlink:href="#DejaVuSans-53" x="870.033203"/>
     <use xlink:href="#DejaVuSans-69" x="933.509766"/>
     <use xlink:href="#DejaVuSans-67" x="961.292969"/>
     <use xlink:href="#DejaVuSans-6e" x="1024.769531"/>
     <use xlink:href="#DejaVuSans-69" x="1088.148438"/>
     <use xlink:href="#DejaVuSans-66" x="1115.931641"/>
     <use xlink:href="#DejaVuSans-69" x="1151.136719"/>
     <use xlink:href="#DejaVuSans-63" x="1178.919922"/>
     <use xlink:href="#DejaVuSans-61" x="1233.900391"/>
     <use xlink:href="#DejaVuSans-6e" x="1295.179688"/>
     <use xlink:href="#DejaVuSans-74" x="1358.558594"/>
     <use xlink:href="#DejaVuSans-20" x="1397.767578"/>
     <use xlink:href="#DejaVuSans-74" x="1429.554688"/>
     <use xlink:href="#DejaVuSans-52" x="1468.763672"/>
     <use xlink:href="#DejaVuSans-46" x="1538.246094"/>
     <use xlink:href="#DejaVuSans-73" x="1595.765625"/>
     <use xlink:href="#DejaVuSans-20" x="1647.865234"/>
     <use xlink:href="#DejaVuSans-69" x="1679.652344"/>
     <use xlink:href="#DejaVuSans-6e" x="1707.435547"/>
     <use xlink:href="#DejaVuSans-20" x="1770.814453"/>
     <use xlink:href="#DejaVuSans-74" x="1802.601562"/>
     <use xlink:href="#DejaVuSans-68" x="1841.810547"/>
     <use xlink:href="#DejaVuSans-65" x="1905.189453"/>
     <use xlink:href="#DejaVuSans-20" x="1966.712891"/>
     <use xlink:href="#DejaVuSans-53" x="1998.5"/>
     <use xlink:href="#DejaVuSans-20" x="2061.976562"/>
     <use xlink:href="#DejaVuSans-61" x="2093.763672"/>
     <use xlink:href="#DejaVuSans-6e" x="2155.042969"/>
     <use xlink:href="#DejaVuSans-64" x="2218.421875"/>
     <use xlink:href="#DejaVuSans-20" x="2281.898438"/>
     <use xlink:href="#DejaVuSans-54" x="2313.685547"/>
     <use xlink:href="#DejaVuSans-20" x="2374.769531"/>
     <use xlink:href="#DejaVuSans-67" x="2406.556641"/>
     <use xlink:href="#DejaVuSans-61" x="2470.033203"/>
     <use xlink:href="#DejaVuSans-6e" x="2531.3125"/>
     <use xlink:href="#DejaVuSans-67" x="2594.691406"/>
     <use xlink:href="#DejaVuSans-6c" x="2658.167969"/>
     <use xlink:href="#DejaVuSans-69" x="2685.951172"/>
     <use xlink:href="#DejaVuSans-6f" x="2713.734375"/>
     <use xlink:href="#DejaVuSans-6e" x="2774.916016"/>
    </g>
   </g>
  </g>
 </g>
 <defs>
  <clipPath id="p81b2ee6e65">
   <rect x="165.636764" y="86.4" width="775.726472" height="554.4"/>
  </clipPath>
 </defs>
</svg>
