<?xml version="1.0" encoding="utf-8" standalone="no"?>
<!DOCTYPE svg PUBLIC "-//W3C//DTD SVG 1.1//EN"
  "http://www.w3.org/Graphics/SVG/1.1/DTD/svg11.dtd">
<svg xmlns:xlink="http://www.w3.org/1999/xlink" width="2160pt" height="2160pt" viewBox="0 0 2160 2160" xmlns="http://www.w3.org/2000/svg" version="1.1">
 <metadata>
  <rdf:RDF xmlns:dc="http://purl.org/dc/elements/1.1/" xmlns:cc="http://creativecommons.org/ns#" xmlns:rdf="http://www.w3.org/1999/02/22-rdf-syntax-ns#">
   <cc:Work>
    <dc:type rdf:resource="http://purl.org/dc/dcmitype/StillImage"/>
    <dc:date>2024-09-12T13:08:36.937596</dc:date>
    <dc:format>image/svg+xml</dc:format>
    <dc:creator>
     <cc:Agent>
      <dc:title>Matplotlib v3.9.1, https://matplotlib.org/</dc:title>
     </cc:Agent>
    </dc:creator>
   </cc:Work>
  </rdf:RDF>
 </metadata>
 <defs>
  <style type="text/css">*{stroke-linejoin: round; stroke-linecap: butt}</style>
 </defs>
 <g id="figure_1">
  <g id="patch_1">
   <path d="M 0 2160 
L 2160 2160 
L 2160 0 
L 0 0 
z
" style="fill: #ffffff"/>
  </g>
  <g id="axes_1">
   <g id="patch_2">
    <path d="M 977.968858 447.118757 
C 887.618072 429.407928 793.828864 446.655045 715.689576 495.349909 
C 637.550288 544.044773 580.747795 620.643437 556.842757 709.556244 
C 532.93772 798.469051 543.669916 893.225046 586.855088 974.539122 
C 630.04026 1055.853199 702.535448 1117.807426 789.586152 1147.792641 
C 806.115699 1135.047943 823.686886 1123.71458 842.114217 1113.912196 
C 860.541549 1104.109812 879.759952 1095.873022 899.566542 1089.288781 
C 859.901667 1043.109592 830.298986 989.162436 812.653385 930.900505 
C 795.007784 872.638574 789.703974 811.332099 797.081455 750.905345 
C 804.458937 690.478591 824.356865 632.248986 855.501562 579.943846 
C 886.646258 527.638705 928.358704 482.398389 977.968858 447.118757 
" clip-path="url(#p79348b1d41)" style="fill: #ff0000; opacity: 0.4"/>
   </g>
   <g id="patch_3">
    <path d="M 977.968858 447.118757 
C 1046.167711 460.487299 1109.125862 493.130127 1159.351792 541.163005 
C 1209.577722 589.195883 1244.99699 650.634946 1261.394983 718.169436 
C 1277.792977 785.703925 1274.492423 856.544516 1251.886062 922.261742 
C 1229.279701 987.978969 1188.301225 1045.858563 1133.826746 1089.013316 
C 1172.278042 1101.695212 1208.406571 1120.559793 1240.789258 1144.863996 
C 1273.171944 1169.168199 1301.377953 1198.588669 1324.296271 1231.966556 
C 1387.804126 1218.232753 1447.466139 1190.534155 1498.942772 1150.88543 
C 1550.419405 1111.236705 1592.43159 1060.623026 1621.923555 1002.725798 
C 1651.415521 944.828569 1667.654465 881.086394 1669.459242 816.135583 
C 1671.264018 751.184772 1658.589783 686.639192 1632.358402 627.193588 
C 1606.12702 567.747985 1566.990278 514.879436 1517.794799 472.433353 
C 1468.59932 429.98727 1410.567491 399.018334 1347.920278 381.779082 
C 1285.273065 364.53983 1219.567097 361.458615 1155.581521 372.759549 
C 1091.595944 384.060484 1030.920644 409.462768 977.968858 447.118757 
" clip-path="url(#p79348b1d41)" style="fill: #008000; opacity: 0.4"/>
   </g>
   <g id="patch_4">
    <path d="M 977.968858 447.118757 
C 928.358704 482.398389 886.646258 527.638705 855.501562 579.943846 
C 824.356865 632.248986 804.458937 690.478591 797.081455 750.905345 
C 789.703974 811.332099 795.007784 872.638574 812.653385 930.900505 
C 830.298986 989.162436 859.901667 1043.109592 899.566542 1089.288781 
C 937.3355 1076.733368 976.873299 1070.309966 1016.674434 1070.263164 
C 1056.475569 1070.216362 1096.028366 1076.546762 1133.826746 1089.013316 
C 1188.301225 1045.858563 1229.279701 987.978969 1251.886062 922.261742 
C 1274.492423 856.544516 1277.792977 785.703925 1261.394983 718.169436 
C 1244.99699 650.634946 1209.577722 589.195883 1159.351792 541.163005 
C 1109.125862 493.130127 1046.167711 460.487299 977.968858 447.118757 
" clip-path="url(#p79348b1d41)" style="fill: #b25900; opacity: 0.4"/>
   </g>
   <g id="patch_5">
    <path d="M 789.586152 1147.792641 
C 731.920793 1192.254088 688.533251 1252.658111 664.812783 1321.501798 
C 641.092315 1390.345485 638.063465 1464.655315 656.102452 1535.201108 
C 674.14144 1605.7469 712.469118 1669.481615 766.324725 1718.488629 
C 820.180332 1767.495643 887.237717 1799.658227 959.167542 1810.9814 
C 1031.097366 1822.304573 1104.79281 1812.299259 1171.100007 1782.208239 
C 1237.407205 1752.11722 1293.46219 1703.240197 1332.302257 1641.648289 
C 1371.142323 1580.056381 1391.089876 1508.409889 1389.667187 1435.608173 
C 1388.244499 1362.806457 1365.513018 1291.993997 1324.296271 1231.966556 
C 1264.796972 1244.833495 1203.263136 1245.152868 1143.633483 1232.904233 
C 1084.00383 1220.655598 1027.578376 1196.105993 977.968858 1160.826815 
C 946.681651 1166.959826 914.723304 1168.951628 882.9167 1166.750933 
C 851.110095 1164.550238 819.730587 1158.176099 789.586152 1147.792641 
" clip-path="url(#p79348b1d41)" style="fill: #0000ff; opacity: 0.4"/>
   </g>
   <g id="patch_6">
    <path d="M 789.586152 1147.792641 
C 819.730587 1158.176099 851.110095 1164.550238 882.9167 1166.750933 
C 914.723304 1168.951628 946.681651 1166.959826 977.968858 1160.826815 
C 963.513207 1150.546863 949.695542 1139.398034 936.592264 1127.441974 
C 923.488985 1115.485914 911.124289 1102.7447 899.566542 1089.288781 
C 879.759952 1095.873022 860.541549 1104.109812 842.114217 1113.912196 
C 823.686886 1123.71458 806.115699 1135.047943 789.586152 1147.792641 
" clip-path="url(#p79348b1d41)" style="fill: #b200b2; opacity: 0.4"/>
   </g>
   <g id="patch_7">
    <path d="M 1133.826746 1089.013316 
C 1111.16786 1106.963714 1086.449177 1122.148397 1060.194622 1134.245516 
C 1033.940068 1146.342636 1006.336455 1155.266115 977.968858 1160.826815 
C 1027.578376 1196.105993 1084.00383 1220.655598 1143.633483 1232.904233 
C 1203.263136 1245.152868 1264.796972 1244.833495 1324.296271 1231.966556 
C 1301.377953 1198.588669 1273.171944 1169.168199 1240.789258 1144.863996 
C 1208.406571 1120.559793 1172.278042 1101.695212 1133.826746 1089.013316 
" clip-path="url(#p79348b1d41)" style="fill: #0059b2; opacity: 0.4"/>
   </g>
   <g id="patch_8">
    <path d="M 899.566542 1089.288781 
C 911.124289 1102.7447 923.488985 1115.485914 936.592264 1127.441974 
C 949.695542 1139.398034 963.513207 1150.546863 977.968858 1160.826815 
C 1006.336455 1155.266115 1033.940068 1146.342636 1060.194622 1134.245516 
C 1086.449177 1122.148397 1111.16786 1106.963714 1133.826746 1089.013316 
C 1096.028366 1076.546762 1056.475569 1070.216362 1016.674434 1070.263164 
C 976.873299 1070.309966 937.3355 1076.733368 899.566542 1089.288781 
" clip-path="url(#p79348b1d41)" style="fill: #663366; opacity: 0.4"/>
   </g>
   <g id="text_1">
    <!-- 7 -->
    <g transform="translate(654.253419 751.833226) scale(0.05 -0.05)">
     <defs>
      <path id="DejaVuSans-37" d="M 525 4666 
L 3525 4666 
L 3525 4397 
L 1831 0 
L 1172 0 
L 2766 4134 
L 525 4134 
L 525 4666 
z
" transform="scale(0.015625)"/>
     </defs>
     <use xlink:href="#DejaVuSans-37"/>
    </g>
   </g>
   <g id="text_2">
    <!-- 15 -->
    <g transform="translate(1459.333482 712.584308) scale(0.05 -0.05)">
     <defs>
      <path id="DejaVuSans-31" d="M 794 531 
L 1825 531 
L 1825 4091 
L 703 3866 
L 703 4441 
L 1819 4666 
L 2450 4666 
L 2450 531 
L 3481 531 
L 3481 0 
L 794 0 
L 794 531 
z
" transform="scale(0.015625)"/>
      <path id="DejaVuSans-35" d="M 691 4666 
L 3169 4666 
L 3169 4134 
L 1269 4134 
L 1269 2991 
Q 1406 3038 1543 3061 
Q 1681 3084 1819 3084 
Q 2600 3084 3056 2656 
Q 3513 2228 3513 1497 
Q 3513 744 3044 326 
Q 2575 -91 1722 -91 
Q 1428 -91 1123 -41 
Q 819 9 494 109 
L 494 744 
Q 775 591 1075 516 
Q 1375 441 1709 441 
Q 2250 441 2565 725 
Q 2881 1009 2881 1497 
Q 2881 1984 2565 2268 
Q 2250 2553 1709 2553 
Q 1456 2553 1204 2497 
Q 953 2441 691 2322 
L 691 4666 
z
" transform="scale(0.015625)"/>
     </defs>
     <use xlink:href="#DejaVuSans-31"/>
     <use xlink:href="#DejaVuSans-35" x="63.623047"/>
    </g>
   </g>
   <g id="text_3">
    <!-- tRF-21-O9XEKJ5R0 -->
    <g transform="translate(1035.342301 747.002582) scale(0.05 -0.05)">
     <defs>
      <path id="DejaVuSans-74" d="M 1172 4494 
L 1172 3500 
L 2356 3500 
L 2356 3053 
L 1172 3053 
L 1172 1153 
Q 1172 725 1289 603 
Q 1406 481 1766 481 
L 2356 481 
L 2356 0 
L 1766 0 
Q 1100 0 847 248 
Q 594 497 594 1153 
L 594 3053 
L 172 3053 
L 172 3500 
L 594 3500 
L 594 4494 
L 1172 4494 
z
" transform="scale(0.015625)"/>
      <path id="DejaVuSans-52" d="M 2841 2188 
Q 3044 2119 3236 1894 
Q 3428 1669 3622 1275 
L 4263 0 
L 3584 0 
L 2988 1197 
Q 2756 1666 2539 1819 
Q 2322 1972 1947 1972 
L 1259 1972 
L 1259 0 
L 628 0 
L 628 4666 
L 2053 4666 
Q 2853 4666 3247 4331 
Q 3641 3997 3641 3322 
Q 3641 2881 3436 2590 
Q 3231 2300 2841 2188 
z
M 1259 4147 
L 1259 2491 
L 2053 2491 
Q 2509 2491 2742 2702 
Q 2975 2913 2975 3322 
Q 2975 3731 2742 3939 
Q 2509 4147 2053 4147 
L 1259 4147 
z
" transform="scale(0.015625)"/>
      <path id="DejaVuSans-46" d="M 628 4666 
L 3309 4666 
L 3309 4134 
L 1259 4134 
L 1259 2759 
L 3109 2759 
L 3109 2228 
L 1259 2228 
L 1259 0 
L 628 0 
L 628 4666 
z
" transform="scale(0.015625)"/>
      <path id="DejaVuSans-2d" d="M 313 2009 
L 1997 2009 
L 1997 1497 
L 313 1497 
L 313 2009 
z
" transform="scale(0.015625)"/>
      <path id="DejaVuSans-32" d="M 1228 531 
L 3431 531 
L 3431 0 
L 469 0 
L 469 531 
Q 828 903 1448 1529 
Q 2069 2156 2228 2338 
Q 2531 2678 2651 2914 
Q 2772 3150 2772 3378 
Q 2772 3750 2511 3984 
Q 2250 4219 1831 4219 
Q 1534 4219 1204 4116 
Q 875 4013 500 3803 
L 500 4441 
Q 881 4594 1212 4672 
Q 1544 4750 1819 4750 
Q 2544 4750 2975 4387 
Q 3406 4025 3406 3419 
Q 3406 3131 3298 2873 
Q 3191 2616 2906 2266 
Q 2828 2175 2409 1742 
Q 1991 1309 1228 531 
z
" transform="scale(0.015625)"/>
      <path id="DejaVuSans-4f" d="M 2522 4238 
Q 1834 4238 1429 3725 
Q 1025 3213 1025 2328 
Q 1025 1447 1429 934 
Q 1834 422 2522 422 
Q 3209 422 3611 934 
Q 4013 1447 4013 2328 
Q 4013 3213 3611 3725 
Q 3209 4238 2522 4238 
z
M 2522 4750 
Q 3503 4750 4090 4092 
Q 4678 3434 4678 2328 
Q 4678 1225 4090 567 
Q 3503 -91 2522 -91 
Q 1538 -91 948 565 
Q 359 1222 359 2328 
Q 359 3434 948 4092 
Q 1538 4750 2522 4750 
z
" transform="scale(0.015625)"/>
      <path id="DejaVuSans-39" d="M 703 97 
L 703 672 
Q 941 559 1184 500 
Q 1428 441 1663 441 
Q 2288 441 2617 861 
Q 2947 1281 2994 2138 
Q 2813 1869 2534 1725 
Q 2256 1581 1919 1581 
Q 1219 1581 811 2004 
Q 403 2428 403 3163 
Q 403 3881 828 4315 
Q 1253 4750 1959 4750 
Q 2769 4750 3195 4129 
Q 3622 3509 3622 2328 
Q 3622 1225 3098 567 
Q 2575 -91 1691 -91 
Q 1453 -91 1209 -44 
Q 966 3 703 97 
z
M 1959 2075 
Q 2384 2075 2632 2365 
Q 2881 2656 2881 3163 
Q 2881 3666 2632 3958 
Q 2384 4250 1959 4250 
Q 1534 4250 1286 3958 
Q 1038 3666 1038 3163 
Q 1038 2656 1286 2365 
Q 1534 2075 1959 2075 
z
" transform="scale(0.015625)"/>
      <path id="DejaVuSans-58" d="M 403 4666 
L 1081 4666 
L 2241 2931 
L 3406 4666 
L 4084 4666 
L 2584 2425 
L 4184 0 
L 3506 0 
L 2194 1984 
L 872 0 
L 191 0 
L 1856 2491 
L 403 4666 
z
" transform="scale(0.015625)"/>
      <path id="DejaVuSans-45" d="M 628 4666 
L 3578 4666 
L 3578 4134 
L 1259 4134 
L 1259 2753 
L 3481 2753 
L 3481 2222 
L 1259 2222 
L 1259 531 
L 3634 531 
L 3634 0 
L 628 0 
L 628 4666 
z
" transform="scale(0.015625)"/>
      <path id="DejaVuSans-4b" d="M 628 4666 
L 1259 4666 
L 1259 2694 
L 3353 4666 
L 4166 4666 
L 1850 2491 
L 4331 0 
L 3500 0 
L 1259 2247 
L 1259 0 
L 628 0 
L 628 4666 
z
" transform="scale(0.015625)"/>
      <path id="DejaVuSans-4a" d="M 628 4666 
L 1259 4666 
L 1259 325 
Q 1259 -519 939 -900 
Q 619 -1281 -91 -1281 
L -331 -1281 
L -331 -750 
L -134 -750 
Q 284 -750 456 -515 
Q 628 -281 628 325 
L 628 4666 
z
" transform="scale(0.015625)"/>
      <path id="DejaVuSans-30" d="M 2034 4250 
Q 1547 4250 1301 3770 
Q 1056 3291 1056 2328 
Q 1056 1369 1301 889 
Q 1547 409 2034 409 
Q 2525 409 2770 889 
Q 3016 1369 3016 2328 
Q 3016 3291 2770 3770 
Q 2525 4250 2034 4250 
z
M 2034 4750 
Q 2819 4750 3233 4129 
Q 3647 3509 3647 2328 
Q 3647 1150 3233 529 
Q 2819 -91 2034 -91 
Q 1250 -91 836 529 
Q 422 1150 422 2328 
Q 422 3509 836 4129 
Q 1250 4750 2034 4750 
z
" transform="scale(0.015625)"/>
     </defs>
     <use xlink:href="#DejaVuSans-74"/>
     <use xlink:href="#DejaVuSans-52" x="39.208984"/>
     <use xlink:href="#DejaVuSans-46" x="108.691406"/>
     <use xlink:href="#DejaVuSans-2d" x="166.210938"/>
     <use xlink:href="#DejaVuSans-32" x="202.294922"/>
     <use xlink:href="#DejaVuSans-31" x="265.917969"/>
     <use xlink:href="#DejaVuSans-2d" x="329.541016"/>
     <use xlink:href="#DejaVuSans-4f" x="368.375"/>
     <use xlink:href="#DejaVuSans-39" x="447.085938"/>
     <use xlink:href="#DejaVuSans-58" x="510.708984"/>
     <use xlink:href="#DejaVuSans-45" x="579.214844"/>
     <use xlink:href="#DejaVuSans-4b" x="642.398438"/>
     <use xlink:href="#DejaVuSans-4a" x="707.974609"/>
     <use xlink:href="#DejaVuSans-35" x="737.466797"/>
     <use xlink:href="#DejaVuSans-52" x="801.089844"/>
     <use xlink:href="#DejaVuSans-30" x="870.572266"/>
    </g>
    <!-- tRF-29-PSQP4PW3FJFL -->
    <g transform="translate(1030.820426 752.601488) scale(0.05 -0.05)">
     <defs>
      <path id="DejaVuSans-50" d="M 1259 4147 
L 1259 2394 
L 2053 2394 
Q 2494 2394 2734 2622 
Q 2975 2850 2975 3272 
Q 2975 3691 2734 3919 
Q 2494 4147 2053 4147 
L 1259 4147 
z
M 628 4666 
L 2053 4666 
Q 2838 4666 3239 4311 
Q 3641 3956 3641 3272 
Q 3641 2581 3239 2228 
Q 2838 1875 2053 1875 
L 1259 1875 
L 1259 0 
L 628 0 
L 628 4666 
z
" transform="scale(0.015625)"/>
      <path id="DejaVuSans-53" d="M 3425 4513 
L 3425 3897 
Q 3066 4069 2747 4153 
Q 2428 4238 2131 4238 
Q 1616 4238 1336 4038 
Q 1056 3838 1056 3469 
Q 1056 3159 1242 3001 
Q 1428 2844 1947 2747 
L 2328 2669 
Q 3034 2534 3370 2195 
Q 3706 1856 3706 1288 
Q 3706 609 3251 259 
Q 2797 -91 1919 -91 
Q 1588 -91 1214 -16 
Q 841 59 441 206 
L 441 856 
Q 825 641 1194 531 
Q 1563 422 1919 422 
Q 2459 422 2753 634 
Q 3047 847 3047 1241 
Q 3047 1584 2836 1778 
Q 2625 1972 2144 2069 
L 1759 2144 
Q 1053 2284 737 2584 
Q 422 2884 422 3419 
Q 422 4038 858 4394 
Q 1294 4750 2059 4750 
Q 2388 4750 2728 4690 
Q 3069 4631 3425 4513 
z
" transform="scale(0.015625)"/>
      <path id="DejaVuSans-51" d="M 2522 4238 
Q 1834 4238 1429 3725 
Q 1025 3213 1025 2328 
Q 1025 1447 1429 934 
Q 1834 422 2522 422 
Q 3209 422 3611 934 
Q 4013 1447 4013 2328 
Q 4013 3213 3611 3725 
Q 3209 4238 2522 4238 
z
M 3406 84 
L 4238 -825 
L 3475 -825 
L 2784 -78 
Q 2681 -84 2626 -87 
Q 2572 -91 2522 -91 
Q 1538 -91 948 567 
Q 359 1225 359 2328 
Q 359 3434 948 4092 
Q 1538 4750 2522 4750 
Q 3503 4750 4090 4092 
Q 4678 3434 4678 2328 
Q 4678 1516 4351 937 
Q 4025 359 3406 84 
z
" transform="scale(0.015625)"/>
      <path id="DejaVuSans-34" d="M 2419 4116 
L 825 1625 
L 2419 1625 
L 2419 4116 
z
M 2253 4666 
L 3047 4666 
L 3047 1625 
L 3713 1625 
L 3713 1100 
L 3047 1100 
L 3047 0 
L 2419 0 
L 2419 1100 
L 313 1100 
L 313 1709 
L 2253 4666 
z
" transform="scale(0.015625)"/>
      <path id="DejaVuSans-57" d="M 213 4666 
L 850 4666 
L 1831 722 
L 2809 4666 
L 3519 4666 
L 4500 722 
L 5478 4666 
L 6119 4666 
L 4947 0 
L 4153 0 
L 3169 4050 
L 2175 0 
L 1381 0 
L 213 4666 
z
" transform="scale(0.015625)"/>
      <path id="DejaVuSans-33" d="M 2597 2516 
Q 3050 2419 3304 2112 
Q 3559 1806 3559 1356 
Q 3559 666 3084 287 
Q 2609 -91 1734 -91 
Q 1441 -91 1130 -33 
Q 819 25 488 141 
L 488 750 
Q 750 597 1062 519 
Q 1375 441 1716 441 
Q 2309 441 2620 675 
Q 2931 909 2931 1356 
Q 2931 1769 2642 2001 
Q 2353 2234 1838 2234 
L 1294 2234 
L 1294 2753 
L 1863 2753 
Q 2328 2753 2575 2939 
Q 2822 3125 2822 3475 
Q 2822 3834 2567 4026 
Q 2313 4219 1838 4219 
Q 1578 4219 1281 4162 
Q 984 4106 628 3988 
L 628 4550 
Q 988 4650 1302 4700 
Q 1616 4750 1894 4750 
Q 2613 4750 3031 4423 
Q 3450 4097 3450 3541 
Q 3450 3153 3228 2886 
Q 3006 2619 2597 2516 
z
" transform="scale(0.015625)"/>
      <path id="DejaVuSans-4c" d="M 628 4666 
L 1259 4666 
L 1259 531 
L 3531 531 
L 3531 0 
L 628 0 
L 628 4666 
z
" transform="scale(0.015625)"/>
     </defs>
     <use xlink:href="#DejaVuSans-74"/>
     <use xlink:href="#DejaVuSans-52" x="39.208984"/>
     <use xlink:href="#DejaVuSans-46" x="108.691406"/>
     <use xlink:href="#DejaVuSans-2d" x="166.210938"/>
     <use xlink:href="#DejaVuSans-32" x="202.294922"/>
     <use xlink:href="#DejaVuSans-39" x="265.917969"/>
     <use xlink:href="#DejaVuSans-2d" x="329.541016"/>
     <use xlink:href="#DejaVuSans-50" x="365.625"/>
     <use xlink:href="#DejaVuSans-53" x="425.927734"/>
     <use xlink:href="#DejaVuSans-51" x="489.404297"/>
     <use xlink:href="#DejaVuSans-50" x="568.115234"/>
     <use xlink:href="#DejaVuSans-34" x="628.417969"/>
     <use xlink:href="#DejaVuSans-50" x="692.041016"/>
     <use xlink:href="#DejaVuSans-57" x="752.34375"/>
     <use xlink:href="#DejaVuSans-33" x="851.220703"/>
     <use xlink:href="#DejaVuSans-46" x="914.84375"/>
     <use xlink:href="#DejaVuSans-4a" x="972.363281"/>
     <use xlink:href="#DejaVuSans-46" x="1001.855469"/>
     <use xlink:href="#DejaVuSans-4c" x="1059.375"/>
    </g>
    <!-- tRF-29-P4R8YP9LONHK -->
    <g transform="translate(1029.846207 758.200394) scale(0.05 -0.05)">
     <defs>
      <path id="DejaVuSans-38" d="M 2034 2216 
Q 1584 2216 1326 1975 
Q 1069 1734 1069 1313 
Q 1069 891 1326 650 
Q 1584 409 2034 409 
Q 2484 409 2743 651 
Q 3003 894 3003 1313 
Q 3003 1734 2745 1975 
Q 2488 2216 2034 2216 
z
M 1403 2484 
Q 997 2584 770 2862 
Q 544 3141 544 3541 
Q 544 4100 942 4425 
Q 1341 4750 2034 4750 
Q 2731 4750 3128 4425 
Q 3525 4100 3525 3541 
Q 3525 3141 3298 2862 
Q 3072 2584 2669 2484 
Q 3125 2378 3379 2068 
Q 3634 1759 3634 1313 
Q 3634 634 3220 271 
Q 2806 -91 2034 -91 
Q 1263 -91 848 271 
Q 434 634 434 1313 
Q 434 1759 690 2068 
Q 947 2378 1403 2484 
z
M 1172 3481 
Q 1172 3119 1398 2916 
Q 1625 2713 2034 2713 
Q 2441 2713 2670 2916 
Q 2900 3119 2900 3481 
Q 2900 3844 2670 4047 
Q 2441 4250 2034 4250 
Q 1625 4250 1398 4047 
Q 1172 3844 1172 3481 
z
" transform="scale(0.015625)"/>
      <path id="DejaVuSans-59" d="M -13 4666 
L 666 4666 
L 1959 2747 
L 3244 4666 
L 3922 4666 
L 2272 2222 
L 2272 0 
L 1638 0 
L 1638 2222 
L -13 4666 
z
" transform="scale(0.015625)"/>
      <path id="DejaVuSans-4e" d="M 628 4666 
L 1478 4666 
L 3547 763 
L 3547 4666 
L 4159 4666 
L 4159 0 
L 3309 0 
L 1241 3903 
L 1241 0 
L 628 0 
L 628 4666 
z
" transform="scale(0.015625)"/>
      <path id="DejaVuSans-48" d="M 628 4666 
L 1259 4666 
L 1259 2753 
L 3553 2753 
L 3553 4666 
L 4184 4666 
L 4184 0 
L 3553 0 
L 3553 2222 
L 1259 2222 
L 1259 0 
L 628 0 
L 628 4666 
z
" transform="scale(0.015625)"/>
     </defs>
     <use xlink:href="#DejaVuSans-74"/>
     <use xlink:href="#DejaVuSans-52" x="39.208984"/>
     <use xlink:href="#DejaVuSans-46" x="108.691406"/>
     <use xlink:href="#DejaVuSans-2d" x="166.210938"/>
     <use xlink:href="#DejaVuSans-32" x="202.294922"/>
     <use xlink:href="#DejaVuSans-39" x="265.917969"/>
     <use xlink:href="#DejaVuSans-2d" x="329.541016"/>
     <use xlink:href="#DejaVuSans-50" x="365.625"/>
     <use xlink:href="#DejaVuSans-34" x="425.927734"/>
     <use xlink:href="#DejaVuSans-52" x="489.550781"/>
     <use xlink:href="#DejaVuSans-38" x="559.033203"/>
     <use xlink:href="#DejaVuSans-59" x="622.65625"/>
     <use xlink:href="#DejaVuSans-50" x="683.740234"/>
     <use xlink:href="#DejaVuSans-39" x="744.042969"/>
     <use xlink:href="#DejaVuSans-4c" x="807.666016"/>
     <use xlink:href="#DejaVuSans-4f" x="859.753906"/>
     <use xlink:href="#DejaVuSans-4e" x="938.464844"/>
     <use xlink:href="#DejaVuSans-48" x="1013.269531"/>
     <use xlink:href="#DejaVuSans-4b" x="1088.464844"/>
    </g>
    <!-- tRF-29-XSXMSL73VLH3 -->
    <g transform="translate(1029.777847 763.7993) scale(0.05 -0.05)">
     <defs>
      <path id="DejaVuSans-4d" d="M 628 4666 
L 1569 4666 
L 2759 1491 
L 3956 4666 
L 4897 4666 
L 4897 0 
L 4281 0 
L 4281 4097 
L 3078 897 
L 2444 897 
L 1241 4097 
L 1241 0 
L 628 0 
L 628 4666 
z
" transform="scale(0.015625)"/>
      <path id="DejaVuSans-56" d="M 1831 0 
L 50 4666 
L 709 4666 
L 2188 738 
L 3669 4666 
L 4325 4666 
L 2547 0 
L 1831 0 
z
" transform="scale(0.015625)"/>
     </defs>
     <use xlink:href="#DejaVuSans-74"/>
     <use xlink:href="#DejaVuSans-52" x="39.208984"/>
     <use xlink:href="#DejaVuSans-46" x="108.691406"/>
     <use xlink:href="#DejaVuSans-2d" x="166.210938"/>
     <use xlink:href="#DejaVuSans-32" x="202.294922"/>
     <use xlink:href="#DejaVuSans-39" x="265.917969"/>
     <use xlink:href="#DejaVuSans-2d" x="329.541016"/>
     <use xlink:href="#DejaVuSans-58" x="360.625"/>
     <use xlink:href="#DejaVuSans-53" x="429.130859"/>
     <use xlink:href="#DejaVuSans-58" x="492.607422"/>
     <use xlink:href="#DejaVuSans-4d" x="561.113281"/>
     <use xlink:href="#DejaVuSans-53" x="647.392578"/>
     <use xlink:href="#DejaVuSans-4c" x="710.869141"/>
     <use xlink:href="#DejaVuSans-37" x="766.582031"/>
     <use xlink:href="#DejaVuSans-33" x="830.205078"/>
     <use xlink:href="#DejaVuSans-56" x="893.828125"/>
     <use xlink:href="#DejaVuSans-4c" x="962.236328"/>
     <use xlink:href="#DejaVuSans-48" x="1017.949219"/>
     <use xlink:href="#DejaVuSans-33" x="1093.144531"/>
    </g>
    <!-- tRF-41-PSQP4PW3FJI0E7UME -->
    <g transform="translate(1022.586441 769.398207) scale(0.05 -0.05)">
     <defs>
      <path id="DejaVuSans-49" d="M 628 4666 
L 1259 4666 
L 1259 0 
L 628 0 
L 628 4666 
z
" transform="scale(0.015625)"/>
      <path id="DejaVuSans-55" d="M 556 4666 
L 1191 4666 
L 1191 1831 
Q 1191 1081 1462 751 
Q 1734 422 2344 422 
Q 2950 422 3222 751 
Q 3494 1081 3494 1831 
L 3494 4666 
L 4128 4666 
L 4128 1753 
Q 4128 841 3676 375 
Q 3225 -91 2344 -91 
Q 1459 -91 1007 375 
Q 556 841 556 1753 
L 556 4666 
z
" transform="scale(0.015625)"/>
     </defs>
     <use xlink:href="#DejaVuSans-74"/>
     <use xlink:href="#DejaVuSans-52" x="39.208984"/>
     <use xlink:href="#DejaVuSans-46" x="108.691406"/>
     <use xlink:href="#DejaVuSans-2d" x="166.210938"/>
     <use xlink:href="#DejaVuSans-34" x="202.294922"/>
     <use xlink:href="#DejaVuSans-31" x="265.917969"/>
     <use xlink:href="#DejaVuSans-2d" x="329.541016"/>
     <use xlink:href="#DejaVuSans-50" x="365.625"/>
     <use xlink:href="#DejaVuSans-53" x="425.927734"/>
     <use xlink:href="#DejaVuSans-51" x="489.404297"/>
     <use xlink:href="#DejaVuSans-50" x="568.115234"/>
     <use xlink:href="#DejaVuSans-34" x="628.417969"/>
     <use xlink:href="#DejaVuSans-50" x="692.041016"/>
     <use xlink:href="#DejaVuSans-57" x="752.34375"/>
     <use xlink:href="#DejaVuSans-33" x="851.220703"/>
     <use xlink:href="#DejaVuSans-46" x="914.84375"/>
     <use xlink:href="#DejaVuSans-4a" x="972.363281"/>
     <use xlink:href="#DejaVuSans-49" x="1001.855469"/>
     <use xlink:href="#DejaVuSans-30" x="1031.347656"/>
     <use xlink:href="#DejaVuSans-45" x="1094.970703"/>
     <use xlink:href="#DejaVuSans-37" x="1158.154297"/>
     <use xlink:href="#DejaVuSans-55" x="1221.777344"/>
     <use xlink:href="#DejaVuSans-4d" x="1294.970703"/>
     <use xlink:href="#DejaVuSans-45" x="1381.25"/>
    </g>
    <!-- tRF-33-OUR8309NDJ58W -->
    <g transform="translate(1027.405191 774.997113) scale(0.05 -0.05)">
     <defs>
      <path id="DejaVuSans-44" d="M 1259 4147 
L 1259 519 
L 2022 519 
Q 2988 519 3436 956 
Q 3884 1394 3884 2338 
Q 3884 3275 3436 3711 
Q 2988 4147 2022 4147 
L 1259 4147 
z
M 628 4666 
L 1925 4666 
Q 3281 4666 3915 4102 
Q 4550 3538 4550 2338 
Q 4550 1131 3912 565 
Q 3275 0 1925 0 
L 628 0 
L 628 4666 
z
" transform="scale(0.015625)"/>
     </defs>
     <use xlink:href="#DejaVuSans-74"/>
     <use xlink:href="#DejaVuSans-52" x="39.208984"/>
     <use xlink:href="#DejaVuSans-46" x="108.691406"/>
     <use xlink:href="#DejaVuSans-2d" x="166.210938"/>
     <use xlink:href="#DejaVuSans-33" x="202.294922"/>
     <use xlink:href="#DejaVuSans-33" x="265.917969"/>
     <use xlink:href="#DejaVuSans-2d" x="329.541016"/>
     <use xlink:href="#DejaVuSans-4f" x="368.375"/>
     <use xlink:href="#DejaVuSans-55" x="447.085938"/>
     <use xlink:href="#DejaVuSans-52" x="520.279297"/>
     <use xlink:href="#DejaVuSans-38" x="589.761719"/>
     <use xlink:href="#DejaVuSans-33" x="653.384766"/>
     <use xlink:href="#DejaVuSans-30" x="717.007812"/>
     <use xlink:href="#DejaVuSans-39" x="780.630859"/>
     <use xlink:href="#DejaVuSans-4e" x="844.253906"/>
     <use xlink:href="#DejaVuSans-44" x="919.058594"/>
     <use xlink:href="#DejaVuSans-4a" x="996.060547"/>
     <use xlink:href="#DejaVuSans-35" x="1025.552734"/>
     <use xlink:href="#DejaVuSans-38" x="1089.175781"/>
     <use xlink:href="#DejaVuSans-57" x="1152.798828"/>
    </g>
    <!-- tRF-29-79MP9P9NH52Q -->
    <g transform="translate(1029.12316 780.596019) scale(0.05 -0.05)">
     <use xlink:href="#DejaVuSans-74"/>
     <use xlink:href="#DejaVuSans-52" x="39.208984"/>
     <use xlink:href="#DejaVuSans-46" x="108.691406"/>
     <use xlink:href="#DejaVuSans-2d" x="166.210938"/>
     <use xlink:href="#DejaVuSans-32" x="202.294922"/>
     <use xlink:href="#DejaVuSans-39" x="265.917969"/>
     <use xlink:href="#DejaVuSans-2d" x="329.541016"/>
     <use xlink:href="#DejaVuSans-37" x="365.625"/>
     <use xlink:href="#DejaVuSans-39" x="429.248047"/>
     <use xlink:href="#DejaVuSans-4d" x="492.871094"/>
     <use xlink:href="#DejaVuSans-50" x="579.150391"/>
     <use xlink:href="#DejaVuSans-39" x="639.453125"/>
     <use xlink:href="#DejaVuSans-50" x="703.076172"/>
     <use xlink:href="#DejaVuSans-39" x="763.378906"/>
     <use xlink:href="#DejaVuSans-4e" x="827.001953"/>
     <use xlink:href="#DejaVuSans-48" x="901.806641"/>
     <use xlink:href="#DejaVuSans-35" x="977.001953"/>
     <use xlink:href="#DejaVuSans-32" x="1040.625"/>
     <use xlink:href="#DejaVuSans-51" x="1104.248047"/>
    </g>
    <!-- tRF-30-R9J89O9NF5W8 -->
    <g transform="translate(1029.790738 786.194925) scale(0.05 -0.05)">
     <use xlink:href="#DejaVuSans-74"/>
     <use xlink:href="#DejaVuSans-52" x="39.208984"/>
     <use xlink:href="#DejaVuSans-46" x="108.691406"/>
     <use xlink:href="#DejaVuSans-2d" x="166.210938"/>
     <use xlink:href="#DejaVuSans-33" x="202.294922"/>
     <use xlink:href="#DejaVuSans-30" x="265.917969"/>
     <use xlink:href="#DejaVuSans-2d" x="329.541016"/>
     <use xlink:href="#DejaVuSans-52" x="365.625"/>
     <use xlink:href="#DejaVuSans-39" x="435.107422"/>
     <use xlink:href="#DejaVuSans-4a" x="498.730469"/>
     <use xlink:href="#DejaVuSans-38" x="528.222656"/>
     <use xlink:href="#DejaVuSans-39" x="591.845703"/>
     <use xlink:href="#DejaVuSans-4f" x="655.46875"/>
     <use xlink:href="#DejaVuSans-39" x="734.179688"/>
     <use xlink:href="#DejaVuSans-4e" x="797.802734"/>
     <use xlink:href="#DejaVuSans-46" x="872.607422"/>
     <use xlink:href="#DejaVuSans-35" x="930.126953"/>
     <use xlink:href="#DejaVuSans-57" x="993.75"/>
     <use xlink:href="#DejaVuSans-38" x="1092.626953"/>
    </g>
    <!-- tRF-28-P4R8YP9LOND5 -->
    <g transform="translate(1029.850113 791.793832) scale(0.05 -0.05)">
     <use xlink:href="#DejaVuSans-74"/>
     <use xlink:href="#DejaVuSans-52" x="39.208984"/>
     <use xlink:href="#DejaVuSans-46" x="108.691406"/>
     <use xlink:href="#DejaVuSans-2d" x="166.210938"/>
     <use xlink:href="#DejaVuSans-32" x="202.294922"/>
     <use xlink:href="#DejaVuSans-38" x="265.917969"/>
     <use xlink:href="#DejaVuSans-2d" x="329.541016"/>
     <use xlink:href="#DejaVuSans-50" x="365.625"/>
     <use xlink:href="#DejaVuSans-34" x="425.927734"/>
     <use xlink:href="#DejaVuSans-52" x="489.550781"/>
     <use xlink:href="#DejaVuSans-38" x="559.033203"/>
     <use xlink:href="#DejaVuSans-59" x="622.65625"/>
     <use xlink:href="#DejaVuSans-50" x="683.740234"/>
     <use xlink:href="#DejaVuSans-39" x="744.042969"/>
     <use xlink:href="#DejaVuSans-4c" x="807.666016"/>
     <use xlink:href="#DejaVuSans-4f" x="859.753906"/>
     <use xlink:href="#DejaVuSans-4e" x="938.464844"/>
     <use xlink:href="#DejaVuSans-44" x="1013.269531"/>
     <use xlink:href="#DejaVuSans-35" x="1090.271484"/>
    </g>
    <!-- tRF-28-86V8WPMN1E0J -->
    <g transform="translate(1029.570035 797.392738) scale(0.05 -0.05)">
     <defs>
      <path id="DejaVuSans-36" d="M 2113 2584 
Q 1688 2584 1439 2293 
Q 1191 2003 1191 1497 
Q 1191 994 1439 701 
Q 1688 409 2113 409 
Q 2538 409 2786 701 
Q 3034 994 3034 1497 
Q 3034 2003 2786 2293 
Q 2538 2584 2113 2584 
z
M 3366 4563 
L 3366 3988 
Q 3128 4100 2886 4159 
Q 2644 4219 2406 4219 
Q 1781 4219 1451 3797 
Q 1122 3375 1075 2522 
Q 1259 2794 1537 2939 
Q 1816 3084 2150 3084 
Q 2853 3084 3261 2657 
Q 3669 2231 3669 1497 
Q 3669 778 3244 343 
Q 2819 -91 2113 -91 
Q 1303 -91 875 529 
Q 447 1150 447 2328 
Q 447 3434 972 4092 
Q 1497 4750 2381 4750 
Q 2619 4750 2861 4703 
Q 3103 4656 3366 4563 
z
" transform="scale(0.015625)"/>
     </defs>
     <use xlink:href="#DejaVuSans-74"/>
     <use xlink:href="#DejaVuSans-52" x="39.208984"/>
     <use xlink:href="#DejaVuSans-46" x="108.691406"/>
     <use xlink:href="#DejaVuSans-2d" x="166.210938"/>
     <use xlink:href="#DejaVuSans-32" x="202.294922"/>
     <use xlink:href="#DejaVuSans-38" x="265.917969"/>
     <use xlink:href="#DejaVuSans-2d" x="329.541016"/>
     <use xlink:href="#DejaVuSans-38" x="365.625"/>
     <use xlink:href="#DejaVuSans-36" x="429.248047"/>
     <use xlink:href="#DejaVuSans-56" x="492.871094"/>
     <use xlink:href="#DejaVuSans-38" x="561.279297"/>
     <use xlink:href="#DejaVuSans-57" x="624.902344"/>
     <use xlink:href="#DejaVuSans-50" x="723.779297"/>
     <use xlink:href="#DejaVuSans-4d" x="784.082031"/>
     <use xlink:href="#DejaVuSans-4e" x="870.361328"/>
     <use xlink:href="#DejaVuSans-31" x="945.166016"/>
     <use xlink:href="#DejaVuSans-45" x="1008.789062"/>
     <use xlink:href="#DejaVuSans-30" x="1071.972656"/>
     <use xlink:href="#DejaVuSans-4a" x="1135.595703"/>
    </g>
    <!-- tRF-29-86J8WPMN1EJ3 -->
    <g transform="translate(1030.542691 802.991644) scale(0.05 -0.05)">
     <use xlink:href="#DejaVuSans-74"/>
     <use xlink:href="#DejaVuSans-52" x="39.208984"/>
     <use xlink:href="#DejaVuSans-46" x="108.691406"/>
     <use xlink:href="#DejaVuSans-2d" x="166.210938"/>
     <use xlink:href="#DejaVuSans-32" x="202.294922"/>
     <use xlink:href="#DejaVuSans-39" x="265.917969"/>
     <use xlink:href="#DejaVuSans-2d" x="329.541016"/>
     <use xlink:href="#DejaVuSans-38" x="365.625"/>
     <use xlink:href="#DejaVuSans-36" x="429.248047"/>
     <use xlink:href="#DejaVuSans-4a" x="492.871094"/>
     <use xlink:href="#DejaVuSans-38" x="522.363281"/>
     <use xlink:href="#DejaVuSans-57" x="585.986328"/>
     <use xlink:href="#DejaVuSans-50" x="684.863281"/>
     <use xlink:href="#DejaVuSans-4d" x="745.166016"/>
     <use xlink:href="#DejaVuSans-4e" x="831.445312"/>
     <use xlink:href="#DejaVuSans-31" x="906.25"/>
     <use xlink:href="#DejaVuSans-45" x="969.873047"/>
     <use xlink:href="#DejaVuSans-4a" x="1033.056641"/>
     <use xlink:href="#DejaVuSans-33" x="1062.548828"/>
    </g>
    <!-- tRF-30-RRJ89O9NF5W8 -->
    <g transform="translate(1029.644254 808.59055) scale(0.05 -0.05)">
     <use xlink:href="#DejaVuSans-74"/>
     <use xlink:href="#DejaVuSans-52" x="39.208984"/>
     <use xlink:href="#DejaVuSans-46" x="108.691406"/>
     <use xlink:href="#DejaVuSans-2d" x="166.210938"/>
     <use xlink:href="#DejaVuSans-33" x="202.294922"/>
     <use xlink:href="#DejaVuSans-30" x="265.917969"/>
     <use xlink:href="#DejaVuSans-2d" x="329.541016"/>
     <use xlink:href="#DejaVuSans-52" x="365.625"/>
     <use xlink:href="#DejaVuSans-52" x="435.107422"/>
     <use xlink:href="#DejaVuSans-4a" x="504.589844"/>
     <use xlink:href="#DejaVuSans-38" x="534.082031"/>
     <use xlink:href="#DejaVuSans-39" x="597.705078"/>
     <use xlink:href="#DejaVuSans-4f" x="661.328125"/>
     <use xlink:href="#DejaVuSans-39" x="740.039062"/>
     <use xlink:href="#DejaVuSans-4e" x="803.662109"/>
     <use xlink:href="#DejaVuSans-46" x="878.466797"/>
     <use xlink:href="#DejaVuSans-35" x="935.986328"/>
     <use xlink:href="#DejaVuSans-57" x="999.609375"/>
     <use xlink:href="#DejaVuSans-38" x="1098.486328"/>
    </g>
    <!--  -->
    <g transform="translate(1058.697379 814.189457) scale(0.05 -0.05)"/>
   </g>
   <g id="text_4">
    <!-- 18 -->
    <g transform="translate(974.820283 1676.193147) scale(0.05 -0.05)">
     <use xlink:href="#DejaVuSans-31"/>
     <use xlink:href="#DejaVuSans-38" x="63.623047"/>
    </g>
   </g>
   <g id="text_5">
    <!-- tRF-31-86V8WPMN1E8Y0 -->
    <g transform="translate(850.808704 1140.607383) scale(0.05 -0.05)">
     <use xlink:href="#DejaVuSans-74"/>
     <use xlink:href="#DejaVuSans-52" x="39.208984"/>
     <use xlink:href="#DejaVuSans-46" x="108.691406"/>
     <use xlink:href="#DejaVuSans-2d" x="166.210938"/>
     <use xlink:href="#DejaVuSans-33" x="202.294922"/>
     <use xlink:href="#DejaVuSans-31" x="265.917969"/>
     <use xlink:href="#DejaVuSans-2d" x="329.541016"/>
     <use xlink:href="#DejaVuSans-38" x="365.625"/>
     <use xlink:href="#DejaVuSans-36" x="429.248047"/>
     <use xlink:href="#DejaVuSans-56" x="492.871094"/>
     <use xlink:href="#DejaVuSans-38" x="561.279297"/>
     <use xlink:href="#DejaVuSans-57" x="624.902344"/>
     <use xlink:href="#DejaVuSans-50" x="723.779297"/>
     <use xlink:href="#DejaVuSans-4d" x="784.082031"/>
     <use xlink:href="#DejaVuSans-4e" x="870.361328"/>
     <use xlink:href="#DejaVuSans-31" x="945.166016"/>
     <use xlink:href="#DejaVuSans-45" x="1008.789062"/>
     <use xlink:href="#DejaVuSans-38" x="1071.972656"/>
     <use xlink:href="#DejaVuSans-59" x="1135.595703"/>
     <use xlink:href="#DejaVuSans-30" x="1196.679688"/>
    </g>
    <!--  -->
    <g transform="translate(882.316126 1146.206289) scale(0.05 -0.05)"/>
   </g>
   <g id="text_6">
    <!-- tRF-30-86J8WPMN1E8Y -->
    <g transform="translate(1126.666159 1175.431798) scale(0.05 -0.05)">
     <use xlink:href="#DejaVuSans-74"/>
     <use xlink:href="#DejaVuSans-52" x="39.208984"/>
     <use xlink:href="#DejaVuSans-46" x="108.691406"/>
     <use xlink:href="#DejaVuSans-2d" x="166.210938"/>
     <use xlink:href="#DejaVuSans-33" x="202.294922"/>
     <use xlink:href="#DejaVuSans-30" x="265.917969"/>
     <use xlink:href="#DejaVuSans-2d" x="329.541016"/>
     <use xlink:href="#DejaVuSans-38" x="365.625"/>
     <use xlink:href="#DejaVuSans-36" x="429.248047"/>
     <use xlink:href="#DejaVuSans-4a" x="492.871094"/>
     <use xlink:href="#DejaVuSans-38" x="522.363281"/>
     <use xlink:href="#DejaVuSans-57" x="585.986328"/>
     <use xlink:href="#DejaVuSans-50" x="684.863281"/>
     <use xlink:href="#DejaVuSans-4d" x="745.166016"/>
     <use xlink:href="#DejaVuSans-4e" x="831.445312"/>
     <use xlink:href="#DejaVuSans-31" x="906.25"/>
     <use xlink:href="#DejaVuSans-45" x="969.873047"/>
     <use xlink:href="#DejaVuSans-38" x="1033.056641"/>
     <use xlink:href="#DejaVuSans-59" x="1096.679688"/>
    </g>
    <!-- tRF-31-87R8WP9N1EWJ0 -->
    <g transform="translate(1124.550534 1181.030704) scale(0.05 -0.05)">
     <use xlink:href="#DejaVuSans-74"/>
     <use xlink:href="#DejaVuSans-52" x="39.208984"/>
     <use xlink:href="#DejaVuSans-46" x="108.691406"/>
     <use xlink:href="#DejaVuSans-2d" x="166.210938"/>
     <use xlink:href="#DejaVuSans-33" x="202.294922"/>
     <use xlink:href="#DejaVuSans-31" x="265.917969"/>
     <use xlink:href="#DejaVuSans-2d" x="329.541016"/>
     <use xlink:href="#DejaVuSans-38" x="365.625"/>
     <use xlink:href="#DejaVuSans-37" x="429.248047"/>
     <use xlink:href="#DejaVuSans-52" x="492.871094"/>
     <use xlink:href="#DejaVuSans-38" x="562.353516"/>
     <use xlink:href="#DejaVuSans-57" x="625.976562"/>
     <use xlink:href="#DejaVuSans-50" x="724.853516"/>
     <use xlink:href="#DejaVuSans-39" x="785.15625"/>
     <use xlink:href="#DejaVuSans-4e" x="848.779297"/>
     <use xlink:href="#DejaVuSans-31" x="923.583984"/>
     <use xlink:href="#DejaVuSans-45" x="987.207031"/>
     <use xlink:href="#DejaVuSans-57" x="1050.390625"/>
     <use xlink:href="#DejaVuSans-4a" x="1149.267578"/>
     <use xlink:href="#DejaVuSans-30" x="1178.759766"/>
    </g>
    <!--  -->
    <g transform="translate(1155.6103 1186.62961) scale(0.05 -0.05)"/>
   </g>
   <g id="text_7">
    <!-- 0 -->
    <g transform="translate(1016.02197 1104.29756) scale(0.05 -0.05)">
     <use xlink:href="#DejaVuSans-30"/>
    </g>
   </g>
   <g id="text_8">
    <!-- 4h -->
    <g transform="translate(710.95454 440.327324) scale(0.12 -0.12)">
     <defs>
      <path id="DejaVuSans-68" d="M 3513 2113 
L 3513 0 
L 2938 0 
L 2938 2094 
Q 2938 2591 2744 2837 
Q 2550 3084 2163 3084 
Q 1697 3084 1428 2787 
Q 1159 2491 1159 1978 
L 1159 0 
L 581 0 
L 581 4863 
L 1159 4863 
L 1159 2956 
Q 1366 3272 1645 3428 
Q 1925 3584 2291 3584 
Q 2894 3584 3203 3211 
Q 3513 2838 3513 2113 
z
" transform="scale(0.015625)"/>
     </defs>
     <use xlink:href="#DejaVuSans-34"/>
     <use xlink:href="#DejaVuSans-68" x="63.623047"/>
    </g>
   </g>
   <g id="text_9">
    <!-- 24h -->
    <g transform="translate(1450.68463 366.085663) scale(0.12 -0.12)">
     <use xlink:href="#DejaVuSans-32"/>
     <use xlink:href="#DejaVuSans-34" x="63.623047"/>
     <use xlink:href="#DejaVuSans-68" x="127.246094"/>
    </g>
   </g>
   <g id="text_10">
    <!-- 168h -->
    <g transform="translate(1001.857603 1861.895033) scale(0.12 -0.12)">
     <use xlink:href="#DejaVuSans-31"/>
     <use xlink:href="#DejaVuSans-36" x="63.623047"/>
     <use xlink:href="#DejaVuSans-38" x="127.246094"/>
     <use xlink:href="#DejaVuSans-68" x="190.869141"/>
    </g>
   </g>
   <g id="text_11">
    <!-- Venn Diagram of Significant tRFs in the T ganglion -->
    <g transform="translate(955.617188 253.2) scale(0.12 -0.12)">
     <defs>
      <path id="DejaVuSans-65" d="M 3597 1894 
L 3597 1613 
L 953 1613 
Q 991 1019 1311 708 
Q 1631 397 2203 397 
Q 2534 397 2845 478 
Q 3156 559 3463 722 
L 3463 178 
Q 3153 47 2828 -22 
Q 2503 -91 2169 -91 
Q 1331 -91 842 396 
Q 353 884 353 1716 
Q 353 2575 817 3079 
Q 1281 3584 2069 3584 
Q 2775 3584 3186 3129 
Q 3597 2675 3597 1894 
z
M 3022 2063 
Q 3016 2534 2758 2815 
Q 2500 3097 2075 3097 
Q 1594 3097 1305 2825 
Q 1016 2553 972 2059 
L 3022 2063 
z
" transform="scale(0.015625)"/>
      <path id="DejaVuSans-6e" d="M 3513 2113 
L 3513 0 
L 2938 0 
L 2938 2094 
Q 2938 2591 2744 2837 
Q 2550 3084 2163 3084 
Q 1697 3084 1428 2787 
Q 1159 2491 1159 1978 
L 1159 0 
L 581 0 
L 581 3500 
L 1159 3500 
L 1159 2956 
Q 1366 3272 1645 3428 
Q 1925 3584 2291 3584 
Q 2894 3584 3203 3211 
Q 3513 2838 3513 2113 
z
" transform="scale(0.015625)"/>
      <path id="DejaVuSans-20" transform="scale(0.015625)"/>
      <path id="DejaVuSans-69" d="M 603 3500 
L 1178 3500 
L 1178 0 
L 603 0 
L 603 3500 
z
M 603 4863 
L 1178 4863 
L 1178 4134 
L 603 4134 
L 603 4863 
z
" transform="scale(0.015625)"/>
      <path id="DejaVuSans-61" d="M 2194 1759 
Q 1497 1759 1228 1600 
Q 959 1441 959 1056 
Q 959 750 1161 570 
Q 1363 391 1709 391 
Q 2188 391 2477 730 
Q 2766 1069 2766 1631 
L 2766 1759 
L 2194 1759 
z
M 3341 1997 
L 3341 0 
L 2766 0 
L 2766 531 
Q 2569 213 2275 61 
Q 1981 -91 1556 -91 
Q 1019 -91 701 211 
Q 384 513 384 1019 
Q 384 1609 779 1909 
Q 1175 2209 1959 2209 
L 2766 2209 
L 2766 2266 
Q 2766 2663 2505 2880 
Q 2244 3097 1772 3097 
Q 1472 3097 1187 3025 
Q 903 2953 641 2809 
L 641 3341 
Q 956 3463 1253 3523 
Q 1550 3584 1831 3584 
Q 2591 3584 2966 3190 
Q 3341 2797 3341 1997 
z
" transform="scale(0.015625)"/>
      <path id="DejaVuSans-67" d="M 2906 1791 
Q 2906 2416 2648 2759 
Q 2391 3103 1925 3103 
Q 1463 3103 1205 2759 
Q 947 2416 947 1791 
Q 947 1169 1205 825 
Q 1463 481 1925 481 
Q 2391 481 2648 825 
Q 2906 1169 2906 1791 
z
M 3481 434 
Q 3481 -459 3084 -895 
Q 2688 -1331 1869 -1331 
Q 1566 -1331 1297 -1286 
Q 1028 -1241 775 -1147 
L 775 -588 
Q 1028 -725 1275 -790 
Q 1522 -856 1778 -856 
Q 2344 -856 2625 -561 
Q 2906 -266 2906 331 
L 2906 616 
Q 2728 306 2450 153 
Q 2172 0 1784 0 
Q 1141 0 747 490 
Q 353 981 353 1791 
Q 353 2603 747 3093 
Q 1141 3584 1784 3584 
Q 2172 3584 2450 3431 
Q 2728 3278 2906 2969 
L 2906 3500 
L 3481 3500 
L 3481 434 
z
" transform="scale(0.015625)"/>
      <path id="DejaVuSans-72" d="M 2631 2963 
Q 2534 3019 2420 3045 
Q 2306 3072 2169 3072 
Q 1681 3072 1420 2755 
Q 1159 2438 1159 1844 
L 1159 0 
L 581 0 
L 581 3500 
L 1159 3500 
L 1159 2956 
Q 1341 3275 1631 3429 
Q 1922 3584 2338 3584 
Q 2397 3584 2469 3576 
Q 2541 3569 2628 3553 
L 2631 2963 
z
" transform="scale(0.015625)"/>
      <path id="DejaVuSans-6d" d="M 3328 2828 
Q 3544 3216 3844 3400 
Q 4144 3584 4550 3584 
Q 5097 3584 5394 3201 
Q 5691 2819 5691 2113 
L 5691 0 
L 5113 0 
L 5113 2094 
Q 5113 2597 4934 2840 
Q 4756 3084 4391 3084 
Q 3944 3084 3684 2787 
Q 3425 2491 3425 1978 
L 3425 0 
L 2847 0 
L 2847 2094 
Q 2847 2600 2669 2842 
Q 2491 3084 2119 3084 
Q 1678 3084 1418 2786 
Q 1159 2488 1159 1978 
L 1159 0 
L 581 0 
L 581 3500 
L 1159 3500 
L 1159 2956 
Q 1356 3278 1631 3431 
Q 1906 3584 2284 3584 
Q 2666 3584 2933 3390 
Q 3200 3197 3328 2828 
z
" transform="scale(0.015625)"/>
      <path id="DejaVuSans-6f" d="M 1959 3097 
Q 1497 3097 1228 2736 
Q 959 2375 959 1747 
Q 959 1119 1226 758 
Q 1494 397 1959 397 
Q 2419 397 2687 759 
Q 2956 1122 2956 1747 
Q 2956 2369 2687 2733 
Q 2419 3097 1959 3097 
z
M 1959 3584 
Q 2709 3584 3137 3096 
Q 3566 2609 3566 1747 
Q 3566 888 3137 398 
Q 2709 -91 1959 -91 
Q 1206 -91 779 398 
Q 353 888 353 1747 
Q 353 2609 779 3096 
Q 1206 3584 1959 3584 
z
" transform="scale(0.015625)"/>
      <path id="DejaVuSans-66" d="M 2375 4863 
L 2375 4384 
L 1825 4384 
Q 1516 4384 1395 4259 
Q 1275 4134 1275 3809 
L 1275 3500 
L 2222 3500 
L 2222 3053 
L 1275 3053 
L 1275 0 
L 697 0 
L 697 3053 
L 147 3053 
L 147 3500 
L 697 3500 
L 697 3744 
Q 697 4328 969 4595 
Q 1241 4863 1831 4863 
L 2375 4863 
z
" transform="scale(0.015625)"/>
      <path id="DejaVuSans-63" d="M 3122 3366 
L 3122 2828 
Q 2878 2963 2633 3030 
Q 2388 3097 2138 3097 
Q 1578 3097 1268 2742 
Q 959 2388 959 1747 
Q 959 1106 1268 751 
Q 1578 397 2138 397 
Q 2388 397 2633 464 
Q 2878 531 3122 666 
L 3122 134 
Q 2881 22 2623 -34 
Q 2366 -91 2075 -91 
Q 1284 -91 818 406 
Q 353 903 353 1747 
Q 353 2603 823 3093 
Q 1294 3584 2113 3584 
Q 2378 3584 2631 3529 
Q 2884 3475 3122 3366 
z
" transform="scale(0.015625)"/>
      <path id="DejaVuSans-73" d="M 2834 3397 
L 2834 2853 
Q 2591 2978 2328 3040 
Q 2066 3103 1784 3103 
Q 1356 3103 1142 2972 
Q 928 2841 928 2578 
Q 928 2378 1081 2264 
Q 1234 2150 1697 2047 
L 1894 2003 
Q 2506 1872 2764 1633 
Q 3022 1394 3022 966 
Q 3022 478 2636 193 
Q 2250 -91 1575 -91 
Q 1294 -91 989 -36 
Q 684 19 347 128 
L 347 722 
Q 666 556 975 473 
Q 1284 391 1588 391 
Q 1994 391 2212 530 
Q 2431 669 2431 922 
Q 2431 1156 2273 1281 
Q 2116 1406 1581 1522 
L 1381 1569 
Q 847 1681 609 1914 
Q 372 2147 372 2553 
Q 372 3047 722 3315 
Q 1072 3584 1716 3584 
Q 2034 3584 2315 3537 
Q 2597 3491 2834 3397 
z
" transform="scale(0.015625)"/>
      <path id="DejaVuSans-54" d="M -19 4666 
L 3928 4666 
L 3928 4134 
L 2272 4134 
L 2272 0 
L 1638 0 
L 1638 4134 
L -19 4134 
L -19 4666 
z
" transform="scale(0.015625)"/>
      <path id="DejaVuSans-6c" d="M 603 4863 
L 1178 4863 
L 1178 0 
L 603 0 
L 603 4863 
z
" transform="scale(0.015625)"/>
     </defs>
     <use xlink:href="#DejaVuSans-56"/>
     <use xlink:href="#DejaVuSans-65" x="60.658203"/>
     <use xlink:href="#DejaVuSans-6e" x="122.181641"/>
     <use xlink:href="#DejaVuSans-6e" x="185.560547"/>
     <use xlink:href="#DejaVuSans-20" x="248.939453"/>
     <use xlink:href="#DejaVuSans-44" x="280.726562"/>
     <use xlink:href="#DejaVuSans-69" x="357.728516"/>
     <use xlink:href="#DejaVuSans-61" x="385.511719"/>
     <use xlink:href="#DejaVuSans-67" x="446.791016"/>
     <use xlink:href="#DejaVuSans-72" x="510.267578"/>
     <use xlink:href="#DejaVuSans-61" x="551.380859"/>
     <use xlink:href="#DejaVuSans-6d" x="612.660156"/>
     <use xlink:href="#DejaVuSans-20" x="710.072266"/>
     <use xlink:href="#DejaVuSans-6f" x="741.859375"/>
     <use xlink:href="#DejaVuSans-66" x="803.041016"/>
     <use xlink:href="#DejaVuSans-20" x="838.246094"/>
     <use xlink:href="#DejaVuSans-53" x="870.033203"/>
     <use xlink:href="#DejaVuSans-69" x="933.509766"/>
     <use xlink:href="#DejaVuSans-67" x="961.292969"/>
     <use xlink:href="#DejaVuSans-6e" x="1024.769531"/>
     <use xlink:href="#DejaVuSans-69" x="1088.148438"/>
     <use xlink:href="#DejaVuSans-66" x="1115.931641"/>
     <use xlink:href="#DejaVuSans-69" x="1151.136719"/>
     <use xlink:href="#DejaVuSans-63" x="1178.919922"/>
     <use xlink:href="#DejaVuSans-61" x="1233.900391"/>
     <use xlink:href="#DejaVuSans-6e" x="1295.179688"/>
     <use xlink:href="#DejaVuSans-74" x="1358.558594"/>
     <use xlink:href="#DejaVuSans-20" x="1397.767578"/>
     <use xlink:href="#DejaVuSans-74" x="1429.554688"/>
     <use xlink:href="#DejaVuSans-52" x="1468.763672"/>
     <use xlink:href="#DejaVuSans-46" x="1538.246094"/>
     <use xlink:href="#DejaVuSans-73" x="1595.765625"/>
     <use xlink:href="#DejaVuSans-20" x="1647.865234"/>
     <use xlink:href="#DejaVuSans-69" x="1679.652344"/>
     <use xlink:href="#DejaVuSans-6e" x="1707.435547"/>
     <use xlink:href="#DejaVuSans-20" x="1770.814453"/>
     <use xlink:href="#DejaVuSans-74" x="1802.601562"/>
     <use xlink:href="#DejaVuSans-68" x="1841.810547"/>
     <use xlink:href="#DejaVuSans-65" x="1905.189453"/>
     <use xlink:href="#DejaVuSans-20" x="1966.712891"/>
     <use xlink:href="#DejaVuSans-54" x="1998.5"/>
     <use xlink:href="#DejaVuSans-20" x="2059.583984"/>
     <use xlink:href="#DejaVuSans-67" x="2091.371094"/>
     <use xlink:href="#DejaVuSans-61" x="2154.847656"/>
     <use xlink:href="#DejaVuSans-6e" x="2216.126953"/>
     <use xlink:href="#DejaVuSans-67" x="2279.505859"/>
     <use xlink:href="#DejaVuSans-6c" x="2342.982422"/>
     <use xlink:href="#DejaVuSans-69" x="2370.765625"/>
     <use xlink:href="#DejaVuSans-6f" x="2398.548828"/>
     <use xlink:href="#DejaVuSans-6e" x="2459.730469"/>
    </g>
   </g>
  </g>
 </g>
 <defs>
  <clipPath id="p79348b1d41">
   <rect x="437.486145" y="259.2" width="1339.02771" height="1663.2"/>
  </clipPath>
 </defs>
</svg>
