<?xml version="1.0" encoding="utf-8" standalone="no"?>
<!DOCTYPE svg PUBLIC "-//W3C//DTD SVG 1.1//EN"
  "http://www.w3.org/Graphics/SVG/1.1/DTD/svg11.dtd">
<svg xmlns:xlink="http://www.w3.org/1999/xlink" width="2160pt" height="2160pt" viewBox="0 0 2160 2160" xmlns="http://www.w3.org/2000/svg" version="1.1">
 <metadata>
  <rdf:RDF xmlns:dc="http://purl.org/dc/elements/1.1/" xmlns:cc="http://creativecommons.org/ns#" xmlns:rdf="http://www.w3.org/1999/02/22-rdf-syntax-ns#">
   <cc:Work>
    <dc:type rdf:resource="http://purl.org/dc/dcmitype/StillImage"/>
    <dc:date>2024-09-12T13:10:02.930992</dc:date>
    <dc:format>image/svg+xml</dc:format>
    <dc:creator>
     <cc:Agent>
      <dc:title>Matplotlib v3.9.1, https://matplotlib.org/</dc:title>
     </cc:Agent>
    </dc:creator>
   </cc:Work>
  </rdf:RDF>
 </metadata>
 <defs>
  <style type="text/css">*{stroke-linejoin: round; stroke-linecap: butt}</style>
 </defs>
 <g id="figure_1">
  <g id="patch_1">
   <path d="M 0 2160 
L 2160 2160 
L 2160 0 
L 0 0 
z
" style="fill: #ffffff"/>
  </g>
  <g id="axes_1">
   <g id="patch_2">
    <path d="M 1337.16604 547.30239 
C 1295.510772 496.415516 1243.721864 454.745775 1185.098426 424.947657 
C 1126.474988 395.14954 1062.288859 377.869517 996.628892 374.20838 
C 930.968924 370.547242 865.259614 380.584418 803.686845 403.680509 
C 742.114076 426.7766 686.013673 462.430535 638.959402 508.371049 
C 591.905131 554.311563 554.917837 609.541976 530.353724 670.543939 
C 505.789611 731.545903 494.181598 796.995979 496.269151 862.724796 
C 498.356704 928.453613 514.094534 993.035182 542.480093 1052.35546 
C 570.865652 1111.675737 611.283113 1164.447767 661.157762 1207.30981 
C 683.646423 1104.190071 738.518634 1010.909766 817.724235 941.153809 
C 896.929835 871.397853 996.396318 828.75288 1101.53121 819.475226 
C 1107.425452 755.179504 1133.334591 694.322229 1175.594961 645.508881 
C 1217.855332 596.695533 1274.376469 562.34073 1337.16604 547.30239 
" clip-path="url(#p00743dfc73)" style="fill: #ff0000; opacity: 0.4"/>
   </g>
   <g id="patch_3">
    <path d="M 1337.16604 547.30239 
C 1378.754032 598.107078 1409.341024 656.999616 1426.984704 720.240251 
C 1444.628385 783.480887 1448.947211 849.702053 1439.666934 914.698621 
C 1471.791248 938.468348 1500.921021 966.038887 1526.420298 996.808326 
C 1551.919576 1027.577765 1573.601435 1061.320545 1590.992523 1097.300006 
C 1648.691573 1055.258686 1690.067286 994.485596 1708.031506 925.391893 
C 1725.995726 856.298191 1719.460498 783.068354 1689.545385 718.247532 
C 1659.630271 653.426711 1608.147002 600.940606 1543.915279 569.780717 
C 1479.683555 538.620829 1406.593402 530.674273 1337.16604 547.30239 
" clip-path="url(#p00743dfc73)" style="fill: #008000; opacity: 0.4"/>
   </g>
   <g id="patch_4">
    <path d="M 1337.16604 547.30239 
C 1274.376469 562.34073 1217.855332 596.695533 1175.594961 645.508881 
C 1133.334591 694.322229 1107.425452 755.179504 1101.53121 819.475226 
C 1161.312635 814.199799 1221.558152 819.833624 1279.324966 836.101507 
C 1337.09178 852.369389 1391.423749 879.002067 1439.666934 914.698621 
C 1448.947211 849.702053 1444.628385 783.480887 1426.984704 720.240251 
C 1409.341024 656.999616 1378.754032 598.107078 1337.16604 547.30239 
" clip-path="url(#p00743dfc73)" style="fill: #b25900; opacity: 0.4"/>
   </g>
   <g id="patch_5">
    <path d="M 661.157762 1207.30981 
C 644.341013 1284.421502 646.197074 1364.447463 666.570755 1440.696589 
C 686.944437 1516.945715 725.251634 1587.231974 778.289417 1645.678613 
C 831.3272 1704.125252 897.574998 1749.05663 971.493721 1776.715959 
C 1045.412444 1804.375287 1124.882872 1813.969586 1203.260349 1804.696658 
C 1281.637826 1795.423729 1356.675301 1767.549426 1422.098765 1723.404365 
C 1487.52223 1679.259304 1541.456019 1620.109107 1579.390637 1550.89942 
C 1617.325256 1481.689733 1638.173135 1404.40477 1640.191147 1325.506458 
C 1642.209159 1246.608145 1625.33945 1168.358466 1590.992523 1097.300006 
C 1554.874902 1123.616426 1513.472426 1141.783491 1469.651227 1150.543567 
C 1425.830028 1159.303643 1380.62518 1158.449813 1337.16604 1148.041184 
C 1297.116523 1196.966442 1247.683397 1237.391255 1191.781694 1266.931806 
C 1135.87999 1296.472357 1074.630566 1314.536342 1011.64525 1320.058542 
C 948.659935 1325.580742 885.201616 1318.450435 825.01238 1299.088089 
C 764.823143 1279.725743 709.109814 1248.519582 661.157762 1207.30981 
" clip-path="url(#p00743dfc73)" style="fill: #0000ff; opacity: 0.4"/>
   </g>
   <g id="patch_6">
    <path d="M 661.157762 1207.30981 
C 709.109814 1248.519582 764.823143 1279.725743 825.01238 1299.088089 
C 885.201616 1318.450435 948.659935 1325.580742 1011.64525 1320.058542 
C 1074.630566 1314.536342 1135.87999 1296.472357 1191.781694 1266.931806 
C 1247.683397 1237.391255 1297.116523 1196.966442 1337.16604 1148.041184 
C 1264.972339 1130.750518 1201.377619 1087.99874 1158.114364 1027.673054 
C 1114.851109 967.347369 1094.754175 893.400657 1101.53121 819.475226 
C 996.396318 828.75288 896.929835 871.397853 817.724235 941.153809 
C 738.518634 1010.909766 683.646423 1104.190071 661.157762 1207.30981 
" clip-path="url(#p00743dfc73)" style="fill: #b200b2; opacity: 0.4"/>
   </g>
   <g id="patch_7">
    <path d="M 1439.666934 914.698621 
C 1433.578811 957.338192 1421.709475 998.950166 1404.386762 1038.3852 
C 1387.064049 1077.820234 1364.448929 1114.711883 1337.16604 1148.041184 
C 1380.62518 1158.449813 1425.830028 1159.303643 1469.651227 1150.543567 
C 1513.472426 1141.783491 1554.874902 1123.616426 1590.992523 1097.300006 
C 1573.601435 1061.320545 1551.919576 1027.577765 1526.420298 996.808326 
C 1500.921021 966.038887 1471.791248 938.468348 1439.666934 914.698621 
" clip-path="url(#p00743dfc73)" style="fill: #0059b2; opacity: 0.4"/>
   </g>
   <g id="patch_8">
    <path d="M 1101.53121 819.475226 
C 1094.754175 893.400657 1114.851109 967.347369 1158.114364 1027.673054 
C 1201.377619 1087.99874 1264.972339 1130.750518 1337.16604 1148.041184 
C 1364.448929 1114.711883 1387.064049 1077.820234 1404.386762 1038.3852 
C 1421.709475 998.950166 1433.578811 957.338192 1439.666934 914.698621 
C 1391.423749 879.002067 1337.09178 852.369389 1279.324966 836.101507 
C 1221.558152 819.833624 1161.312635 814.199799 1101.53121 819.475226 
" clip-path="url(#p00743dfc73)" style="fill: #663366; opacity: 0.4"/>
   </g>
   <g id="text_1">
    <!-- 16 -->
    <g transform="translate(789.225279 633.177142) scale(0.05 -0.05)">
     <defs>
      <path id="DejaVuSans-31" d="M 794 531 
L 1825 531 
L 1825 4091 
L 703 3866 
L 703 4441 
L 1819 4666 
L 2450 4666 
L 2450 531 
L 3481 531 
L 3481 0 
L 794 0 
L 794 531 
z
" transform="scale(0.015625)"/>
      <path id="DejaVuSans-36" d="M 2113 2584 
Q 1688 2584 1439 2293 
Q 1191 2003 1191 1497 
Q 1191 994 1439 701 
Q 1688 409 2113 409 
Q 2538 409 2786 701 
Q 3034 994 3034 1497 
Q 3034 2003 2786 2293 
Q 2538 2584 2113 2584 
z
M 3366 4563 
L 3366 3988 
Q 3128 4100 2886 4159 
Q 2644 4219 2406 4219 
Q 1781 4219 1451 3797 
Q 1122 3375 1075 2522 
Q 1259 2794 1537 2939 
Q 1816 3084 2150 3084 
Q 2853 3084 3261 2657 
Q 3669 2231 3669 1497 
Q 3669 778 3244 343 
Q 2819 -91 2113 -91 
Q 1303 -91 875 529 
Q 447 1150 447 2328 
Q 447 3434 972 4092 
Q 1497 4750 2381 4750 
Q 2619 4750 2861 4703 
Q 3103 4656 3366 4563 
z
" transform="scale(0.015625)"/>
     </defs>
     <use xlink:href="#DejaVuSans-31"/>
     <use xlink:href="#DejaVuSans-36" x="63.623047"/>
    </g>
   </g>
   <g id="text_2">
    <!-- 5 -->
    <g transform="translate(1614.963414 753.222592) scale(0.05 -0.05)">
     <defs>
      <path id="DejaVuSans-35" d="M 691 4666 
L 3169 4666 
L 3169 4134 
L 1269 4134 
L 1269 2991 
Q 1406 3038 1543 3061 
Q 1681 3084 1819 3084 
Q 2600 3084 3056 2656 
Q 3513 2228 3513 1497 
Q 3513 744 3044 326 
Q 2575 -91 1722 -91 
Q 1428 -91 1123 -41 
Q 819 9 494 109 
L 494 744 
Q 775 591 1075 516 
Q 1375 441 1709 441 
Q 2250 441 2565 725 
Q 2881 1009 2881 1497 
Q 2881 1984 2565 2268 
Q 2250 2553 1709 2553 
Q 1456 2553 1204 2497 
Q 953 2441 691 2322 
L 691 4666 
z
" transform="scale(0.015625)"/>
     </defs>
     <use xlink:href="#DejaVuSans-35"/>
    </g>
   </g>
   <g id="text_3">
    <!-- tRF-37-8HM2OSRNLNKSEKL -->
    <g transform="translate(1242.25669 707.210226) scale(0.05 -0.05)">
     <defs>
      <path id="DejaVuSans-74" d="M 1172 4494 
L 1172 3500 
L 2356 3500 
L 2356 3053 
L 1172 3053 
L 1172 1153 
Q 1172 725 1289 603 
Q 1406 481 1766 481 
L 2356 481 
L 2356 0 
L 1766 0 
Q 1100 0 847 248 
Q 594 497 594 1153 
L 594 3053 
L 172 3053 
L 172 3500 
L 594 3500 
L 594 4494 
L 1172 4494 
z
" transform="scale(0.015625)"/>
      <path id="DejaVuSans-52" d="M 2841 2188 
Q 3044 2119 3236 1894 
Q 3428 1669 3622 1275 
L 4263 0 
L 3584 0 
L 2988 1197 
Q 2756 1666 2539 1819 
Q 2322 1972 1947 1972 
L 1259 1972 
L 1259 0 
L 628 0 
L 628 4666 
L 2053 4666 
Q 2853 4666 3247 4331 
Q 3641 3997 3641 3322 
Q 3641 2881 3436 2590 
Q 3231 2300 2841 2188 
z
M 1259 4147 
L 1259 2491 
L 2053 2491 
Q 2509 2491 2742 2702 
Q 2975 2913 2975 3322 
Q 2975 3731 2742 3939 
Q 2509 4147 2053 4147 
L 1259 4147 
z
" transform="scale(0.015625)"/>
      <path id="DejaVuSans-46" d="M 628 4666 
L 3309 4666 
L 3309 4134 
L 1259 4134 
L 1259 2759 
L 3109 2759 
L 3109 2228 
L 1259 2228 
L 1259 0 
L 628 0 
L 628 4666 
z
" transform="scale(0.015625)"/>
      <path id="DejaVuSans-2d" d="M 313 2009 
L 1997 2009 
L 1997 1497 
L 313 1497 
L 313 2009 
z
" transform="scale(0.015625)"/>
      <path id="DejaVuSans-33" d="M 2597 2516 
Q 3050 2419 3304 2112 
Q 3559 1806 3559 1356 
Q 3559 666 3084 287 
Q 2609 -91 1734 -91 
Q 1441 -91 1130 -33 
Q 819 25 488 141 
L 488 750 
Q 750 597 1062 519 
Q 1375 441 1716 441 
Q 2309 441 2620 675 
Q 2931 909 2931 1356 
Q 2931 1769 2642 2001 
Q 2353 2234 1838 2234 
L 1294 2234 
L 1294 2753 
L 1863 2753 
Q 2328 2753 2575 2939 
Q 2822 3125 2822 3475 
Q 2822 3834 2567 4026 
Q 2313 4219 1838 4219 
Q 1578 4219 1281 4162 
Q 984 4106 628 3988 
L 628 4550 
Q 988 4650 1302 4700 
Q 1616 4750 1894 4750 
Q 2613 4750 3031 4423 
Q 3450 4097 3450 3541 
Q 3450 3153 3228 2886 
Q 3006 2619 2597 2516 
z
" transform="scale(0.015625)"/>
      <path id="DejaVuSans-37" d="M 525 4666 
L 3525 4666 
L 3525 4397 
L 1831 0 
L 1172 0 
L 2766 4134 
L 525 4134 
L 525 4666 
z
" transform="scale(0.015625)"/>
      <path id="DejaVuSans-38" d="M 2034 2216 
Q 1584 2216 1326 1975 
Q 1069 1734 1069 1313 
Q 1069 891 1326 650 
Q 1584 409 2034 409 
Q 2484 409 2743 651 
Q 3003 894 3003 1313 
Q 3003 1734 2745 1975 
Q 2488 2216 2034 2216 
z
M 1403 2484 
Q 997 2584 770 2862 
Q 544 3141 544 3541 
Q 544 4100 942 4425 
Q 1341 4750 2034 4750 
Q 2731 4750 3128 4425 
Q 3525 4100 3525 3541 
Q 3525 3141 3298 2862 
Q 3072 2584 2669 2484 
Q 3125 2378 3379 2068 
Q 3634 1759 3634 1313 
Q 3634 634 3220 271 
Q 2806 -91 2034 -91 
Q 1263 -91 848 271 
Q 434 634 434 1313 
Q 434 1759 690 2068 
Q 947 2378 1403 2484 
z
M 1172 3481 
Q 1172 3119 1398 2916 
Q 1625 2713 2034 2713 
Q 2441 2713 2670 2916 
Q 2900 3119 2900 3481 
Q 2900 3844 2670 4047 
Q 2441 4250 2034 4250 
Q 1625 4250 1398 4047 
Q 1172 3844 1172 3481 
z
" transform="scale(0.015625)"/>
      <path id="DejaVuSans-48" d="M 628 4666 
L 1259 4666 
L 1259 2753 
L 3553 2753 
L 3553 4666 
L 4184 4666 
L 4184 0 
L 3553 0 
L 3553 2222 
L 1259 2222 
L 1259 0 
L 628 0 
L 628 4666 
z
" transform="scale(0.015625)"/>
      <path id="DejaVuSans-4d" d="M 628 4666 
L 1569 4666 
L 2759 1491 
L 3956 4666 
L 4897 4666 
L 4897 0 
L 4281 0 
L 4281 4097 
L 3078 897 
L 2444 897 
L 1241 4097 
L 1241 0 
L 628 0 
L 628 4666 
z
" transform="scale(0.015625)"/>
      <path id="DejaVuSans-32" d="M 1228 531 
L 3431 531 
L 3431 0 
L 469 0 
L 469 531 
Q 828 903 1448 1529 
Q 2069 2156 2228 2338 
Q 2531 2678 2651 2914 
Q 2772 3150 2772 3378 
Q 2772 3750 2511 3984 
Q 2250 4219 1831 4219 
Q 1534 4219 1204 4116 
Q 875 4013 500 3803 
L 500 4441 
Q 881 4594 1212 4672 
Q 1544 4750 1819 4750 
Q 2544 4750 2975 4387 
Q 3406 4025 3406 3419 
Q 3406 3131 3298 2873 
Q 3191 2616 2906 2266 
Q 2828 2175 2409 1742 
Q 1991 1309 1228 531 
z
" transform="scale(0.015625)"/>
      <path id="DejaVuSans-4f" d="M 2522 4238 
Q 1834 4238 1429 3725 
Q 1025 3213 1025 2328 
Q 1025 1447 1429 934 
Q 1834 422 2522 422 
Q 3209 422 3611 934 
Q 4013 1447 4013 2328 
Q 4013 3213 3611 3725 
Q 3209 4238 2522 4238 
z
M 2522 4750 
Q 3503 4750 4090 4092 
Q 4678 3434 4678 2328 
Q 4678 1225 4090 567 
Q 3503 -91 2522 -91 
Q 1538 -91 948 565 
Q 359 1222 359 2328 
Q 359 3434 948 4092 
Q 1538 4750 2522 4750 
z
" transform="scale(0.015625)"/>
      <path id="DejaVuSans-53" d="M 3425 4513 
L 3425 3897 
Q 3066 4069 2747 4153 
Q 2428 4238 2131 4238 
Q 1616 4238 1336 4038 
Q 1056 3838 1056 3469 
Q 1056 3159 1242 3001 
Q 1428 2844 1947 2747 
L 2328 2669 
Q 3034 2534 3370 2195 
Q 3706 1856 3706 1288 
Q 3706 609 3251 259 
Q 2797 -91 1919 -91 
Q 1588 -91 1214 -16 
Q 841 59 441 206 
L 441 856 
Q 825 641 1194 531 
Q 1563 422 1919 422 
Q 2459 422 2753 634 
Q 3047 847 3047 1241 
Q 3047 1584 2836 1778 
Q 2625 1972 2144 2069 
L 1759 2144 
Q 1053 2284 737 2584 
Q 422 2884 422 3419 
Q 422 4038 858 4394 
Q 1294 4750 2059 4750 
Q 2388 4750 2728 4690 
Q 3069 4631 3425 4513 
z
" transform="scale(0.015625)"/>
      <path id="DejaVuSans-4e" d="M 628 4666 
L 1478 4666 
L 3547 763 
L 3547 4666 
L 4159 4666 
L 4159 0 
L 3309 0 
L 1241 3903 
L 1241 0 
L 628 0 
L 628 4666 
z
" transform="scale(0.015625)"/>
      <path id="DejaVuSans-4c" d="M 628 4666 
L 1259 4666 
L 1259 531 
L 3531 531 
L 3531 0 
L 628 0 
L 628 4666 
z
" transform="scale(0.015625)"/>
      <path id="DejaVuSans-4b" d="M 628 4666 
L 1259 4666 
L 1259 2694 
L 3353 4666 
L 4166 4666 
L 1850 2491 
L 4331 0 
L 3500 0 
L 1259 2247 
L 1259 0 
L 628 0 
L 628 4666 
z
" transform="scale(0.015625)"/>
      <path id="DejaVuSans-45" d="M 628 4666 
L 3578 4666 
L 3578 4134 
L 1259 4134 
L 1259 2753 
L 3481 2753 
L 3481 2222 
L 1259 2222 
L 1259 531 
L 3634 531 
L 3634 0 
L 628 0 
L 628 4666 
z
" transform="scale(0.015625)"/>
     </defs>
     <use xlink:href="#DejaVuSans-74"/>
     <use xlink:href="#DejaVuSans-52" x="39.208984"/>
     <use xlink:href="#DejaVuSans-46" x="108.691406"/>
     <use xlink:href="#DejaVuSans-2d" x="166.210938"/>
     <use xlink:href="#DejaVuSans-33" x="202.294922"/>
     <use xlink:href="#DejaVuSans-37" x="265.917969"/>
     <use xlink:href="#DejaVuSans-2d" x="329.541016"/>
     <use xlink:href="#DejaVuSans-38" x="365.625"/>
     <use xlink:href="#DejaVuSans-48" x="429.248047"/>
     <use xlink:href="#DejaVuSans-4d" x="504.443359"/>
     <use xlink:href="#DejaVuSans-32" x="590.722656"/>
     <use xlink:href="#DejaVuSans-4f" x="654.345703"/>
     <use xlink:href="#DejaVuSans-53" x="733.056641"/>
     <use xlink:href="#DejaVuSans-52" x="796.533203"/>
     <use xlink:href="#DejaVuSans-4e" x="866.015625"/>
     <use xlink:href="#DejaVuSans-4c" x="940.820312"/>
     <use xlink:href="#DejaVuSans-4e" x="996.533203"/>
     <use xlink:href="#DejaVuSans-4b" x="1071.337891"/>
     <use xlink:href="#DejaVuSans-53" x="1136.914062"/>
     <use xlink:href="#DejaVuSans-45" x="1200.390625"/>
     <use xlink:href="#DejaVuSans-4b" x="1263.574219"/>
     <use xlink:href="#DejaVuSans-4c" x="1329.150391"/>
    </g>
    <!-- tRF-32-FSXMSL73VL4YK -->
    <g transform="translate(1246.867237 712.809132) scale(0.05 -0.05)">
     <defs>
      <path id="DejaVuSans-58" d="M 403 4666 
L 1081 4666 
L 2241 2931 
L 3406 4666 
L 4084 4666 
L 2584 2425 
L 4184 0 
L 3506 0 
L 2194 1984 
L 872 0 
L 191 0 
L 1856 2491 
L 403 4666 
z
" transform="scale(0.015625)"/>
      <path id="DejaVuSans-56" d="M 1831 0 
L 50 4666 
L 709 4666 
L 2188 738 
L 3669 4666 
L 4325 4666 
L 2547 0 
L 1831 0 
z
" transform="scale(0.015625)"/>
      <path id="DejaVuSans-34" d="M 2419 4116 
L 825 1625 
L 2419 1625 
L 2419 4116 
z
M 2253 4666 
L 3047 4666 
L 3047 1625 
L 3713 1625 
L 3713 1100 
L 3047 1100 
L 3047 0 
L 2419 0 
L 2419 1100 
L 313 1100 
L 313 1709 
L 2253 4666 
z
" transform="scale(0.015625)"/>
      <path id="DejaVuSans-59" d="M -13 4666 
L 666 4666 
L 1959 2747 
L 3244 4666 
L 3922 4666 
L 2272 2222 
L 2272 0 
L 1638 0 
L 1638 2222 
L -13 4666 
z
" transform="scale(0.015625)"/>
     </defs>
     <use xlink:href="#DejaVuSans-74"/>
     <use xlink:href="#DejaVuSans-52" x="39.208984"/>
     <use xlink:href="#DejaVuSans-46" x="108.691406"/>
     <use xlink:href="#DejaVuSans-2d" x="166.210938"/>
     <use xlink:href="#DejaVuSans-33" x="202.294922"/>
     <use xlink:href="#DejaVuSans-32" x="265.917969"/>
     <use xlink:href="#DejaVuSans-2d" x="329.541016"/>
     <use xlink:href="#DejaVuSans-46" x="365.625"/>
     <use xlink:href="#DejaVuSans-53" x="421.394531"/>
     <use xlink:href="#DejaVuSans-58" x="484.871094"/>
     <use xlink:href="#DejaVuSans-4d" x="553.376953"/>
     <use xlink:href="#DejaVuSans-53" x="639.65625"/>
     <use xlink:href="#DejaVuSans-4c" x="703.132812"/>
     <use xlink:href="#DejaVuSans-37" x="758.845703"/>
     <use xlink:href="#DejaVuSans-33" x="822.46875"/>
     <use xlink:href="#DejaVuSans-56" x="886.091797"/>
     <use xlink:href="#DejaVuSans-4c" x="954.5"/>
     <use xlink:href="#DejaVuSans-34" x="1010.212891"/>
     <use xlink:href="#DejaVuSans-59" x="1073.835938"/>
     <use xlink:href="#DejaVuSans-4b" x="1134.919922"/>
    </g>
    <!-- tRF-32-6SXMSL73VL4YK -->
    <g transform="translate(1246.670753 718.408038) scale(0.05 -0.05)">
     <use xlink:href="#DejaVuSans-74"/>
     <use xlink:href="#DejaVuSans-52" x="39.208984"/>
     <use xlink:href="#DejaVuSans-46" x="108.691406"/>
     <use xlink:href="#DejaVuSans-2d" x="166.210938"/>
     <use xlink:href="#DejaVuSans-33" x="202.294922"/>
     <use xlink:href="#DejaVuSans-32" x="265.917969"/>
     <use xlink:href="#DejaVuSans-2d" x="329.541016"/>
     <use xlink:href="#DejaVuSans-36" x="365.625"/>
     <use xlink:href="#DejaVuSans-53" x="429.248047"/>
     <use xlink:href="#DejaVuSans-58" x="492.724609"/>
     <use xlink:href="#DejaVuSans-4d" x="561.230469"/>
     <use xlink:href="#DejaVuSans-53" x="647.509766"/>
     <use xlink:href="#DejaVuSans-4c" x="710.986328"/>
     <use xlink:href="#DejaVuSans-37" x="766.699219"/>
     <use xlink:href="#DejaVuSans-33" x="830.322266"/>
     <use xlink:href="#DejaVuSans-56" x="893.945312"/>
     <use xlink:href="#DejaVuSans-4c" x="962.353516"/>
     <use xlink:href="#DejaVuSans-34" x="1018.066406"/>
     <use xlink:href="#DejaVuSans-59" x="1081.689453"/>
     <use xlink:href="#DejaVuSans-4b" x="1142.773438"/>
    </g>
    <!-- tRF-28-86V8WPMN1E0J -->
    <g transform="translate(1247.752393 724.006945) scale(0.05 -0.05)">
     <defs>
      <path id="DejaVuSans-57" d="M 213 4666 
L 850 4666 
L 1831 722 
L 2809 4666 
L 3519 4666 
L 4500 722 
L 5478 4666 
L 6119 4666 
L 4947 0 
L 4153 0 
L 3169 4050 
L 2175 0 
L 1381 0 
L 213 4666 
z
" transform="scale(0.015625)"/>
      <path id="DejaVuSans-50" d="M 1259 4147 
L 1259 2394 
L 2053 2394 
Q 2494 2394 2734 2622 
Q 2975 2850 2975 3272 
Q 2975 3691 2734 3919 
Q 2494 4147 2053 4147 
L 1259 4147 
z
M 628 4666 
L 2053 4666 
Q 2838 4666 3239 4311 
Q 3641 3956 3641 3272 
Q 3641 2581 3239 2228 
Q 2838 1875 2053 1875 
L 1259 1875 
L 1259 0 
L 628 0 
L 628 4666 
z
" transform="scale(0.015625)"/>
      <path id="DejaVuSans-30" d="M 2034 4250 
Q 1547 4250 1301 3770 
Q 1056 3291 1056 2328 
Q 1056 1369 1301 889 
Q 1547 409 2034 409 
Q 2525 409 2770 889 
Q 3016 1369 3016 2328 
Q 3016 3291 2770 3770 
Q 2525 4250 2034 4250 
z
M 2034 4750 
Q 2819 4750 3233 4129 
Q 3647 3509 3647 2328 
Q 3647 1150 3233 529 
Q 2819 -91 2034 -91 
Q 1250 -91 836 529 
Q 422 1150 422 2328 
Q 422 3509 836 4129 
Q 1250 4750 2034 4750 
z
" transform="scale(0.015625)"/>
      <path id="DejaVuSans-4a" d="M 628 4666 
L 1259 4666 
L 1259 325 
Q 1259 -519 939 -900 
Q 619 -1281 -91 -1281 
L -331 -1281 
L -331 -750 
L -134 -750 
Q 284 -750 456 -515 
Q 628 -281 628 325 
L 628 4666 
z
" transform="scale(0.015625)"/>
     </defs>
     <use xlink:href="#DejaVuSans-74"/>
     <use xlink:href="#DejaVuSans-52" x="39.208984"/>
     <use xlink:href="#DejaVuSans-46" x="108.691406"/>
     <use xlink:href="#DejaVuSans-2d" x="166.210938"/>
     <use xlink:href="#DejaVuSans-32" x="202.294922"/>
     <use xlink:href="#DejaVuSans-38" x="265.917969"/>
     <use xlink:href="#DejaVuSans-2d" x="329.541016"/>
     <use xlink:href="#DejaVuSans-38" x="365.625"/>
     <use xlink:href="#DejaVuSans-36" x="429.248047"/>
     <use xlink:href="#DejaVuSans-56" x="492.871094"/>
     <use xlink:href="#DejaVuSans-38" x="561.279297"/>
     <use xlink:href="#DejaVuSans-57" x="624.902344"/>
     <use xlink:href="#DejaVuSans-50" x="723.779297"/>
     <use xlink:href="#DejaVuSans-4d" x="784.082031"/>
     <use xlink:href="#DejaVuSans-4e" x="870.361328"/>
     <use xlink:href="#DejaVuSans-31" x="945.166016"/>
     <use xlink:href="#DejaVuSans-45" x="1008.789062"/>
     <use xlink:href="#DejaVuSans-30" x="1071.972656"/>
     <use xlink:href="#DejaVuSans-4a" x="1135.595703"/>
    </g>
    <!--  -->
    <g transform="translate(1276.879737 729.605851) scale(0.05 -0.05)"/>
   </g>
   <g id="text_4">
    <!-- 21 -->
    <g transform="translate(1188.07577 1592.455834) scale(0.05 -0.05)">
     <use xlink:href="#DejaVuSans-32"/>
     <use xlink:href="#DejaVuSans-31" x="63.623047"/>
    </g>
   </g>
   <g id="text_5">
    <!-- tRF-28-PER8YP9LOND5 -->
    <g transform="translate(974.2141 1084.175782) scale(0.05 -0.05)">
     <defs>
      <path id="DejaVuSans-39" d="M 703 97 
L 703 672 
Q 941 559 1184 500 
Q 1428 441 1663 441 
Q 2288 441 2617 861 
Q 2947 1281 2994 2138 
Q 2813 1869 2534 1725 
Q 2256 1581 1919 1581 
Q 1219 1581 811 2004 
Q 403 2428 403 3163 
Q 403 3881 828 4315 
Q 1253 4750 1959 4750 
Q 2769 4750 3195 4129 
Q 3622 3509 3622 2328 
Q 3622 1225 3098 567 
Q 2575 -91 1691 -91 
Q 1453 -91 1209 -44 
Q 966 3 703 97 
z
M 1959 2075 
Q 2384 2075 2632 2365 
Q 2881 2656 2881 3163 
Q 2881 3666 2632 3958 
Q 2384 4250 1959 4250 
Q 1534 4250 1286 3958 
Q 1038 3666 1038 3163 
Q 1038 2656 1286 2365 
Q 1534 2075 1959 2075 
z
" transform="scale(0.015625)"/>
      <path id="DejaVuSans-44" d="M 1259 4147 
L 1259 519 
L 2022 519 
Q 2988 519 3436 956 
Q 3884 1394 3884 2338 
Q 3884 3275 3436 3711 
Q 2988 4147 2022 4147 
L 1259 4147 
z
M 628 4666 
L 1925 4666 
Q 3281 4666 3915 4102 
Q 4550 3538 4550 2338 
Q 4550 1131 3912 565 
Q 3275 0 1925 0 
L 628 0 
L 628 4666 
z
" transform="scale(0.015625)"/>
     </defs>
     <use xlink:href="#DejaVuSans-74"/>
     <use xlink:href="#DejaVuSans-52" x="39.208984"/>
     <use xlink:href="#DejaVuSans-46" x="108.691406"/>
     <use xlink:href="#DejaVuSans-2d" x="166.210938"/>
     <use xlink:href="#DejaVuSans-32" x="202.294922"/>
     <use xlink:href="#DejaVuSans-38" x="265.917969"/>
     <use xlink:href="#DejaVuSans-2d" x="329.541016"/>
     <use xlink:href="#DejaVuSans-50" x="365.625"/>
     <use xlink:href="#DejaVuSans-45" x="425.927734"/>
     <use xlink:href="#DejaVuSans-52" x="489.111328"/>
     <use xlink:href="#DejaVuSans-38" x="558.59375"/>
     <use xlink:href="#DejaVuSans-59" x="622.216797"/>
     <use xlink:href="#DejaVuSans-50" x="683.300781"/>
     <use xlink:href="#DejaVuSans-39" x="743.603516"/>
     <use xlink:href="#DejaVuSans-4c" x="807.226562"/>
     <use xlink:href="#DejaVuSans-4f" x="859.314453"/>
     <use xlink:href="#DejaVuSans-4e" x="938.025391"/>
     <use xlink:href="#DejaVuSans-44" x="1012.830078"/>
     <use xlink:href="#DejaVuSans-35" x="1089.832031"/>
    </g>
    <!-- tRF-30-PW5SVP9N15WV -->
    <g transform="translate(972.711366 1089.774688) scale(0.05 -0.05)">
     <use xlink:href="#DejaVuSans-74"/>
     <use xlink:href="#DejaVuSans-52" x="39.208984"/>
     <use xlink:href="#DejaVuSans-46" x="108.691406"/>
     <use xlink:href="#DejaVuSans-2d" x="166.210938"/>
     <use xlink:href="#DejaVuSans-33" x="202.294922"/>
     <use xlink:href="#DejaVuSans-30" x="265.917969"/>
     <use xlink:href="#DejaVuSans-2d" x="329.541016"/>
     <use xlink:href="#DejaVuSans-50" x="365.625"/>
     <use xlink:href="#DejaVuSans-57" x="425.927734"/>
     <use xlink:href="#DejaVuSans-35" x="524.804688"/>
     <use xlink:href="#DejaVuSans-53" x="588.427734"/>
     <use xlink:href="#DejaVuSans-56" x="651.904297"/>
     <use xlink:href="#DejaVuSans-50" x="720.3125"/>
     <use xlink:href="#DejaVuSans-39" x="780.615234"/>
     <use xlink:href="#DejaVuSans-4e" x="844.238281"/>
     <use xlink:href="#DejaVuSans-31" x="919.042969"/>
     <use xlink:href="#DejaVuSans-35" x="982.666016"/>
     <use xlink:href="#DejaVuSans-57" x="1046.289062"/>
     <use xlink:href="#DejaVuSans-56" x="1145.166016"/>
    </g>
    <!-- tRF-33-389MV47P596V03 -->
    <g transform="translate(970.919179 1095.373594) scale(0.05 -0.05)">
     <use xlink:href="#DejaVuSans-74"/>
     <use xlink:href="#DejaVuSans-52" x="39.208984"/>
     <use xlink:href="#DejaVuSans-46" x="108.691406"/>
     <use xlink:href="#DejaVuSans-2d" x="166.210938"/>
     <use xlink:href="#DejaVuSans-33" x="202.294922"/>
     <use xlink:href="#DejaVuSans-33" x="265.917969"/>
     <use xlink:href="#DejaVuSans-2d" x="329.541016"/>
     <use xlink:href="#DejaVuSans-33" x="365.625"/>
     <use xlink:href="#DejaVuSans-38" x="429.248047"/>
     <use xlink:href="#DejaVuSans-39" x="492.871094"/>
     <use xlink:href="#DejaVuSans-4d" x="556.494141"/>
     <use xlink:href="#DejaVuSans-56" x="642.773438"/>
     <use xlink:href="#DejaVuSans-34" x="711.181641"/>
     <use xlink:href="#DejaVuSans-37" x="774.804688"/>
     <use xlink:href="#DejaVuSans-50" x="838.427734"/>
     <use xlink:href="#DejaVuSans-35" x="898.730469"/>
     <use xlink:href="#DejaVuSans-39" x="962.353516"/>
     <use xlink:href="#DejaVuSans-36" x="1025.976562"/>
     <use xlink:href="#DejaVuSans-56" x="1089.599609"/>
     <use xlink:href="#DejaVuSans-30" x="1158.007812"/>
     <use xlink:href="#DejaVuSans-33" x="1221.630859"/>
    </g>
    <!-- tRF-30-R9J89O9NF5W8 -->
    <g transform="translate(974.143788 1100.9725) scale(0.05 -0.05)">
     <use xlink:href="#DejaVuSans-74"/>
     <use xlink:href="#DejaVuSans-52" x="39.208984"/>
     <use xlink:href="#DejaVuSans-46" x="108.691406"/>
     <use xlink:href="#DejaVuSans-2d" x="166.210938"/>
     <use xlink:href="#DejaVuSans-33" x="202.294922"/>
     <use xlink:href="#DejaVuSans-30" x="265.917969"/>
     <use xlink:href="#DejaVuSans-2d" x="329.541016"/>
     <use xlink:href="#DejaVuSans-52" x="365.625"/>
     <use xlink:href="#DejaVuSans-39" x="435.107422"/>
     <use xlink:href="#DejaVuSans-4a" x="498.730469"/>
     <use xlink:href="#DejaVuSans-38" x="528.222656"/>
     <use xlink:href="#DejaVuSans-39" x="591.845703"/>
     <use xlink:href="#DejaVuSans-4f" x="655.46875"/>
     <use xlink:href="#DejaVuSans-39" x="734.179688"/>
     <use xlink:href="#DejaVuSans-4e" x="797.802734"/>
     <use xlink:href="#DejaVuSans-46" x="872.607422"/>
     <use xlink:href="#DejaVuSans-35" x="930.126953"/>
     <use xlink:href="#DejaVuSans-57" x="993.75"/>
     <use xlink:href="#DejaVuSans-38" x="1092.626953"/>
    </g>
    <!-- tRF-30-RRJ89O9NF5W8 -->
    <g transform="translate(973.997304 1106.571407) scale(0.05 -0.05)">
     <use xlink:href="#DejaVuSans-74"/>
     <use xlink:href="#DejaVuSans-52" x="39.208984"/>
     <use xlink:href="#DejaVuSans-46" x="108.691406"/>
     <use xlink:href="#DejaVuSans-2d" x="166.210938"/>
     <use xlink:href="#DejaVuSans-33" x="202.294922"/>
     <use xlink:href="#DejaVuSans-30" x="265.917969"/>
     <use xlink:href="#DejaVuSans-2d" x="329.541016"/>
     <use xlink:href="#DejaVuSans-52" x="365.625"/>
     <use xlink:href="#DejaVuSans-52" x="435.107422"/>
     <use xlink:href="#DejaVuSans-4a" x="504.589844"/>
     <use xlink:href="#DejaVuSans-38" x="534.082031"/>
     <use xlink:href="#DejaVuSans-39" x="597.705078"/>
     <use xlink:href="#DejaVuSans-4f" x="661.328125"/>
     <use xlink:href="#DejaVuSans-39" x="740.039062"/>
     <use xlink:href="#DejaVuSans-4e" x="803.662109"/>
     <use xlink:href="#DejaVuSans-46" x="878.466797"/>
     <use xlink:href="#DejaVuSans-35" x="935.986328"/>
     <use xlink:href="#DejaVuSans-57" x="999.609375"/>
     <use xlink:href="#DejaVuSans-38" x="1098.486328"/>
    </g>
    <!-- tRF-28-86J8WPMN1E0J -->
    <g transform="translate(974.895741 1112.170313) scale(0.05 -0.05)">
     <use xlink:href="#DejaVuSans-74"/>
     <use xlink:href="#DejaVuSans-52" x="39.208984"/>
     <use xlink:href="#DejaVuSans-46" x="108.691406"/>
     <use xlink:href="#DejaVuSans-2d" x="166.210938"/>
     <use xlink:href="#DejaVuSans-32" x="202.294922"/>
     <use xlink:href="#DejaVuSans-38" x="265.917969"/>
     <use xlink:href="#DejaVuSans-2d" x="329.541016"/>
     <use xlink:href="#DejaVuSans-38" x="365.625"/>
     <use xlink:href="#DejaVuSans-36" x="429.248047"/>
     <use xlink:href="#DejaVuSans-4a" x="492.871094"/>
     <use xlink:href="#DejaVuSans-38" x="522.363281"/>
     <use xlink:href="#DejaVuSans-57" x="585.986328"/>
     <use xlink:href="#DejaVuSans-50" x="684.863281"/>
     <use xlink:href="#DejaVuSans-4d" x="745.166016"/>
     <use xlink:href="#DejaVuSans-4e" x="831.445312"/>
     <use xlink:href="#DejaVuSans-31" x="906.25"/>
     <use xlink:href="#DejaVuSans-45" x="969.873047"/>
     <use xlink:href="#DejaVuSans-30" x="1033.056641"/>
     <use xlink:href="#DejaVuSans-4a" x="1096.679688"/>
    </g>
    <!-- tRF-32-XSXMSL73VL4YK -->
    <g transform="translate(972.844569 1117.769219) scale(0.05 -0.05)">
     <use xlink:href="#DejaVuSans-74"/>
     <use xlink:href="#DejaVuSans-52" x="39.208984"/>
     <use xlink:href="#DejaVuSans-46" x="108.691406"/>
     <use xlink:href="#DejaVuSans-2d" x="166.210938"/>
     <use xlink:href="#DejaVuSans-33" x="202.294922"/>
     <use xlink:href="#DejaVuSans-32" x="265.917969"/>
     <use xlink:href="#DejaVuSans-2d" x="329.541016"/>
     <use xlink:href="#DejaVuSans-58" x="360.625"/>
     <use xlink:href="#DejaVuSans-53" x="429.130859"/>
     <use xlink:href="#DejaVuSans-58" x="492.607422"/>
     <use xlink:href="#DejaVuSans-4d" x="561.113281"/>
     <use xlink:href="#DejaVuSans-53" x="647.392578"/>
     <use xlink:href="#DejaVuSans-4c" x="710.869141"/>
     <use xlink:href="#DejaVuSans-37" x="766.582031"/>
     <use xlink:href="#DejaVuSans-33" x="830.205078"/>
     <use xlink:href="#DejaVuSans-56" x="893.828125"/>
     <use xlink:href="#DejaVuSans-4c" x="962.236328"/>
     <use xlink:href="#DejaVuSans-34" x="1017.949219"/>
     <use xlink:href="#DejaVuSans-59" x="1081.572266"/>
     <use xlink:href="#DejaVuSans-4b" x="1142.65625"/>
    </g>
    <!-- tRF-34-389MV47P596VJ5 -->
    <g transform="translate(971.772304 1123.368125) scale(0.05 -0.05)">
     <use xlink:href="#DejaVuSans-74"/>
     <use xlink:href="#DejaVuSans-52" x="39.208984"/>
     <use xlink:href="#DejaVuSans-46" x="108.691406"/>
     <use xlink:href="#DejaVuSans-2d" x="166.210938"/>
     <use xlink:href="#DejaVuSans-33" x="202.294922"/>
     <use xlink:href="#DejaVuSans-34" x="265.917969"/>
     <use xlink:href="#DejaVuSans-2d" x="329.541016"/>
     <use xlink:href="#DejaVuSans-33" x="365.625"/>
     <use xlink:href="#DejaVuSans-38" x="429.248047"/>
     <use xlink:href="#DejaVuSans-39" x="492.871094"/>
     <use xlink:href="#DejaVuSans-4d" x="556.494141"/>
     <use xlink:href="#DejaVuSans-56" x="642.773438"/>
     <use xlink:href="#DejaVuSans-34" x="711.181641"/>
     <use xlink:href="#DejaVuSans-37" x="774.804688"/>
     <use xlink:href="#DejaVuSans-50" x="838.427734"/>
     <use xlink:href="#DejaVuSans-35" x="898.730469"/>
     <use xlink:href="#DejaVuSans-39" x="962.353516"/>
     <use xlink:href="#DejaVuSans-36" x="1025.976562"/>
     <use xlink:href="#DejaVuSans-56" x="1089.599609"/>
     <use xlink:href="#DejaVuSans-4a" x="1158.007812"/>
     <use xlink:href="#DejaVuSans-35" x="1187.5"/>
    </g>
    <!-- tRF-28-PIR8YP9LOND5 -->
    <g transform="translate(975.056288 1128.967032) scale(0.05 -0.05)">
     <defs>
      <path id="DejaVuSans-49" d="M 628 4666 
L 1259 4666 
L 1259 0 
L 628 0 
L 628 4666 
z
" transform="scale(0.015625)"/>
     </defs>
     <use xlink:href="#DejaVuSans-74"/>
     <use xlink:href="#DejaVuSans-52" x="39.208984"/>
     <use xlink:href="#DejaVuSans-46" x="108.691406"/>
     <use xlink:href="#DejaVuSans-2d" x="166.210938"/>
     <use xlink:href="#DejaVuSans-32" x="202.294922"/>
     <use xlink:href="#DejaVuSans-38" x="265.917969"/>
     <use xlink:href="#DejaVuSans-2d" x="329.541016"/>
     <use xlink:href="#DejaVuSans-50" x="365.625"/>
     <use xlink:href="#DejaVuSans-49" x="425.927734"/>
     <use xlink:href="#DejaVuSans-52" x="455.419922"/>
     <use xlink:href="#DejaVuSans-38" x="524.902344"/>
     <use xlink:href="#DejaVuSans-59" x="588.525391"/>
     <use xlink:href="#DejaVuSans-50" x="649.609375"/>
     <use xlink:href="#DejaVuSans-39" x="709.912109"/>
     <use xlink:href="#DejaVuSans-4c" x="773.535156"/>
     <use xlink:href="#DejaVuSans-4f" x="825.623047"/>
     <use xlink:href="#DejaVuSans-4e" x="904.333984"/>
     <use xlink:href="#DejaVuSans-44" x="979.138672"/>
     <use xlink:href="#DejaVuSans-35" x="1056.140625"/>
    </g>
    <!-- tRF-31-XSXMSL73VL4YD -->
    <g transform="translate(972.559022 1134.565938) scale(0.05 -0.05)">
     <use xlink:href="#DejaVuSans-74"/>
     <use xlink:href="#DejaVuSans-52" x="39.208984"/>
     <use xlink:href="#DejaVuSans-46" x="108.691406"/>
     <use xlink:href="#DejaVuSans-2d" x="166.210938"/>
     <use xlink:href="#DejaVuSans-33" x="202.294922"/>
     <use xlink:href="#DejaVuSans-31" x="265.917969"/>
     <use xlink:href="#DejaVuSans-2d" x="329.541016"/>
     <use xlink:href="#DejaVuSans-58" x="360.625"/>
     <use xlink:href="#DejaVuSans-53" x="429.130859"/>
     <use xlink:href="#DejaVuSans-58" x="492.607422"/>
     <use xlink:href="#DejaVuSans-4d" x="561.113281"/>
     <use xlink:href="#DejaVuSans-53" x="647.392578"/>
     <use xlink:href="#DejaVuSans-4c" x="710.869141"/>
     <use xlink:href="#DejaVuSans-37" x="766.582031"/>
     <use xlink:href="#DejaVuSans-33" x="830.205078"/>
     <use xlink:href="#DejaVuSans-56" x="893.828125"/>
     <use xlink:href="#DejaVuSans-4c" x="962.236328"/>
     <use xlink:href="#DejaVuSans-34" x="1017.949219"/>
     <use xlink:href="#DejaVuSans-59" x="1081.572266"/>
     <use xlink:href="#DejaVuSans-44" x="1142.65625"/>
    </g>
    <!--  -->
    <g transform="translate(1003.050429 1140.164844) scale(0.05 -0.05)"/>
   </g>
   <g id="text_6">
    <!-- tRF-29-86J8WPMN1EJ3 -->
    <g transform="translate(1437.235128 1074.794485) scale(0.05 -0.05)">
     <use xlink:href="#DejaVuSans-74"/>
     <use xlink:href="#DejaVuSans-52" x="39.208984"/>
     <use xlink:href="#DejaVuSans-46" x="108.691406"/>
     <use xlink:href="#DejaVuSans-2d" x="166.210938"/>
     <use xlink:href="#DejaVuSans-32" x="202.294922"/>
     <use xlink:href="#DejaVuSans-39" x="265.917969"/>
     <use xlink:href="#DejaVuSans-2d" x="329.541016"/>
     <use xlink:href="#DejaVuSans-38" x="365.625"/>
     <use xlink:href="#DejaVuSans-36" x="429.248047"/>
     <use xlink:href="#DejaVuSans-4a" x="492.871094"/>
     <use xlink:href="#DejaVuSans-38" x="522.363281"/>
     <use xlink:href="#DejaVuSans-57" x="585.986328"/>
     <use xlink:href="#DejaVuSans-50" x="684.863281"/>
     <use xlink:href="#DejaVuSans-4d" x="745.166016"/>
     <use xlink:href="#DejaVuSans-4e" x="831.445312"/>
     <use xlink:href="#DejaVuSans-31" x="906.25"/>
     <use xlink:href="#DejaVuSans-45" x="969.873047"/>
     <use xlink:href="#DejaVuSans-4a" x="1033.056641"/>
     <use xlink:href="#DejaVuSans-33" x="1062.548828"/>
    </g>
    <!-- tRF-32-MIF91SS2P4FI3 -->
    <g transform="translate(1437.107003 1080.393391) scale(0.05 -0.05)">
     <use xlink:href="#DejaVuSans-74"/>
     <use xlink:href="#DejaVuSans-52" x="39.208984"/>
     <use xlink:href="#DejaVuSans-46" x="108.691406"/>
     <use xlink:href="#DejaVuSans-2d" x="166.210938"/>
     <use xlink:href="#DejaVuSans-33" x="202.294922"/>
     <use xlink:href="#DejaVuSans-32" x="265.917969"/>
     <use xlink:href="#DejaVuSans-2d" x="329.541016"/>
     <use xlink:href="#DejaVuSans-4d" x="365.625"/>
     <use xlink:href="#DejaVuSans-49" x="451.904297"/>
     <use xlink:href="#DejaVuSans-46" x="481.396484"/>
     <use xlink:href="#DejaVuSans-39" x="538.916016"/>
     <use xlink:href="#DejaVuSans-31" x="602.539062"/>
     <use xlink:href="#DejaVuSans-53" x="666.162109"/>
     <use xlink:href="#DejaVuSans-53" x="729.638672"/>
     <use xlink:href="#DejaVuSans-32" x="793.115234"/>
     <use xlink:href="#DejaVuSans-50" x="856.738281"/>
     <use xlink:href="#DejaVuSans-34" x="917.041016"/>
     <use xlink:href="#DejaVuSans-46" x="980.664062"/>
     <use xlink:href="#DejaVuSans-49" x="1038.183594"/>
     <use xlink:href="#DejaVuSans-33" x="1067.675781"/>
    </g>
    <!--  -->
    <g transform="translate(1465.389816 1085.992298) scale(0.05 -0.05)"/>
   </g>
   <g id="text_7">
    <!-- tRF-29-86V8WPMN1EJ3 -->
    <g transform="translate(1211.28097 971.3027) scale(0.05 -0.05)">
     <use xlink:href="#DejaVuSans-74"/>
     <use xlink:href="#DejaVuSans-52" x="39.208984"/>
     <use xlink:href="#DejaVuSans-46" x="108.691406"/>
     <use xlink:href="#DejaVuSans-2d" x="166.210938"/>
     <use xlink:href="#DejaVuSans-32" x="202.294922"/>
     <use xlink:href="#DejaVuSans-39" x="265.917969"/>
     <use xlink:href="#DejaVuSans-2d" x="329.541016"/>
     <use xlink:href="#DejaVuSans-38" x="365.625"/>
     <use xlink:href="#DejaVuSans-36" x="429.248047"/>
     <use xlink:href="#DejaVuSans-56" x="492.871094"/>
     <use xlink:href="#DejaVuSans-38" x="561.279297"/>
     <use xlink:href="#DejaVuSans-57" x="624.902344"/>
     <use xlink:href="#DejaVuSans-50" x="723.779297"/>
     <use xlink:href="#DejaVuSans-4d" x="784.082031"/>
     <use xlink:href="#DejaVuSans-4e" x="870.361328"/>
     <use xlink:href="#DejaVuSans-31" x="945.166016"/>
     <use xlink:href="#DejaVuSans-45" x="1008.789062"/>
     <use xlink:href="#DejaVuSans-4a" x="1071.972656"/>
     <use xlink:href="#DejaVuSans-33" x="1101.464844"/>
    </g>
    <!-- tRF-31-FSXMSL73VL4YD -->
    <g transform="translate(1210.110266 976.901607) scale(0.05 -0.05)">
     <use xlink:href="#DejaVuSans-74"/>
     <use xlink:href="#DejaVuSans-52" x="39.208984"/>
     <use xlink:href="#DejaVuSans-46" x="108.691406"/>
     <use xlink:href="#DejaVuSans-2d" x="166.210938"/>
     <use xlink:href="#DejaVuSans-33" x="202.294922"/>
     <use xlink:href="#DejaVuSans-31" x="265.917969"/>
     <use xlink:href="#DejaVuSans-2d" x="329.541016"/>
     <use xlink:href="#DejaVuSans-46" x="365.625"/>
     <use xlink:href="#DejaVuSans-53" x="421.394531"/>
     <use xlink:href="#DejaVuSans-58" x="484.871094"/>
     <use xlink:href="#DejaVuSans-4d" x="553.376953"/>
     <use xlink:href="#DejaVuSans-53" x="639.65625"/>
     <use xlink:href="#DejaVuSans-4c" x="703.132812"/>
     <use xlink:href="#DejaVuSans-37" x="758.845703"/>
     <use xlink:href="#DejaVuSans-33" x="822.46875"/>
     <use xlink:href="#DejaVuSans-56" x="886.091797"/>
     <use xlink:href="#DejaVuSans-4c" x="954.5"/>
     <use xlink:href="#DejaVuSans-34" x="1010.212891"/>
     <use xlink:href="#DejaVuSans-59" x="1073.835938"/>
     <use xlink:href="#DejaVuSans-44" x="1134.919922"/>
    </g>
    <!-- tRF-31-6SXMSL73VL4YD -->
    <g transform="translate(1209.913782 982.500513) scale(0.05 -0.05)">
     <use xlink:href="#DejaVuSans-74"/>
     <use xlink:href="#DejaVuSans-52" x="39.208984"/>
     <use xlink:href="#DejaVuSans-46" x="108.691406"/>
     <use xlink:href="#DejaVuSans-2d" x="166.210938"/>
     <use xlink:href="#DejaVuSans-33" x="202.294922"/>
     <use xlink:href="#DejaVuSans-31" x="265.917969"/>
     <use xlink:href="#DejaVuSans-2d" x="329.541016"/>
     <use xlink:href="#DejaVuSans-36" x="365.625"/>
     <use xlink:href="#DejaVuSans-53" x="429.248047"/>
     <use xlink:href="#DejaVuSans-58" x="492.724609"/>
     <use xlink:href="#DejaVuSans-4d" x="561.230469"/>
     <use xlink:href="#DejaVuSans-53" x="647.509766"/>
     <use xlink:href="#DejaVuSans-4c" x="710.986328"/>
     <use xlink:href="#DejaVuSans-37" x="766.699219"/>
     <use xlink:href="#DejaVuSans-33" x="830.322266"/>
     <use xlink:href="#DejaVuSans-56" x="893.945312"/>
     <use xlink:href="#DejaVuSans-4c" x="962.353516"/>
     <use xlink:href="#DejaVuSans-34" x="1018.066406"/>
     <use xlink:href="#DejaVuSans-59" x="1081.689453"/>
     <use xlink:href="#DejaVuSans-44" x="1142.773438"/>
    </g>
    <!--  -->
    <g transform="translate(1240.408313 988.099419) scale(0.05 -0.05)"/>
   </g>
   <g id="text_8">
    <!-- 4h -->
    <g transform="translate(717.889595 373.472935) scale(0.12 -0.12)">
     <defs>
      <path id="DejaVuSans-68" d="M 3513 2113 
L 3513 0 
L 2938 0 
L 2938 2094 
Q 2938 2591 2744 2837 
Q 2550 3084 2163 3084 
Q 1697 3084 1428 2787 
Q 1159 2491 1159 1978 
L 1159 0 
L 581 0 
L 581 4863 
L 1159 4863 
L 1159 2956 
Q 1366 3272 1645 3428 
Q 1925 3584 2291 3584 
Q 2894 3584 3203 3211 
Q 3513 2838 3513 2113 
z
" transform="scale(0.015625)"/>
     </defs>
     <use xlink:href="#DejaVuSans-34"/>
     <use xlink:href="#DejaVuSans-68" x="63.623047"/>
    </g>
   </g>
   <g id="text_9">
    <!-- 24h -->
    <g transform="translate(1563.537741 538.807606) scale(0.12 -0.12)">
     <use xlink:href="#DejaVuSans-32"/>
     <use xlink:href="#DejaVuSans-34" x="63.623047"/>
     <use xlink:href="#DejaVuSans-68" x="127.246094"/>
    </g>
   </g>
   <g id="text_10">
    <!-- 168h -->
    <g transform="translate(1129.813529 1866.773645) scale(0.12 -0.12)">
     <use xlink:href="#DejaVuSans-31"/>
     <use xlink:href="#DejaVuSans-36" x="63.623047"/>
     <use xlink:href="#DejaVuSans-38" x="127.246094"/>
     <use xlink:href="#DejaVuSans-68" x="190.869141"/>
    </g>
   </g>
   <g id="text_11">
    <!-- Venn Diagram of Significant tRFs in the S ganglion -->
    <g transform="translate(955.472813 253.2) scale(0.12 -0.12)">
     <defs>
      <path id="DejaVuSans-65" d="M 3597 1894 
L 3597 1613 
L 953 1613 
Q 991 1019 1311 708 
Q 1631 397 2203 397 
Q 2534 397 2845 478 
Q 3156 559 3463 722 
L 3463 178 
Q 3153 47 2828 -22 
Q 2503 -91 2169 -91 
Q 1331 -91 842 396 
Q 353 884 353 1716 
Q 353 2575 817 3079 
Q 1281 3584 2069 3584 
Q 2775 3584 3186 3129 
Q 3597 2675 3597 1894 
z
M 3022 2063 
Q 3016 2534 2758 2815 
Q 2500 3097 2075 3097 
Q 1594 3097 1305 2825 
Q 1016 2553 972 2059 
L 3022 2063 
z
" transform="scale(0.015625)"/>
      <path id="DejaVuSans-6e" d="M 3513 2113 
L 3513 0 
L 2938 0 
L 2938 2094 
Q 2938 2591 2744 2837 
Q 2550 3084 2163 3084 
Q 1697 3084 1428 2787 
Q 1159 2491 1159 1978 
L 1159 0 
L 581 0 
L 581 3500 
L 1159 3500 
L 1159 2956 
Q 1366 3272 1645 3428 
Q 1925 3584 2291 3584 
Q 2894 3584 3203 3211 
Q 3513 2838 3513 2113 
z
" transform="scale(0.015625)"/>
      <path id="DejaVuSans-20" transform="scale(0.015625)"/>
      <path id="DejaVuSans-69" d="M 603 3500 
L 1178 3500 
L 1178 0 
L 603 0 
L 603 3500 
z
M 603 4863 
L 1178 4863 
L 1178 4134 
L 603 4134 
L 603 4863 
z
" transform="scale(0.015625)"/>
      <path id="DejaVuSans-61" d="M 2194 1759 
Q 1497 1759 1228 1600 
Q 959 1441 959 1056 
Q 959 750 1161 570 
Q 1363 391 1709 391 
Q 2188 391 2477 730 
Q 2766 1069 2766 1631 
L 2766 1759 
L 2194 1759 
z
M 3341 1997 
L 3341 0 
L 2766 0 
L 2766 531 
Q 2569 213 2275 61 
Q 1981 -91 1556 -91 
Q 1019 -91 701 211 
Q 384 513 384 1019 
Q 384 1609 779 1909 
Q 1175 2209 1959 2209 
L 2766 2209 
L 2766 2266 
Q 2766 2663 2505 2880 
Q 2244 3097 1772 3097 
Q 1472 3097 1187 3025 
Q 903 2953 641 2809 
L 641 3341 
Q 956 3463 1253 3523 
Q 1550 3584 1831 3584 
Q 2591 3584 2966 3190 
Q 3341 2797 3341 1997 
z
" transform="scale(0.015625)"/>
      <path id="DejaVuSans-67" d="M 2906 1791 
Q 2906 2416 2648 2759 
Q 2391 3103 1925 3103 
Q 1463 3103 1205 2759 
Q 947 2416 947 1791 
Q 947 1169 1205 825 
Q 1463 481 1925 481 
Q 2391 481 2648 825 
Q 2906 1169 2906 1791 
z
M 3481 434 
Q 3481 -459 3084 -895 
Q 2688 -1331 1869 -1331 
Q 1566 -1331 1297 -1286 
Q 1028 -1241 775 -1147 
L 775 -588 
Q 1028 -725 1275 -790 
Q 1522 -856 1778 -856 
Q 2344 -856 2625 -561 
Q 2906 -266 2906 331 
L 2906 616 
Q 2728 306 2450 153 
Q 2172 0 1784 0 
Q 1141 0 747 490 
Q 353 981 353 1791 
Q 353 2603 747 3093 
Q 1141 3584 1784 3584 
Q 2172 3584 2450 3431 
Q 2728 3278 2906 2969 
L 2906 3500 
L 3481 3500 
L 3481 434 
z
" transform="scale(0.015625)"/>
      <path id="DejaVuSans-72" d="M 2631 2963 
Q 2534 3019 2420 3045 
Q 2306 3072 2169 3072 
Q 1681 3072 1420 2755 
Q 1159 2438 1159 1844 
L 1159 0 
L 581 0 
L 581 3500 
L 1159 3500 
L 1159 2956 
Q 1341 3275 1631 3429 
Q 1922 3584 2338 3584 
Q 2397 3584 2469 3576 
Q 2541 3569 2628 3553 
L 2631 2963 
z
" transform="scale(0.015625)"/>
      <path id="DejaVuSans-6d" d="M 3328 2828 
Q 3544 3216 3844 3400 
Q 4144 3584 4550 3584 
Q 5097 3584 5394 3201 
Q 5691 2819 5691 2113 
L 5691 0 
L 5113 0 
L 5113 2094 
Q 5113 2597 4934 2840 
Q 4756 3084 4391 3084 
Q 3944 3084 3684 2787 
Q 3425 2491 3425 1978 
L 3425 0 
L 2847 0 
L 2847 2094 
Q 2847 2600 2669 2842 
Q 2491 3084 2119 3084 
Q 1678 3084 1418 2786 
Q 1159 2488 1159 1978 
L 1159 0 
L 581 0 
L 581 3500 
L 1159 3500 
L 1159 2956 
Q 1356 3278 1631 3431 
Q 1906 3584 2284 3584 
Q 2666 3584 2933 3390 
Q 3200 3197 3328 2828 
z
" transform="scale(0.015625)"/>
      <path id="DejaVuSans-6f" d="M 1959 3097 
Q 1497 3097 1228 2736 
Q 959 2375 959 1747 
Q 959 1119 1226 758 
Q 1494 397 1959 397 
Q 2419 397 2687 759 
Q 2956 1122 2956 1747 
Q 2956 2369 2687 2733 
Q 2419 3097 1959 3097 
z
M 1959 3584 
Q 2709 3584 3137 3096 
Q 3566 2609 3566 1747 
Q 3566 888 3137 398 
Q 2709 -91 1959 -91 
Q 1206 -91 779 398 
Q 353 888 353 1747 
Q 353 2609 779 3096 
Q 1206 3584 1959 3584 
z
" transform="scale(0.015625)"/>
      <path id="DejaVuSans-66" d="M 2375 4863 
L 2375 4384 
L 1825 4384 
Q 1516 4384 1395 4259 
Q 1275 4134 1275 3809 
L 1275 3500 
L 2222 3500 
L 2222 3053 
L 1275 3053 
L 1275 0 
L 697 0 
L 697 3053 
L 147 3053 
L 147 3500 
L 697 3500 
L 697 3744 
Q 697 4328 969 4595 
Q 1241 4863 1831 4863 
L 2375 4863 
z
" transform="scale(0.015625)"/>
      <path id="DejaVuSans-63" d="M 3122 3366 
L 3122 2828 
Q 2878 2963 2633 3030 
Q 2388 3097 2138 3097 
Q 1578 3097 1268 2742 
Q 959 2388 959 1747 
Q 959 1106 1268 751 
Q 1578 397 2138 397 
Q 2388 397 2633 464 
Q 2878 531 3122 666 
L 3122 134 
Q 2881 22 2623 -34 
Q 2366 -91 2075 -91 
Q 1284 -91 818 406 
Q 353 903 353 1747 
Q 353 2603 823 3093 
Q 1294 3584 2113 3584 
Q 2378 3584 2631 3529 
Q 2884 3475 3122 3366 
z
" transform="scale(0.015625)"/>
      <path id="DejaVuSans-73" d="M 2834 3397 
L 2834 2853 
Q 2591 2978 2328 3040 
Q 2066 3103 1784 3103 
Q 1356 3103 1142 2972 
Q 928 2841 928 2578 
Q 928 2378 1081 2264 
Q 1234 2150 1697 2047 
L 1894 2003 
Q 2506 1872 2764 1633 
Q 3022 1394 3022 966 
Q 3022 478 2636 193 
Q 2250 -91 1575 -91 
Q 1294 -91 989 -36 
Q 684 19 347 128 
L 347 722 
Q 666 556 975 473 
Q 1284 391 1588 391 
Q 1994 391 2212 530 
Q 2431 669 2431 922 
Q 2431 1156 2273 1281 
Q 2116 1406 1581 1522 
L 1381 1569 
Q 847 1681 609 1914 
Q 372 2147 372 2553 
Q 372 3047 722 3315 
Q 1072 3584 1716 3584 
Q 2034 3584 2315 3537 
Q 2597 3491 2834 3397 
z
" transform="scale(0.015625)"/>
      <path id="DejaVuSans-6c" d="M 603 4863 
L 1178 4863 
L 1178 0 
L 603 0 
L 603 4863 
z
" transform="scale(0.015625)"/>
     </defs>
     <use xlink:href="#DejaVuSans-56"/>
     <use xlink:href="#DejaVuSans-65" x="60.658203"/>
     <use xlink:href="#DejaVuSans-6e" x="122.181641"/>
     <use xlink:href="#DejaVuSans-6e" x="185.560547"/>
     <use xlink:href="#DejaVuSans-20" x="248.939453"/>
     <use xlink:href="#DejaVuSans-44" x="280.726562"/>
     <use xlink:href="#DejaVuSans-69" x="357.728516"/>
     <use xlink:href="#DejaVuSans-61" x="385.511719"/>
     <use xlink:href="#DejaVuSans-67" x="446.791016"/>
     <use xlink:href="#DejaVuSans-72" x="510.267578"/>
     <use xlink:href="#DejaVuSans-61" x="551.380859"/>
     <use xlink:href="#DejaVuSans-6d" x="612.660156"/>
     <use xlink:href="#DejaVuSans-20" x="710.072266"/>
     <use xlink:href="#DejaVuSans-6f" x="741.859375"/>
     <use xlink:href="#DejaVuSans-66" x="803.041016"/>
     <use xlink:href="#DejaVuSans-20" x="838.246094"/>
     <use xlink:href="#DejaVuSans-53" x="870.033203"/>
     <use xlink:href="#DejaVuSans-69" x="933.509766"/>
     <use xlink:href="#DejaVuSans-67" x="961.292969"/>
     <use xlink:href="#DejaVuSans-6e" x="1024.769531"/>
     <use xlink:href="#DejaVuSans-69" x="1088.148438"/>
     <use xlink:href="#DejaVuSans-66" x="1115.931641"/>
     <use xlink:href="#DejaVuSans-69" x="1151.136719"/>
     <use xlink:href="#DejaVuSans-63" x="1178.919922"/>
     <use xlink:href="#DejaVuSans-61" x="1233.900391"/>
     <use xlink:href="#DejaVuSans-6e" x="1295.179688"/>
     <use xlink:href="#DejaVuSans-74" x="1358.558594"/>
     <use xlink:href="#DejaVuSans-20" x="1397.767578"/>
     <use xlink:href="#DejaVuSans-74" x="1429.554688"/>
     <use xlink:href="#DejaVuSans-52" x="1468.763672"/>
     <use xlink:href="#DejaVuSans-46" x="1538.246094"/>
     <use xlink:href="#DejaVuSans-73" x="1595.765625"/>
     <use xlink:href="#DejaVuSans-20" x="1647.865234"/>
     <use xlink:href="#DejaVuSans-69" x="1679.652344"/>
     <use xlink:href="#DejaVuSans-6e" x="1707.435547"/>
     <use xlink:href="#DejaVuSans-20" x="1770.814453"/>
     <use xlink:href="#DejaVuSans-74" x="1802.601562"/>
     <use xlink:href="#DejaVuSans-68" x="1841.810547"/>
     <use xlink:href="#DejaVuSans-65" x="1905.189453"/>
     <use xlink:href="#DejaVuSans-20" x="1966.712891"/>
     <use xlink:href="#DejaVuSans-53" x="1998.5"/>
     <use xlink:href="#DejaVuSans-20" x="2061.976562"/>
     <use xlink:href="#DejaVuSans-67" x="2093.763672"/>
     <use xlink:href="#DejaVuSans-61" x="2157.240234"/>
     <use xlink:href="#DejaVuSans-6e" x="2218.519531"/>
     <use xlink:href="#DejaVuSans-67" x="2281.898438"/>
     <use xlink:href="#DejaVuSans-6c" x="2345.375"/>
     <use xlink:href="#DejaVuSans-69" x="2373.158203"/>
     <use xlink:href="#DejaVuSans-6f" x="2400.941406"/>
     <use xlink:href="#DejaVuSans-6e" x="2462.123047"/>
    </g>
   </g>
  </g>
 </g>
 <defs>
  <clipPath id="p00743dfc73">
   <rect x="381.757234" y="259.2" width="1450.485532" height="1663.2"/>
  </clipPath>
 </defs>
</svg>
