<?xml version="1.0" encoding="utf-8" standalone="no"?>
<!DOCTYPE svg PUBLIC "-//W3C//DTD SVG 1.1//EN"
  "http://www.w3.org/Graphics/SVG/1.1/DTD/svg11.dtd">
<svg xmlns:xlink="http://www.w3.org/1999/xlink" width="864pt" height="576pt" viewBox="0 0 864 576" xmlns="http://www.w3.org/2000/svg" version="1.1">
 <metadata>
  <rdf:RDF xmlns:dc="http://purl.org/dc/elements/1.1/" xmlns:cc="http://creativecommons.org/ns#" xmlns:rdf="http://www.w3.org/1999/02/22-rdf-syntax-ns#">
   <cc:Work>
    <dc:type rdf:resource="http://purl.org/dc/dcmitype/StillImage"/>
    <dc:date>2024-09-11T11:18:40.643995</dc:date>
    <dc:format>image/svg+xml</dc:format>
    <dc:creator>
     <cc:Agent>
      <dc:title>Matplotlib v3.9.1, https://matplotlib.org/</dc:title>
     </cc:Agent>
    </dc:creator>
   </cc:Work>
  </rdf:RDF>
 </metadata>
 <defs>
  <style type="text/css">*{stroke-linejoin: round; stroke-linecap: butt}</style>
 </defs>
 <g id="figure_1">
  <g id="patch_1">
   <path d="M 0 576 
L 864 576 
L 864 0 
L 0 0 
z
" style="fill: #ffffff"/>
  </g>
  <g id="axes_1">
   <g id="patch_2">
    <path d="M 428.988088 120.068573 
C 419.798737 112.521641 409.187095 106.895797 397.783592 103.525269 
C 386.38009 100.15474 374.415115 99.107623 362.5995 100.446126 
C 350.783886 101.784628 339.356346 105.481708 328.995784 111.317725 
C 318.635222 117.153741 309.550955 125.010788 302.282675 134.422081 
C 295.014395 143.833374 289.708944 154.608775 286.681517 166.108124 
C 283.65409 177.607472 282.96585 189.598444 284.657685 201.368662 
C 286.349521 213.13888 290.387251 224.450547 296.530997 234.631643 
C 302.674742 244.81274 310.800379 253.657574 320.425168 260.64068 
C 328.452022 245.853254 338.913481 232.523503 351.369472 221.212154 
C 363.825463 209.900804 378.098845 200.768721 393.589195 194.200053 
C 392.6527 179.848037 395.415973 165.493042 401.613518 152.514297 
C 407.811064 139.535551 417.237828 128.362474 428.988088 120.068573 
" clip-path="url(#pef54c429d2)" style="fill: #ff0000; opacity: 0.4"/>
   </g>
   <g id="patch_3">
    <path d="M 428.988088 120.068573 
C 438.336511 127.746146 446.019166 137.252722 451.563975 148.004152 
C 457.108784 158.755582 460.399803 170.527046 461.234809 182.595224 
C 478.477948 183.652967 495.40882 187.685958 511.277103 194.515471 
C 527.145386 201.344983 541.713155 210.868615 554.334812 222.66431 
C 561.755025 205.853658 563.460845 187.064509 559.189395 169.192399 
C 554.917945 151.320289 544.900525 135.333005 530.680889 123.694296 
C 516.461253 112.055587 498.809403 105.395697 480.445609 104.74096 
C 462.081816 104.086223 444.00049 109.472094 428.988088 120.068573 
" clip-path="url(#pef54c429d2)" style="fill: #008000; opacity: 0.4"/>
   </g>
   <g id="patch_4">
    <path d="M 428.988088 120.068573 
C 417.237828 128.362474 407.811064 139.535551 401.613518 152.514297 
C 395.415973 165.493042 392.6527 179.848037 393.589195 194.200053 
C 404.226631 189.689258 415.350381 186.424446 426.73834 184.470804 
C 438.1263 182.517162 449.702166 181.88778 461.234809 182.595224 
C 460.399803 170.527046 457.108784 158.755582 451.563975 148.004152 
C 446.019166 137.252722 438.336511 127.746146 428.988088 120.068573 
" clip-path="url(#pef54c429d2)" style="fill: #b25900; opacity: 0.4"/>
   </g>
   <g id="patch_5">
    <path d="M 320.425168 260.64068 
C 307.066663 285.250309 300.873163 313.119754 302.550942 341.070936 
C 304.228721 369.022118 313.711483 395.95059 329.917867 418.785577 
C 346.124251 441.620564 368.413887 459.459777 394.244986 470.268931 
C 420.076086 481.078085 448.427974 484.430073 476.067557 479.942652 
C 503.707141 475.455231 529.542284 463.305715 550.62689 444.879568 
C 571.711497 426.45342 587.21244 402.478723 595.362078 375.689417 
C 603.511717 348.900111 603.98803 320.354734 596.736701 293.308445 
C 589.485373 266.262156 574.792928 241.783646 554.334812 222.66431 
C 549.309556 234.049135 541.817701 244.176903 532.401969 252.313943 
C 522.986236 260.450983 511.879616 266.395945 499.88669 269.718166 
C 487.893764 273.040388 475.311293 273.657662 463.050774 271.525272 
C 450.790254 269.392882 439.155068 264.563593 428.988088 257.387247 
C 413.803329 269.858023 394.902192 276.945885 375.261654 277.534476 
C 355.621117 278.123067 336.329459 272.179774 320.425168 260.64068 
" clip-path="url(#pef54c429d2)" style="fill: #0000ff; opacity: 0.4"/>
   </g>
   <g id="patch_6">
    <path d="M 320.425168 260.64068 
C 336.329459 272.179774 355.621117 278.123067 375.261654 277.534476 
C 394.902192 276.945885 413.803329 269.858023 428.988088 257.387247 
C 418.750244 250.160882 410.257137 240.735321 404.132443 229.802713 
C 398.00775 218.870106 394.40515 206.704772 393.589195 194.200053 
C 378.098845 200.768721 363.825463 209.900804 351.369472 221.212154 
C 338.913481 232.523503 328.452022 245.853254 320.425168 260.64068 
" clip-path="url(#pef54c429d2)" style="fill: #b200b2; opacity: 0.4"/>
   </g>
   <g id="patch_7">
    <path d="M 461.234809 182.595224 
C 462.212743 196.72912 459.795897 210.894041 454.186622 223.904014 
C 448.577348 236.913987 439.936687 248.395498 428.988088 257.387247 
C 439.155068 264.563593 450.790254 269.392882 463.050774 271.525272 
C 475.311293 273.657662 487.893764 273.040388 499.88669 269.718166 
C 511.879616 266.395945 522.986236 260.450983 532.401969 252.313943 
C 541.817701 244.176903 549.309556 234.049135 554.334812 222.66431 
C 541.713155 210.868615 527.145386 201.344983 511.277103 194.515471 
C 495.40882 187.685958 478.477948 183.652967 461.234809 182.595224 
" clip-path="url(#pef54c429d2)" style="fill: #0059b2; opacity: 0.4"/>
   </g>
   <g id="patch_8">
    <path d="M 393.589195 194.200053 
C 394.40515 206.704772 398.00775 218.870106 404.132443 229.802713 
C 410.257137 240.735321 418.750244 250.160882 428.988088 257.387247 
C 439.936687 248.395498 448.577348 236.913987 454.186622 223.904014 
C 459.795897 210.894041 462.212743 196.72912 461.234809 182.595224 
C 449.702166 181.88778 438.1263 182.517162 426.73834 184.470804 
C 415.350381 186.424446 404.226631 189.689258 393.589195 194.200053 
" clip-path="url(#pef54c429d2)" style="fill: #663366; opacity: 0.4"/>
   </g>
   <g id="text_1">
    <!-- 19 -->
    <g transform="translate(326.886007 151.360101) scale(0.045 -0.045)">
     <defs>
      <path id="DejaVuSans-31" d="M 794 531 
L 1825 531 
L 1825 4091 
L 703 3866 
L 703 4441 
L 1819 4666 
L 2450 4666 
L 2450 531 
L 3481 531 
L 3481 0 
L 794 0 
L 794 531 
z
" transform="scale(0.015625)"/>
      <path id="DejaVuSans-39" d="M 703 97 
L 703 672 
Q 941 559 1184 500 
Q 1428 441 1663 441 
Q 2288 441 2617 861 
Q 2947 1281 2994 2138 
Q 2813 1869 2534 1725 
Q 2256 1581 1919 1581 
Q 1219 1581 811 2004 
Q 403 2428 403 3163 
Q 403 3881 828 4315 
Q 1253 4750 1959 4750 
Q 2769 4750 3195 4129 
Q 3622 3509 3622 2328 
Q 3622 1225 3098 567 
Q 2575 -91 1691 -91 
Q 1453 -91 1209 -44 
Q 966 3 703 97 
z
M 1959 2075 
Q 2384 2075 2632 2365 
Q 2881 2656 2881 3163 
Q 2881 3666 2632 3958 
Q 2384 4250 1959 4250 
Q 1534 4250 1286 3958 
Q 1038 3666 1038 3163 
Q 1038 2656 1286 2365 
Q 1534 2075 1959 2075 
z
" transform="scale(0.015625)"/>
     </defs>
     <use xlink:href="#DejaVuSans-31"/>
     <use xlink:href="#DejaVuSans-39" x="63.623047"/>
    </g>
   </g>
   <g id="text_2">
    <!-- 12 -->
    <g transform="translate(508.866208 141.664681) scale(0.045 -0.045)">
     <defs>
      <path id="DejaVuSans-32" d="M 1228 531 
L 3431 531 
L 3431 0 
L 469 0 
L 469 531 
Q 828 903 1448 1529 
Q 2069 2156 2228 2338 
Q 2531 2678 2651 2914 
Q 2772 3150 2772 3378 
Q 2772 3750 2511 3984 
Q 2250 4219 1831 4219 
Q 1534 4219 1204 4116 
Q 875 4013 500 3803 
L 500 4441 
Q 881 4594 1212 4672 
Q 1544 4750 1819 4750 
Q 2544 4750 2975 4387 
Q 3406 4025 3406 3419 
Q 3406 3131 3298 2873 
Q 3191 2616 2906 2266 
Q 2828 2175 2409 1742 
Q 1991 1309 1228 531 
z
" transform="scale(0.015625)"/>
     </defs>
     <use xlink:href="#DejaVuSans-31"/>
     <use xlink:href="#DejaVuSans-32" x="63.623047"/>
    </g>
   </g>
   <g id="text_3">
    <!-- mmu-miR-144-3p -->
    <g transform="translate(404.67774 151.029358) scale(0.045 -0.045)">
     <defs>
      <path id="DejaVuSans-6d" d="M 3328 2828 
Q 3544 3216 3844 3400 
Q 4144 3584 4550 3584 
Q 5097 3584 5394 3201 
Q 5691 2819 5691 2113 
L 5691 0 
L 5113 0 
L 5113 2094 
Q 5113 2597 4934 2840 
Q 4756 3084 4391 3084 
Q 3944 3084 3684 2787 
Q 3425 2491 3425 1978 
L 3425 0 
L 2847 0 
L 2847 2094 
Q 2847 2600 2669 2842 
Q 2491 3084 2119 3084 
Q 1678 3084 1418 2786 
Q 1159 2488 1159 1978 
L 1159 0 
L 581 0 
L 581 3500 
L 1159 3500 
L 1159 2956 
Q 1356 3278 1631 3431 
Q 1906 3584 2284 3584 
Q 2666 3584 2933 3390 
Q 3200 3197 3328 2828 
z
" transform="scale(0.015625)"/>
      <path id="DejaVuSans-75" d="M 544 1381 
L 544 3500 
L 1119 3500 
L 1119 1403 
Q 1119 906 1312 657 
Q 1506 409 1894 409 
Q 2359 409 2629 706 
Q 2900 1003 2900 1516 
L 2900 3500 
L 3475 3500 
L 3475 0 
L 2900 0 
L 2900 538 
Q 2691 219 2414 64 
Q 2138 -91 1772 -91 
Q 1169 -91 856 284 
Q 544 659 544 1381 
z
M 1991 3584 
L 1991 3584 
z
" transform="scale(0.015625)"/>
      <path id="DejaVuSans-2d" d="M 313 2009 
L 1997 2009 
L 1997 1497 
L 313 1497 
L 313 2009 
z
" transform="scale(0.015625)"/>
      <path id="DejaVuSans-69" d="M 603 3500 
L 1178 3500 
L 1178 0 
L 603 0 
L 603 3500 
z
M 603 4863 
L 1178 4863 
L 1178 4134 
L 603 4134 
L 603 4863 
z
" transform="scale(0.015625)"/>
      <path id="DejaVuSans-52" d="M 2841 2188 
Q 3044 2119 3236 1894 
Q 3428 1669 3622 1275 
L 4263 0 
L 3584 0 
L 2988 1197 
Q 2756 1666 2539 1819 
Q 2322 1972 1947 1972 
L 1259 1972 
L 1259 0 
L 628 0 
L 628 4666 
L 2053 4666 
Q 2853 4666 3247 4331 
Q 3641 3997 3641 3322 
Q 3641 2881 3436 2590 
Q 3231 2300 2841 2188 
z
M 1259 4147 
L 1259 2491 
L 2053 2491 
Q 2509 2491 2742 2702 
Q 2975 2913 2975 3322 
Q 2975 3731 2742 3939 
Q 2509 4147 2053 4147 
L 1259 4147 
z
" transform="scale(0.015625)"/>
      <path id="DejaVuSans-34" d="M 2419 4116 
L 825 1625 
L 2419 1625 
L 2419 4116 
z
M 2253 4666 
L 3047 4666 
L 3047 1625 
L 3713 1625 
L 3713 1100 
L 3047 1100 
L 3047 0 
L 2419 0 
L 2419 1100 
L 313 1100 
L 313 1709 
L 2253 4666 
z
" transform="scale(0.015625)"/>
      <path id="DejaVuSans-33" d="M 2597 2516 
Q 3050 2419 3304 2112 
Q 3559 1806 3559 1356 
Q 3559 666 3084 287 
Q 2609 -91 1734 -91 
Q 1441 -91 1130 -33 
Q 819 25 488 141 
L 488 750 
Q 750 597 1062 519 
Q 1375 441 1716 441 
Q 2309 441 2620 675 
Q 2931 909 2931 1356 
Q 2931 1769 2642 2001 
Q 2353 2234 1838 2234 
L 1294 2234 
L 1294 2753 
L 1863 2753 
Q 2328 2753 2575 2939 
Q 2822 3125 2822 3475 
Q 2822 3834 2567 4026 
Q 2313 4219 1838 4219 
Q 1578 4219 1281 4162 
Q 984 4106 628 3988 
L 628 4550 
Q 988 4650 1302 4700 
Q 1616 4750 1894 4750 
Q 2613 4750 3031 4423 
Q 3450 4097 3450 3541 
Q 3450 3153 3228 2886 
Q 3006 2619 2597 2516 
z
" transform="scale(0.015625)"/>
      <path id="DejaVuSans-70" d="M 1159 525 
L 1159 -1331 
L 581 -1331 
L 581 3500 
L 1159 3500 
L 1159 2969 
Q 1341 3281 1617 3432 
Q 1894 3584 2278 3584 
Q 2916 3584 3314 3078 
Q 3713 2572 3713 1747 
Q 3713 922 3314 415 
Q 2916 -91 2278 -91 
Q 1894 -91 1617 61 
Q 1341 213 1159 525 
z
M 3116 1747 
Q 3116 2381 2855 2742 
Q 2594 3103 2138 3103 
Q 1681 3103 1420 2742 
Q 1159 2381 1159 1747 
Q 1159 1113 1420 752 
Q 1681 391 2138 391 
Q 2594 391 2855 752 
Q 3116 1113 3116 1747 
z
" transform="scale(0.015625)"/>
     </defs>
     <use xlink:href="#DejaVuSans-6d"/>
     <use xlink:href="#DejaVuSans-6d" x="97.412109"/>
     <use xlink:href="#DejaVuSans-75" x="194.824219"/>
     <use xlink:href="#DejaVuSans-2d" x="258.203125"/>
     <use xlink:href="#DejaVuSans-6d" x="294.287109"/>
     <use xlink:href="#DejaVuSans-69" x="391.699219"/>
     <use xlink:href="#DejaVuSans-52" x="419.482422"/>
     <use xlink:href="#DejaVuSans-2d" x="484.964844"/>
     <use xlink:href="#DejaVuSans-31" x="521.048828"/>
     <use xlink:href="#DejaVuSans-34" x="584.671875"/>
     <use xlink:href="#DejaVuSans-34" x="648.294922"/>
     <use xlink:href="#DejaVuSans-2d" x="711.917969"/>
     <use xlink:href="#DejaVuSans-33" x="748.001953"/>
     <use xlink:href="#DejaVuSans-70" x="811.625"/>
    </g>
    <!-- mmu-miR-451a -->
    <g transform="translate(406.97063 156.068374) scale(0.045 -0.045)">
     <defs>
      <path id="DejaVuSans-35" d="M 691 4666 
L 3169 4666 
L 3169 4134 
L 1269 4134 
L 1269 2991 
Q 1406 3038 1543 3061 
Q 1681 3084 1819 3084 
Q 2600 3084 3056 2656 
Q 3513 2228 3513 1497 
Q 3513 744 3044 326 
Q 2575 -91 1722 -91 
Q 1428 -91 1123 -41 
Q 819 9 494 109 
L 494 744 
Q 775 591 1075 516 
Q 1375 441 1709 441 
Q 2250 441 2565 725 
Q 2881 1009 2881 1497 
Q 2881 1984 2565 2268 
Q 2250 2553 1709 2553 
Q 1456 2553 1204 2497 
Q 953 2441 691 2322 
L 691 4666 
z
" transform="scale(0.015625)"/>
      <path id="DejaVuSans-61" d="M 2194 1759 
Q 1497 1759 1228 1600 
Q 959 1441 959 1056 
Q 959 750 1161 570 
Q 1363 391 1709 391 
Q 2188 391 2477 730 
Q 2766 1069 2766 1631 
L 2766 1759 
L 2194 1759 
z
M 3341 1997 
L 3341 0 
L 2766 0 
L 2766 531 
Q 2569 213 2275 61 
Q 1981 -91 1556 -91 
Q 1019 -91 701 211 
Q 384 513 384 1019 
Q 384 1609 779 1909 
Q 1175 2209 1959 2209 
L 2766 2209 
L 2766 2266 
Q 2766 2663 2505 2880 
Q 2244 3097 1772 3097 
Q 1472 3097 1187 3025 
Q 903 2953 641 2809 
L 641 3341 
Q 956 3463 1253 3523 
Q 1550 3584 1831 3584 
Q 2591 3584 2966 3190 
Q 3341 2797 3341 1997 
z
" transform="scale(0.015625)"/>
     </defs>
     <use xlink:href="#DejaVuSans-6d"/>
     <use xlink:href="#DejaVuSans-6d" x="97.412109"/>
     <use xlink:href="#DejaVuSans-75" x="194.824219"/>
     <use xlink:href="#DejaVuSans-2d" x="258.203125"/>
     <use xlink:href="#DejaVuSans-6d" x="294.287109"/>
     <use xlink:href="#DejaVuSans-69" x="391.699219"/>
     <use xlink:href="#DejaVuSans-52" x="419.482422"/>
     <use xlink:href="#DejaVuSans-2d" x="484.964844"/>
     <use xlink:href="#DejaVuSans-34" x="521.048828"/>
     <use xlink:href="#DejaVuSans-35" x="584.671875"/>
     <use xlink:href="#DejaVuSans-31" x="648.294922"/>
     <use xlink:href="#DejaVuSans-61" x="711.917969"/>
    </g>
    <!-- mmu-miR-503-5p -->
    <g transform="translate(404.67774 161.107389) scale(0.045 -0.045)">
     <defs>
      <path id="DejaVuSans-30" d="M 2034 4250 
Q 1547 4250 1301 3770 
Q 1056 3291 1056 2328 
Q 1056 1369 1301 889 
Q 1547 409 2034 409 
Q 2525 409 2770 889 
Q 3016 1369 3016 2328 
Q 3016 3291 2770 3770 
Q 2525 4250 2034 4250 
z
M 2034 4750 
Q 2819 4750 3233 4129 
Q 3647 3509 3647 2328 
Q 3647 1150 3233 529 
Q 2819 -91 2034 -91 
Q 1250 -91 836 529 
Q 422 1150 422 2328 
Q 422 3509 836 4129 
Q 1250 4750 2034 4750 
z
" transform="scale(0.015625)"/>
     </defs>
     <use xlink:href="#DejaVuSans-6d"/>
     <use xlink:href="#DejaVuSans-6d" x="97.412109"/>
     <use xlink:href="#DejaVuSans-75" x="194.824219"/>
     <use xlink:href="#DejaVuSans-2d" x="258.203125"/>
     <use xlink:href="#DejaVuSans-6d" x="294.287109"/>
     <use xlink:href="#DejaVuSans-69" x="391.699219"/>
     <use xlink:href="#DejaVuSans-52" x="419.482422"/>
     <use xlink:href="#DejaVuSans-2d" x="484.964844"/>
     <use xlink:href="#DejaVuSans-35" x="521.048828"/>
     <use xlink:href="#DejaVuSans-30" x="584.671875"/>
     <use xlink:href="#DejaVuSans-33" x="648.294922"/>
     <use xlink:href="#DejaVuSans-2d" x="711.917969"/>
     <use xlink:href="#DejaVuSans-35" x="748.001953"/>
     <use xlink:href="#DejaVuSans-70" x="811.625"/>
    </g>
    <!--  -->
    <g transform="translate(424.366997 166.146405) scale(0.045 -0.045)"/>
   </g>
   <g id="text_4">
    <!-- 83 -->
    <g transform="translate(461.216105 396.569308) scale(0.045 -0.045)">
     <defs>
      <path id="DejaVuSans-38" d="M 2034 2216 
Q 1584 2216 1326 1975 
Q 1069 1734 1069 1313 
Q 1069 891 1326 650 
Q 1584 409 2034 409 
Q 2484 409 2743 651 
Q 3003 894 3003 1313 
Q 3003 1734 2745 1975 
Q 2488 2216 2034 2216 
z
M 1403 2484 
Q 997 2584 770 2862 
Q 544 3141 544 3541 
Q 544 4100 942 4425 
Q 1341 4750 2034 4750 
Q 2731 4750 3128 4425 
Q 3525 4100 3525 3541 
Q 3525 3141 3298 2862 
Q 3072 2584 2669 2484 
Q 3125 2378 3379 2068 
Q 3634 1759 3634 1313 
Q 3634 634 3220 271 
Q 2806 -91 2034 -91 
Q 1263 -91 848 271 
Q 434 634 434 1313 
Q 434 1759 690 2068 
Q 947 2378 1403 2484 
z
M 1172 3481 
Q 1172 3119 1398 2916 
Q 1625 2713 2034 2713 
Q 2441 2713 2670 2916 
Q 2900 3119 2900 3481 
Q 2900 3844 2670 4047 
Q 2441 4250 2034 4250 
Q 1625 4250 1398 4047 
Q 1172 3844 1172 3481 
z
" transform="scale(0.015625)"/>
     </defs>
     <use xlink:href="#DejaVuSans-38"/>
     <use xlink:href="#DejaVuSans-33" x="63.623047"/>
    </g>
   </g>
   <g id="text_5">
    <!-- mmu-miR-31-5p -->
    <g transform="translate(360.359068 208.014423) scale(0.045 -0.045)">
     <use xlink:href="#DejaVuSans-6d"/>
     <use xlink:href="#DejaVuSans-6d" x="97.412109"/>
     <use xlink:href="#DejaVuSans-75" x="194.824219"/>
     <use xlink:href="#DejaVuSans-2d" x="258.203125"/>
     <use xlink:href="#DejaVuSans-6d" x="294.287109"/>
     <use xlink:href="#DejaVuSans-69" x="391.699219"/>
     <use xlink:href="#DejaVuSans-52" x="419.482422"/>
     <use xlink:href="#DejaVuSans-2d" x="484.964844"/>
     <use xlink:href="#DejaVuSans-33" x="521.048828"/>
     <use xlink:href="#DejaVuSans-31" x="584.671875"/>
     <use xlink:href="#DejaVuSans-2d" x="648.294922"/>
     <use xlink:href="#DejaVuSans-35" x="684.378906"/>
     <use xlink:href="#DejaVuSans-70" x="748.001953"/>
    </g>
    <!-- mmu-miR-199a-5p -->
    <g transform="translate(357.548677 213.053439) scale(0.045 -0.045)">
     <use xlink:href="#DejaVuSans-6d"/>
     <use xlink:href="#DejaVuSans-6d" x="97.412109"/>
     <use xlink:href="#DejaVuSans-75" x="194.824219"/>
     <use xlink:href="#DejaVuSans-2d" x="258.203125"/>
     <use xlink:href="#DejaVuSans-6d" x="294.287109"/>
     <use xlink:href="#DejaVuSans-69" x="391.699219"/>
     <use xlink:href="#DejaVuSans-52" x="419.482422"/>
     <use xlink:href="#DejaVuSans-2d" x="484.964844"/>
     <use xlink:href="#DejaVuSans-31" x="521.048828"/>
     <use xlink:href="#DejaVuSans-39" x="584.671875"/>
     <use xlink:href="#DejaVuSans-39" x="648.294922"/>
     <use xlink:href="#DejaVuSans-61" x="711.917969"/>
     <use xlink:href="#DejaVuSans-2d" x="773.197266"/>
     <use xlink:href="#DejaVuSans-35" x="809.28125"/>
     <use xlink:href="#DejaVuSans-70" x="872.904297"/>
    </g>
    <!-- mmu-miR-140-3p -->
    <g transform="translate(358.927505 218.092455) scale(0.045 -0.045)">
     <use xlink:href="#DejaVuSans-6d"/>
     <use xlink:href="#DejaVuSans-6d" x="97.412109"/>
     <use xlink:href="#DejaVuSans-75" x="194.824219"/>
     <use xlink:href="#DejaVuSans-2d" x="258.203125"/>
     <use xlink:href="#DejaVuSans-6d" x="294.287109"/>
     <use xlink:href="#DejaVuSans-69" x="391.699219"/>
     <use xlink:href="#DejaVuSans-52" x="419.482422"/>
     <use xlink:href="#DejaVuSans-2d" x="484.964844"/>
     <use xlink:href="#DejaVuSans-31" x="521.048828"/>
     <use xlink:href="#DejaVuSans-34" x="584.671875"/>
     <use xlink:href="#DejaVuSans-30" x="648.294922"/>
     <use xlink:href="#DejaVuSans-2d" x="711.917969"/>
     <use xlink:href="#DejaVuSans-33" x="748.001953"/>
     <use xlink:href="#DejaVuSans-70" x="811.625"/>
    </g>
    <!-- mmu-miR-199a-3p -->
    <g transform="translate(357.548677 223.13147) scale(0.045 -0.045)">
     <use xlink:href="#DejaVuSans-6d"/>
     <use xlink:href="#DejaVuSans-6d" x="97.412109"/>
     <use xlink:href="#DejaVuSans-75" x="194.824219"/>
     <use xlink:href="#DejaVuSans-2d" x="258.203125"/>
     <use xlink:href="#DejaVuSans-6d" x="294.287109"/>
     <use xlink:href="#DejaVuSans-69" x="391.699219"/>
     <use xlink:href="#DejaVuSans-52" x="419.482422"/>
     <use xlink:href="#DejaVuSans-2d" x="484.964844"/>
     <use xlink:href="#DejaVuSans-31" x="521.048828"/>
     <use xlink:href="#DejaVuSans-39" x="584.671875"/>
     <use xlink:href="#DejaVuSans-39" x="648.294922"/>
     <use xlink:href="#DejaVuSans-61" x="711.917969"/>
     <use xlink:href="#DejaVuSans-2d" x="773.197266"/>
     <use xlink:href="#DejaVuSans-33" x="809.28125"/>
     <use xlink:href="#DejaVuSans-70" x="872.904297"/>
    </g>
    <!-- mmu-miR-199b-3p -->
    <g transform="translate(357.499107 228.170486) scale(0.045 -0.045)">
     <defs>
      <path id="DejaVuSans-62" d="M 3116 1747 
Q 3116 2381 2855 2742 
Q 2594 3103 2138 3103 
Q 1681 3103 1420 2742 
Q 1159 2381 1159 1747 
Q 1159 1113 1420 752 
Q 1681 391 2138 391 
Q 2594 391 2855 752 
Q 3116 1113 3116 1747 
z
M 1159 2969 
Q 1341 3281 1617 3432 
Q 1894 3584 2278 3584 
Q 2916 3584 3314 3078 
Q 3713 2572 3713 1747 
Q 3713 922 3314 415 
Q 2916 -91 2278 -91 
Q 1894 -91 1617 61 
Q 1341 213 1159 525 
L 1159 0 
L 581 0 
L 581 4863 
L 1159 4863 
L 1159 2969 
z
" transform="scale(0.015625)"/>
     </defs>
     <use xlink:href="#DejaVuSans-6d"/>
     <use xlink:href="#DejaVuSans-6d" x="97.412109"/>
     <use xlink:href="#DejaVuSans-75" x="194.824219"/>
     <use xlink:href="#DejaVuSans-2d" x="258.203125"/>
     <use xlink:href="#DejaVuSans-6d" x="294.287109"/>
     <use xlink:href="#DejaVuSans-69" x="391.699219"/>
     <use xlink:href="#DejaVuSans-52" x="419.482422"/>
     <use xlink:href="#DejaVuSans-2d" x="484.964844"/>
     <use xlink:href="#DejaVuSans-31" x="521.048828"/>
     <use xlink:href="#DejaVuSans-39" x="584.671875"/>
     <use xlink:href="#DejaVuSans-39" x="648.294922"/>
     <use xlink:href="#DejaVuSans-62" x="711.917969"/>
     <use xlink:href="#DejaVuSans-2d" x="775.394531"/>
     <use xlink:href="#DejaVuSans-33" x="811.478516"/>
     <use xlink:href="#DejaVuSans-70" x="875.101562"/>
    </g>
    <!-- mmu-miR-143-5p -->
    <g transform="translate(358.927505 233.209502) scale(0.045 -0.045)">
     <use xlink:href="#DejaVuSans-6d"/>
     <use xlink:href="#DejaVuSans-6d" x="97.412109"/>
     <use xlink:href="#DejaVuSans-75" x="194.824219"/>
     <use xlink:href="#DejaVuSans-2d" x="258.203125"/>
     <use xlink:href="#DejaVuSans-6d" x="294.287109"/>
     <use xlink:href="#DejaVuSans-69" x="391.699219"/>
     <use xlink:href="#DejaVuSans-52" x="419.482422"/>
     <use xlink:href="#DejaVuSans-2d" x="484.964844"/>
     <use xlink:href="#DejaVuSans-31" x="521.048828"/>
     <use xlink:href="#DejaVuSans-34" x="584.671875"/>
     <use xlink:href="#DejaVuSans-33" x="648.294922"/>
     <use xlink:href="#DejaVuSans-2d" x="711.917969"/>
     <use xlink:href="#DejaVuSans-35" x="748.001953"/>
     <use xlink:href="#DejaVuSans-70" x="811.625"/>
    </g>
    <!-- mmu-miR-214-3p -->
    <g transform="translate(358.927505 238.248517) scale(0.045 -0.045)">
     <use xlink:href="#DejaVuSans-6d"/>
     <use xlink:href="#DejaVuSans-6d" x="97.412109"/>
     <use xlink:href="#DejaVuSans-75" x="194.824219"/>
     <use xlink:href="#DejaVuSans-2d" x="258.203125"/>
     <use xlink:href="#DejaVuSans-6d" x="294.287109"/>
     <use xlink:href="#DejaVuSans-69" x="391.699219"/>
     <use xlink:href="#DejaVuSans-52" x="419.482422"/>
     <use xlink:href="#DejaVuSans-2d" x="484.964844"/>
     <use xlink:href="#DejaVuSans-32" x="521.048828"/>
     <use xlink:href="#DejaVuSans-31" x="584.671875"/>
     <use xlink:href="#DejaVuSans-34" x="648.294922"/>
     <use xlink:href="#DejaVuSans-2d" x="711.917969"/>
     <use xlink:href="#DejaVuSans-33" x="748.001953"/>
     <use xlink:href="#DejaVuSans-70" x="811.625"/>
    </g>
    <!-- mmu-miR-203-3p -->
    <g transform="translate(358.927505 243.287533) scale(0.045 -0.045)">
     <use xlink:href="#DejaVuSans-6d"/>
     <use xlink:href="#DejaVuSans-6d" x="97.412109"/>
     <use xlink:href="#DejaVuSans-75" x="194.824219"/>
     <use xlink:href="#DejaVuSans-2d" x="258.203125"/>
     <use xlink:href="#DejaVuSans-6d" x="294.287109"/>
     <use xlink:href="#DejaVuSans-69" x="391.699219"/>
     <use xlink:href="#DejaVuSans-52" x="419.482422"/>
     <use xlink:href="#DejaVuSans-2d" x="484.964844"/>
     <use xlink:href="#DejaVuSans-32" x="521.048828"/>
     <use xlink:href="#DejaVuSans-30" x="584.671875"/>
     <use xlink:href="#DejaVuSans-33" x="648.294922"/>
     <use xlink:href="#DejaVuSans-2d" x="711.917969"/>
     <use xlink:href="#DejaVuSans-33" x="748.001953"/>
     <use xlink:href="#DejaVuSans-70" x="811.625"/>
    </g>
    <!-- mmu-miR-200a-3p -->
    <g transform="translate(357.548677 248.326548) scale(0.045 -0.045)">
     <use xlink:href="#DejaVuSans-6d"/>
     <use xlink:href="#DejaVuSans-6d" x="97.412109"/>
     <use xlink:href="#DejaVuSans-75" x="194.824219"/>
     <use xlink:href="#DejaVuSans-2d" x="258.203125"/>
     <use xlink:href="#DejaVuSans-6d" x="294.287109"/>
     <use xlink:href="#DejaVuSans-69" x="391.699219"/>
     <use xlink:href="#DejaVuSans-52" x="419.482422"/>
     <use xlink:href="#DejaVuSans-2d" x="484.964844"/>
     <use xlink:href="#DejaVuSans-32" x="521.048828"/>
     <use xlink:href="#DejaVuSans-30" x="584.671875"/>
     <use xlink:href="#DejaVuSans-30" x="648.294922"/>
     <use xlink:href="#DejaVuSans-61" x="711.917969"/>
     <use xlink:href="#DejaVuSans-2d" x="773.197266"/>
     <use xlink:href="#DejaVuSans-33" x="809.28125"/>
     <use xlink:href="#DejaVuSans-70" x="872.904297"/>
    </g>
    <!-- mmu-miR-214-5p -->
    <g transform="translate(358.927505 253.365564) scale(0.045 -0.045)">
     <use xlink:href="#DejaVuSans-6d"/>
     <use xlink:href="#DejaVuSans-6d" x="97.412109"/>
     <use xlink:href="#DejaVuSans-75" x="194.824219"/>
     <use xlink:href="#DejaVuSans-2d" x="258.203125"/>
     <use xlink:href="#DejaVuSans-6d" x="294.287109"/>
     <use xlink:href="#DejaVuSans-69" x="391.699219"/>
     <use xlink:href="#DejaVuSans-52" x="419.482422"/>
     <use xlink:href="#DejaVuSans-2d" x="484.964844"/>
     <use xlink:href="#DejaVuSans-32" x="521.048828"/>
     <use xlink:href="#DejaVuSans-31" x="584.671875"/>
     <use xlink:href="#DejaVuSans-34" x="648.294922"/>
     <use xlink:href="#DejaVuSans-2d" x="711.917969"/>
     <use xlink:href="#DejaVuSans-35" x="748.001953"/>
     <use xlink:href="#DejaVuSans-70" x="811.625"/>
    </g>
    <!-- mmu-miR-148a-5p -->
    <g transform="translate(357.548677 258.40458) scale(0.045 -0.045)">
     <use xlink:href="#DejaVuSans-6d"/>
     <use xlink:href="#DejaVuSans-6d" x="97.412109"/>
     <use xlink:href="#DejaVuSans-75" x="194.824219"/>
     <use xlink:href="#DejaVuSans-2d" x="258.203125"/>
     <use xlink:href="#DejaVuSans-6d" x="294.287109"/>
     <use xlink:href="#DejaVuSans-69" x="391.699219"/>
     <use xlink:href="#DejaVuSans-52" x="419.482422"/>
     <use xlink:href="#DejaVuSans-2d" x="484.964844"/>
     <use xlink:href="#DejaVuSans-31" x="521.048828"/>
     <use xlink:href="#DejaVuSans-34" x="584.671875"/>
     <use xlink:href="#DejaVuSans-38" x="648.294922"/>
     <use xlink:href="#DejaVuSans-61" x="711.917969"/>
     <use xlink:href="#DejaVuSans-2d" x="773.197266"/>
     <use xlink:href="#DejaVuSans-35" x="809.28125"/>
     <use xlink:href="#DejaVuSans-70" x="872.904297"/>
    </g>
    <!-- mmu-miR-133a-3p -->
    <g transform="translate(357.548677 263.443595) scale(0.045 -0.045)">
     <use xlink:href="#DejaVuSans-6d"/>
     <use xlink:href="#DejaVuSans-6d" x="97.412109"/>
     <use xlink:href="#DejaVuSans-75" x="194.824219"/>
     <use xlink:href="#DejaVuSans-2d" x="258.203125"/>
     <use xlink:href="#DejaVuSans-6d" x="294.287109"/>
     <use xlink:href="#DejaVuSans-69" x="391.699219"/>
     <use xlink:href="#DejaVuSans-52" x="419.482422"/>
     <use xlink:href="#DejaVuSans-2d" x="484.964844"/>
     <use xlink:href="#DejaVuSans-31" x="521.048828"/>
     <use xlink:href="#DejaVuSans-33" x="584.671875"/>
     <use xlink:href="#DejaVuSans-33" x="648.294922"/>
     <use xlink:href="#DejaVuSans-61" x="711.917969"/>
     <use xlink:href="#DejaVuSans-2d" x="773.197266"/>
     <use xlink:href="#DejaVuSans-33" x="809.28125"/>
     <use xlink:href="#DejaVuSans-70" x="872.904297"/>
    </g>
    <!-- mmu-miR-376a-3p -->
    <g transform="translate(357.548677 268.482611) scale(0.045 -0.045)">
     <defs>
      <path id="DejaVuSans-37" d="M 525 4666 
L 3525 4666 
L 3525 4397 
L 1831 0 
L 1172 0 
L 2766 4134 
L 525 4134 
L 525 4666 
z
" transform="scale(0.015625)"/>
      <path id="DejaVuSans-36" d="M 2113 2584 
Q 1688 2584 1439 2293 
Q 1191 2003 1191 1497 
Q 1191 994 1439 701 
Q 1688 409 2113 409 
Q 2538 409 2786 701 
Q 3034 994 3034 1497 
Q 3034 2003 2786 2293 
Q 2538 2584 2113 2584 
z
M 3366 4563 
L 3366 3988 
Q 3128 4100 2886 4159 
Q 2644 4219 2406 4219 
Q 1781 4219 1451 3797 
Q 1122 3375 1075 2522 
Q 1259 2794 1537 2939 
Q 1816 3084 2150 3084 
Q 2853 3084 3261 2657 
Q 3669 2231 3669 1497 
Q 3669 778 3244 343 
Q 2819 -91 2113 -91 
Q 1303 -91 875 529 
Q 447 1150 447 2328 
Q 447 3434 972 4092 
Q 1497 4750 2381 4750 
Q 2619 4750 2861 4703 
Q 3103 4656 3366 4563 
z
" transform="scale(0.015625)"/>
     </defs>
     <use xlink:href="#DejaVuSans-6d"/>
     <use xlink:href="#DejaVuSans-6d" x="97.412109"/>
     <use xlink:href="#DejaVuSans-75" x="194.824219"/>
     <use xlink:href="#DejaVuSans-2d" x="258.203125"/>
     <use xlink:href="#DejaVuSans-6d" x="294.287109"/>
     <use xlink:href="#DejaVuSans-69" x="391.699219"/>
     <use xlink:href="#DejaVuSans-52" x="419.482422"/>
     <use xlink:href="#DejaVuSans-2d" x="484.964844"/>
     <use xlink:href="#DejaVuSans-33" x="521.048828"/>
     <use xlink:href="#DejaVuSans-37" x="584.671875"/>
     <use xlink:href="#DejaVuSans-36" x="648.294922"/>
     <use xlink:href="#DejaVuSans-61" x="711.917969"/>
     <use xlink:href="#DejaVuSans-2d" x="773.197266"/>
     <use xlink:href="#DejaVuSans-33" x="809.28125"/>
     <use xlink:href="#DejaVuSans-70" x="872.904297"/>
    </g>
    <!-- mmu-miR-200b-3p -->
    <g transform="translate(357.499107 273.521627) scale(0.045 -0.045)">
     <use xlink:href="#DejaVuSans-6d"/>
     <use xlink:href="#DejaVuSans-6d" x="97.412109"/>
     <use xlink:href="#DejaVuSans-75" x="194.824219"/>
     <use xlink:href="#DejaVuSans-2d" x="258.203125"/>
     <use xlink:href="#DejaVuSans-6d" x="294.287109"/>
     <use xlink:href="#DejaVuSans-69" x="391.699219"/>
     <use xlink:href="#DejaVuSans-52" x="419.482422"/>
     <use xlink:href="#DejaVuSans-2d" x="484.964844"/>
     <use xlink:href="#DejaVuSans-32" x="521.048828"/>
     <use xlink:href="#DejaVuSans-30" x="584.671875"/>
     <use xlink:href="#DejaVuSans-30" x="648.294922"/>
     <use xlink:href="#DejaVuSans-62" x="711.917969"/>
     <use xlink:href="#DejaVuSans-2d" x="775.394531"/>
     <use xlink:href="#DejaVuSans-33" x="811.478516"/>
     <use xlink:href="#DejaVuSans-70" x="875.101562"/>
    </g>
    <!-- mmu-miR-143-3p -->
    <g transform="translate(358.927505 278.560642) scale(0.045 -0.045)">
     <use xlink:href="#DejaVuSans-6d"/>
     <use xlink:href="#DejaVuSans-6d" x="97.412109"/>
     <use xlink:href="#DejaVuSans-75" x="194.824219"/>
     <use xlink:href="#DejaVuSans-2d" x="258.203125"/>
     <use xlink:href="#DejaVuSans-6d" x="294.287109"/>
     <use xlink:href="#DejaVuSans-69" x="391.699219"/>
     <use xlink:href="#DejaVuSans-52" x="419.482422"/>
     <use xlink:href="#DejaVuSans-2d" x="484.964844"/>
     <use xlink:href="#DejaVuSans-31" x="521.048828"/>
     <use xlink:href="#DejaVuSans-34" x="584.671875"/>
     <use xlink:href="#DejaVuSans-33" x="648.294922"/>
     <use xlink:href="#DejaVuSans-2d" x="711.917969"/>
     <use xlink:href="#DejaVuSans-33" x="748.001953"/>
     <use xlink:href="#DejaVuSans-70" x="811.625"/>
    </g>
    <!-- mmu-miR-145a-5p -->
    <g transform="translate(357.548677 283.599658) scale(0.045 -0.045)">
     <use xlink:href="#DejaVuSans-6d"/>
     <use xlink:href="#DejaVuSans-6d" x="97.412109"/>
     <use xlink:href="#DejaVuSans-75" x="194.824219"/>
     <use xlink:href="#DejaVuSans-2d" x="258.203125"/>
     <use xlink:href="#DejaVuSans-6d" x="294.287109"/>
     <use xlink:href="#DejaVuSans-69" x="391.699219"/>
     <use xlink:href="#DejaVuSans-52" x="419.482422"/>
     <use xlink:href="#DejaVuSans-2d" x="484.964844"/>
     <use xlink:href="#DejaVuSans-31" x="521.048828"/>
     <use xlink:href="#DejaVuSans-34" x="584.671875"/>
     <use xlink:href="#DejaVuSans-35" x="648.294922"/>
     <use xlink:href="#DejaVuSans-61" x="711.917969"/>
     <use xlink:href="#DejaVuSans-2d" x="773.197266"/>
     <use xlink:href="#DejaVuSans-35" x="809.28125"/>
     <use xlink:href="#DejaVuSans-70" x="872.904297"/>
    </g>
    <!-- mmu-miR-145a-3p -->
    <g transform="translate(357.548677 288.638673) scale(0.045 -0.045)">
     <use xlink:href="#DejaVuSans-6d"/>
     <use xlink:href="#DejaVuSans-6d" x="97.412109"/>
     <use xlink:href="#DejaVuSans-75" x="194.824219"/>
     <use xlink:href="#DejaVuSans-2d" x="258.203125"/>
     <use xlink:href="#DejaVuSans-6d" x="294.287109"/>
     <use xlink:href="#DejaVuSans-69" x="391.699219"/>
     <use xlink:href="#DejaVuSans-52" x="419.482422"/>
     <use xlink:href="#DejaVuSans-2d" x="484.964844"/>
     <use xlink:href="#DejaVuSans-31" x="521.048828"/>
     <use xlink:href="#DejaVuSans-34" x="584.671875"/>
     <use xlink:href="#DejaVuSans-35" x="648.294922"/>
     <use xlink:href="#DejaVuSans-61" x="711.917969"/>
     <use xlink:href="#DejaVuSans-2d" x="773.197266"/>
     <use xlink:href="#DejaVuSans-33" x="809.28125"/>
     <use xlink:href="#DejaVuSans-70" x="872.904297"/>
    </g>
    <!--  -->
    <g transform="translate(378.616763 293.677689) scale(0.045 -0.045)"/>
   </g>
   <g id="text_6">
    <!-- mmu-miR-150-5p -->
    <g transform="translate(469.748058 217.765952) scale(0.045 -0.045)">
     <use xlink:href="#DejaVuSans-6d"/>
     <use xlink:href="#DejaVuSans-6d" x="97.412109"/>
     <use xlink:href="#DejaVuSans-75" x="194.824219"/>
     <use xlink:href="#DejaVuSans-2d" x="258.203125"/>
     <use xlink:href="#DejaVuSans-6d" x="294.287109"/>
     <use xlink:href="#DejaVuSans-69" x="391.699219"/>
     <use xlink:href="#DejaVuSans-52" x="419.482422"/>
     <use xlink:href="#DejaVuSans-2d" x="484.964844"/>
     <use xlink:href="#DejaVuSans-31" x="521.048828"/>
     <use xlink:href="#DejaVuSans-35" x="584.671875"/>
     <use xlink:href="#DejaVuSans-30" x="648.294922"/>
     <use xlink:href="#DejaVuSans-2d" x="711.917969"/>
     <use xlink:href="#DejaVuSans-35" x="748.001953"/>
     <use xlink:href="#DejaVuSans-70" x="811.625"/>
    </g>
    <!-- mmu-miR-146a-5p -->
    <g transform="translate(468.36923 222.804967) scale(0.045 -0.045)">
     <use xlink:href="#DejaVuSans-6d"/>
     <use xlink:href="#DejaVuSans-6d" x="97.412109"/>
     <use xlink:href="#DejaVuSans-75" x="194.824219"/>
     <use xlink:href="#DejaVuSans-2d" x="258.203125"/>
     <use xlink:href="#DejaVuSans-6d" x="294.287109"/>
     <use xlink:href="#DejaVuSans-69" x="391.699219"/>
     <use xlink:href="#DejaVuSans-52" x="419.482422"/>
     <use xlink:href="#DejaVuSans-2d" x="484.964844"/>
     <use xlink:href="#DejaVuSans-31" x="521.048828"/>
     <use xlink:href="#DejaVuSans-34" x="584.671875"/>
     <use xlink:href="#DejaVuSans-36" x="648.294922"/>
     <use xlink:href="#DejaVuSans-61" x="711.917969"/>
     <use xlink:href="#DejaVuSans-2d" x="773.197266"/>
     <use xlink:href="#DejaVuSans-35" x="809.28125"/>
     <use xlink:href="#DejaVuSans-70" x="872.904297"/>
    </g>
    <!-- mmu-miR-142a-3p -->
    <g transform="translate(468.36923 227.843983) scale(0.045 -0.045)">
     <use xlink:href="#DejaVuSans-6d"/>
     <use xlink:href="#DejaVuSans-6d" x="97.412109"/>
     <use xlink:href="#DejaVuSans-75" x="194.824219"/>
     <use xlink:href="#DejaVuSans-2d" x="258.203125"/>
     <use xlink:href="#DejaVuSans-6d" x="294.287109"/>
     <use xlink:href="#DejaVuSans-69" x="391.699219"/>
     <use xlink:href="#DejaVuSans-52" x="419.482422"/>
     <use xlink:href="#DejaVuSans-2d" x="484.964844"/>
     <use xlink:href="#DejaVuSans-31" x="521.048828"/>
     <use xlink:href="#DejaVuSans-34" x="584.671875"/>
     <use xlink:href="#DejaVuSans-32" x="648.294922"/>
     <use xlink:href="#DejaVuSans-61" x="711.917969"/>
     <use xlink:href="#DejaVuSans-2d" x="773.197266"/>
     <use xlink:href="#DejaVuSans-33" x="809.28125"/>
     <use xlink:href="#DejaVuSans-70" x="872.904297"/>
    </g>
    <!-- mmu-miR-183-5p -->
    <g transform="translate(469.748058 232.882999) scale(0.045 -0.045)">
     <use xlink:href="#DejaVuSans-6d"/>
     <use xlink:href="#DejaVuSans-6d" x="97.412109"/>
     <use xlink:href="#DejaVuSans-75" x="194.824219"/>
     <use xlink:href="#DejaVuSans-2d" x="258.203125"/>
     <use xlink:href="#DejaVuSans-6d" x="294.287109"/>
     <use xlink:href="#DejaVuSans-69" x="391.699219"/>
     <use xlink:href="#DejaVuSans-52" x="419.482422"/>
     <use xlink:href="#DejaVuSans-2d" x="484.964844"/>
     <use xlink:href="#DejaVuSans-31" x="521.048828"/>
     <use xlink:href="#DejaVuSans-38" x="584.671875"/>
     <use xlink:href="#DejaVuSans-33" x="648.294922"/>
     <use xlink:href="#DejaVuSans-2d" x="711.917969"/>
     <use xlink:href="#DejaVuSans-35" x="748.001953"/>
     <use xlink:href="#DejaVuSans-70" x="811.625"/>
    </g>
    <!-- mmu-miR-17-5p -->
    <g transform="translate(471.179621 237.922014) scale(0.045 -0.045)">
     <use xlink:href="#DejaVuSans-6d"/>
     <use xlink:href="#DejaVuSans-6d" x="97.412109"/>
     <use xlink:href="#DejaVuSans-75" x="194.824219"/>
     <use xlink:href="#DejaVuSans-2d" x="258.203125"/>
     <use xlink:href="#DejaVuSans-6d" x="294.287109"/>
     <use xlink:href="#DejaVuSans-69" x="391.699219"/>
     <use xlink:href="#DejaVuSans-52" x="419.482422"/>
     <use xlink:href="#DejaVuSans-2d" x="484.964844"/>
     <use xlink:href="#DejaVuSans-31" x="521.048828"/>
     <use xlink:href="#DejaVuSans-37" x="584.671875"/>
     <use xlink:href="#DejaVuSans-2d" x="648.294922"/>
     <use xlink:href="#DejaVuSans-35" x="684.378906"/>
     <use xlink:href="#DejaVuSans-70" x="748.001953"/>
    </g>
    <!-- mmu-miR-20a-5p -->
    <g transform="translate(469.800793 242.96103) scale(0.045 -0.045)">
     <use xlink:href="#DejaVuSans-6d"/>
     <use xlink:href="#DejaVuSans-6d" x="97.412109"/>
     <use xlink:href="#DejaVuSans-75" x="194.824219"/>
     <use xlink:href="#DejaVuSans-2d" x="258.203125"/>
     <use xlink:href="#DejaVuSans-6d" x="294.287109"/>
     <use xlink:href="#DejaVuSans-69" x="391.699219"/>
     <use xlink:href="#DejaVuSans-52" x="419.482422"/>
     <use xlink:href="#DejaVuSans-2d" x="484.964844"/>
     <use xlink:href="#DejaVuSans-32" x="521.048828"/>
     <use xlink:href="#DejaVuSans-30" x="584.671875"/>
     <use xlink:href="#DejaVuSans-61" x="648.294922"/>
     <use xlink:href="#DejaVuSans-2d" x="709.574219"/>
     <use xlink:href="#DejaVuSans-35" x="745.658203"/>
     <use xlink:href="#DejaVuSans-70" x="809.28125"/>
    </g>
    <!-- mmu-miR-223-3p -->
    <g transform="translate(469.748058 248.000046) scale(0.045 -0.045)">
     <use xlink:href="#DejaVuSans-6d"/>
     <use xlink:href="#DejaVuSans-6d" x="97.412109"/>
     <use xlink:href="#DejaVuSans-75" x="194.824219"/>
     <use xlink:href="#DejaVuSans-2d" x="258.203125"/>
     <use xlink:href="#DejaVuSans-6d" x="294.287109"/>
     <use xlink:href="#DejaVuSans-69" x="391.699219"/>
     <use xlink:href="#DejaVuSans-52" x="419.482422"/>
     <use xlink:href="#DejaVuSans-2d" x="484.964844"/>
     <use xlink:href="#DejaVuSans-32" x="521.048828"/>
     <use xlink:href="#DejaVuSans-32" x="584.671875"/>
     <use xlink:href="#DejaVuSans-33" x="648.294922"/>
     <use xlink:href="#DejaVuSans-2d" x="711.917969"/>
     <use xlink:href="#DejaVuSans-33" x="748.001953"/>
     <use xlink:href="#DejaVuSans-70" x="811.625"/>
    </g>
    <!-- mmu-miR-142a-5p -->
    <g transform="translate(468.36923 253.039061) scale(0.045 -0.045)">
     <use xlink:href="#DejaVuSans-6d"/>
     <use xlink:href="#DejaVuSans-6d" x="97.412109"/>
     <use xlink:href="#DejaVuSans-75" x="194.824219"/>
     <use xlink:href="#DejaVuSans-2d" x="258.203125"/>
     <use xlink:href="#DejaVuSans-6d" x="294.287109"/>
     <use xlink:href="#DejaVuSans-69" x="391.699219"/>
     <use xlink:href="#DejaVuSans-52" x="419.482422"/>
     <use xlink:href="#DejaVuSans-2d" x="484.964844"/>
     <use xlink:href="#DejaVuSans-31" x="521.048828"/>
     <use xlink:href="#DejaVuSans-34" x="584.671875"/>
     <use xlink:href="#DejaVuSans-32" x="648.294922"/>
     <use xlink:href="#DejaVuSans-61" x="711.917969"/>
     <use xlink:href="#DejaVuSans-2d" x="773.197266"/>
     <use xlink:href="#DejaVuSans-35" x="809.28125"/>
     <use xlink:href="#DejaVuSans-70" x="872.904297"/>
    </g>
    <!-- mmu-miR-15b-5p -->
    <g transform="translate(469.751222 258.078077) scale(0.045 -0.045)">
     <use xlink:href="#DejaVuSans-6d"/>
     <use xlink:href="#DejaVuSans-6d" x="97.412109"/>
     <use xlink:href="#DejaVuSans-75" x="194.824219"/>
     <use xlink:href="#DejaVuSans-2d" x="258.203125"/>
     <use xlink:href="#DejaVuSans-6d" x="294.287109"/>
     <use xlink:href="#DejaVuSans-69" x="391.699219"/>
     <use xlink:href="#DejaVuSans-52" x="419.482422"/>
     <use xlink:href="#DejaVuSans-2d" x="484.964844"/>
     <use xlink:href="#DejaVuSans-31" x="521.048828"/>
     <use xlink:href="#DejaVuSans-35" x="584.671875"/>
     <use xlink:href="#DejaVuSans-62" x="648.294922"/>
     <use xlink:href="#DejaVuSans-2d" x="711.771484"/>
     <use xlink:href="#DejaVuSans-35" x="747.855469"/>
     <use xlink:href="#DejaVuSans-70" x="811.478516"/>
    </g>
    <!-- mmu-miR-146b-5p -->
    <g transform="translate(468.31966 263.117092) scale(0.045 -0.045)">
     <use xlink:href="#DejaVuSans-6d"/>
     <use xlink:href="#DejaVuSans-6d" x="97.412109"/>
     <use xlink:href="#DejaVuSans-75" x="194.824219"/>
     <use xlink:href="#DejaVuSans-2d" x="258.203125"/>
     <use xlink:href="#DejaVuSans-6d" x="294.287109"/>
     <use xlink:href="#DejaVuSans-69" x="391.699219"/>
     <use xlink:href="#DejaVuSans-52" x="419.482422"/>
     <use xlink:href="#DejaVuSans-2d" x="484.964844"/>
     <use xlink:href="#DejaVuSans-31" x="521.048828"/>
     <use xlink:href="#DejaVuSans-34" x="584.671875"/>
     <use xlink:href="#DejaVuSans-36" x="648.294922"/>
     <use xlink:href="#DejaVuSans-62" x="711.917969"/>
     <use xlink:href="#DejaVuSans-2d" x="775.394531"/>
     <use xlink:href="#DejaVuSans-35" x="811.478516"/>
     <use xlink:href="#DejaVuSans-70" x="875.101562"/>
    </g>
    <!--  -->
    <g transform="translate(489.437316 268.156108) scale(0.045 -0.045)"/>
   </g>
   <g id="text_7">
    <!-- mmu-miR-200c-3p -->
    <g transform="translate(408.413065 204.400949) scale(0.045 -0.045)">
     <defs>
      <path id="DejaVuSans-63" d="M 3122 3366 
L 3122 2828 
Q 2878 2963 2633 3030 
Q 2388 3097 2138 3097 
Q 1578 3097 1268 2742 
Q 959 2388 959 1747 
Q 959 1106 1268 751 
Q 1578 397 2138 397 
Q 2388 397 2633 464 
Q 2878 531 3122 666 
L 3122 134 
Q 2881 22 2623 -34 
Q 2366 -91 2075 -91 
Q 1284 -91 818 406 
Q 353 903 353 1747 
Q 353 2603 823 3093 
Q 1294 3584 2113 3584 
Q 2378 3584 2631 3529 
Q 2884 3475 3122 3366 
z
" transform="scale(0.015625)"/>
     </defs>
     <use xlink:href="#DejaVuSans-6d"/>
     <use xlink:href="#DejaVuSans-6d" x="97.412109"/>
     <use xlink:href="#DejaVuSans-75" x="194.824219"/>
     <use xlink:href="#DejaVuSans-2d" x="258.203125"/>
     <use xlink:href="#DejaVuSans-6d" x="294.287109"/>
     <use xlink:href="#DejaVuSans-69" x="391.699219"/>
     <use xlink:href="#DejaVuSans-52" x="419.482422"/>
     <use xlink:href="#DejaVuSans-2d" x="484.964844"/>
     <use xlink:href="#DejaVuSans-32" x="521.048828"/>
     <use xlink:href="#DejaVuSans-30" x="584.671875"/>
     <use xlink:href="#DejaVuSans-30" x="648.294922"/>
     <use xlink:href="#DejaVuSans-63" x="711.917969"/>
     <use xlink:href="#DejaVuSans-2d" x="766.898438"/>
     <use xlink:href="#DejaVuSans-33" x="802.982422"/>
     <use xlink:href="#DejaVuSans-70" x="866.605469"/>
    </g>
    <!-- mmu-miR-21a-5p -->
    <g transform="translate(409.702948 209.439965) scale(0.045 -0.045)">
     <use xlink:href="#DejaVuSans-6d"/>
     <use xlink:href="#DejaVuSans-6d" x="97.412109"/>
     <use xlink:href="#DejaVuSans-75" x="194.824219"/>
     <use xlink:href="#DejaVuSans-2d" x="258.203125"/>
     <use xlink:href="#DejaVuSans-6d" x="294.287109"/>
     <use xlink:href="#DejaVuSans-69" x="391.699219"/>
     <use xlink:href="#DejaVuSans-52" x="419.482422"/>
     <use xlink:href="#DejaVuSans-2d" x="484.964844"/>
     <use xlink:href="#DejaVuSans-32" x="521.048828"/>
     <use xlink:href="#DejaVuSans-31" x="584.671875"/>
     <use xlink:href="#DejaVuSans-61" x="648.294922"/>
     <use xlink:href="#DejaVuSans-2d" x="709.574219"/>
     <use xlink:href="#DejaVuSans-35" x="745.658203"/>
     <use xlink:href="#DejaVuSans-70" x="809.28125"/>
    </g>
    <!-- mmu-miR-206-3p -->
    <g transform="translate(409.650214 214.47898) scale(0.045 -0.045)">
     <use xlink:href="#DejaVuSans-6d"/>
     <use xlink:href="#DejaVuSans-6d" x="97.412109"/>
     <use xlink:href="#DejaVuSans-75" x="194.824219"/>
     <use xlink:href="#DejaVuSans-2d" x="258.203125"/>
     <use xlink:href="#DejaVuSans-6d" x="294.287109"/>
     <use xlink:href="#DejaVuSans-69" x="391.699219"/>
     <use xlink:href="#DejaVuSans-52" x="419.482422"/>
     <use xlink:href="#DejaVuSans-2d" x="484.964844"/>
     <use xlink:href="#DejaVuSans-32" x="521.048828"/>
     <use xlink:href="#DejaVuSans-30" x="584.671875"/>
     <use xlink:href="#DejaVuSans-36" x="648.294922"/>
     <use xlink:href="#DejaVuSans-2d" x="711.917969"/>
     <use xlink:href="#DejaVuSans-33" x="748.001953"/>
     <use xlink:href="#DejaVuSans-70" x="811.625"/>
    </g>
    <!-- mmu-miR-3473e -->
    <g transform="translate(410.505917 219.517996) scale(0.045 -0.045)">
     <defs>
      <path id="DejaVuSans-65" d="M 3597 1894 
L 3597 1613 
L 953 1613 
Q 991 1019 1311 708 
Q 1631 397 2203 397 
Q 2534 397 2845 478 
Q 3156 559 3463 722 
L 3463 178 
Q 3153 47 2828 -22 
Q 2503 -91 2169 -91 
Q 1331 -91 842 396 
Q 353 884 353 1716 
Q 353 2575 817 3079 
Q 1281 3584 2069 3584 
Q 2775 3584 3186 3129 
Q 3597 2675 3597 1894 
z
M 3022 2063 
Q 3016 2534 2758 2815 
Q 2500 3097 2075 3097 
Q 1594 3097 1305 2825 
Q 1016 2553 972 2059 
L 3022 2063 
z
" transform="scale(0.015625)"/>
     </defs>
     <use xlink:href="#DejaVuSans-6d"/>
     <use xlink:href="#DejaVuSans-6d" x="97.412109"/>
     <use xlink:href="#DejaVuSans-75" x="194.824219"/>
     <use xlink:href="#DejaVuSans-2d" x="258.203125"/>
     <use xlink:href="#DejaVuSans-6d" x="294.287109"/>
     <use xlink:href="#DejaVuSans-69" x="391.699219"/>
     <use xlink:href="#DejaVuSans-52" x="419.482422"/>
     <use xlink:href="#DejaVuSans-2d" x="484.964844"/>
     <use xlink:href="#DejaVuSans-33" x="521.048828"/>
     <use xlink:href="#DejaVuSans-34" x="584.671875"/>
     <use xlink:href="#DejaVuSans-37" x="648.294922"/>
     <use xlink:href="#DejaVuSans-33" x="711.917969"/>
     <use xlink:href="#DejaVuSans-65" x="775.541016"/>
    </g>
    <!-- mmu-miR-1a-3p -->
    <g transform="translate(411.13451 224.557011) scale(0.045 -0.045)">
     <use xlink:href="#DejaVuSans-6d"/>
     <use xlink:href="#DejaVuSans-6d" x="97.412109"/>
     <use xlink:href="#DejaVuSans-75" x="194.824219"/>
     <use xlink:href="#DejaVuSans-2d" x="258.203125"/>
     <use xlink:href="#DejaVuSans-6d" x="294.287109"/>
     <use xlink:href="#DejaVuSans-69" x="391.699219"/>
     <use xlink:href="#DejaVuSans-52" x="419.482422"/>
     <use xlink:href="#DejaVuSans-2d" x="484.964844"/>
     <use xlink:href="#DejaVuSans-31" x="521.048828"/>
     <use xlink:href="#DejaVuSans-61" x="584.671875"/>
     <use xlink:href="#DejaVuSans-2d" x="645.951172"/>
     <use xlink:href="#DejaVuSans-33" x="682.035156"/>
     <use xlink:href="#DejaVuSans-70" x="745.658203"/>
    </g>
    <!-- mmu-miR-155-5p -->
    <g transform="translate(409.650214 229.596027) scale(0.045 -0.045)">
     <use xlink:href="#DejaVuSans-6d"/>
     <use xlink:href="#DejaVuSans-6d" x="97.412109"/>
     <use xlink:href="#DejaVuSans-75" x="194.824219"/>
     <use xlink:href="#DejaVuSans-2d" x="258.203125"/>
     <use xlink:href="#DejaVuSans-6d" x="294.287109"/>
     <use xlink:href="#DejaVuSans-69" x="391.699219"/>
     <use xlink:href="#DejaVuSans-52" x="419.482422"/>
     <use xlink:href="#DejaVuSans-2d" x="484.964844"/>
     <use xlink:href="#DejaVuSans-31" x="521.048828"/>
     <use xlink:href="#DejaVuSans-35" x="584.671875"/>
     <use xlink:href="#DejaVuSans-35" x="648.294922"/>
     <use xlink:href="#DejaVuSans-2d" x="711.917969"/>
     <use xlink:href="#DejaVuSans-35" x="748.001953"/>
     <use xlink:href="#DejaVuSans-70" x="811.625"/>
    </g>
    <!--  -->
    <g transform="translate(429.339471 234.635043) scale(0.045 -0.045)"/>
   </g>
   <g id="text_8">
    <!-- 4h -->
    <g transform="translate(312.937065 99.881474) scale(0.12 -0.12)">
     <defs>
      <path id="DejaVuSans-68" d="M 3513 2113 
L 3513 0 
L 2938 0 
L 2938 2094 
Q 2938 2591 2744 2837 
Q 2550 3084 2163 3084 
Q 1697 3084 1428 2787 
Q 1159 2491 1159 1978 
L 1159 0 
L 581 0 
L 581 4863 
L 1159 4863 
L 1159 2956 
Q 1366 3272 1645 3428 
Q 1925 3584 2291 3584 
Q 2894 3584 3203 3211 
Q 3513 2838 3513 2113 
z
" transform="scale(0.015625)"/>
     </defs>
     <use xlink:href="#DejaVuSans-34"/>
     <use xlink:href="#DejaVuSans-68" x="63.623047"/>
    </g>
   </g>
   <g id="text_9">
    <!-- 24h -->
    <g transform="translate(519.471322 104.687595) scale(0.12 -0.12)">
     <use xlink:href="#DejaVuSans-32"/>
     <use xlink:href="#DejaVuSans-34" x="63.623047"/>
     <use xlink:href="#DejaVuSans-68" x="127.246094"/>
    </g>
   </g>
   <g id="text_10">
    <!-- 168h -->
    <g transform="translate(436.808993 505.974867) scale(0.12 -0.12)">
     <use xlink:href="#DejaVuSans-31"/>
     <use xlink:href="#DejaVuSans-36" x="63.623047"/>
     <use xlink:href="#DejaVuSans-38" x="127.246094"/>
     <use xlink:href="#DejaVuSans-68" x="190.869141"/>
    </g>
   </g>
   <g id="text_11">
    <!-- Venn Diagram of Significant miRNAs in the T Ganglion -->
    <g transform="translate(280.275938 63.12) scale(0.12 -0.12)">
     <defs>
      <path id="DejaVuSans-56" d="M 1831 0 
L 50 4666 
L 709 4666 
L 2188 738 
L 3669 4666 
L 4325 4666 
L 2547 0 
L 1831 0 
z
" transform="scale(0.015625)"/>
      <path id="DejaVuSans-6e" d="M 3513 2113 
L 3513 0 
L 2938 0 
L 2938 2094 
Q 2938 2591 2744 2837 
Q 2550 3084 2163 3084 
Q 1697 3084 1428 2787 
Q 1159 2491 1159 1978 
L 1159 0 
L 581 0 
L 581 3500 
L 1159 3500 
L 1159 2956 
Q 1366 3272 1645 3428 
Q 1925 3584 2291 3584 
Q 2894 3584 3203 3211 
Q 3513 2838 3513 2113 
z
" transform="scale(0.015625)"/>
      <path id="DejaVuSans-20" transform="scale(0.015625)"/>
      <path id="DejaVuSans-44" d="M 1259 4147 
L 1259 519 
L 2022 519 
Q 2988 519 3436 956 
Q 3884 1394 3884 2338 
Q 3884 3275 3436 3711 
Q 2988 4147 2022 4147 
L 1259 4147 
z
M 628 4666 
L 1925 4666 
Q 3281 4666 3915 4102 
Q 4550 3538 4550 2338 
Q 4550 1131 3912 565 
Q 3275 0 1925 0 
L 628 0 
L 628 4666 
z
" transform="scale(0.015625)"/>
      <path id="DejaVuSans-67" d="M 2906 1791 
Q 2906 2416 2648 2759 
Q 2391 3103 1925 3103 
Q 1463 3103 1205 2759 
Q 947 2416 947 1791 
Q 947 1169 1205 825 
Q 1463 481 1925 481 
Q 2391 481 2648 825 
Q 2906 1169 2906 1791 
z
M 3481 434 
Q 3481 -459 3084 -895 
Q 2688 -1331 1869 -1331 
Q 1566 -1331 1297 -1286 
Q 1028 -1241 775 -1147 
L 775 -588 
Q 1028 -725 1275 -790 
Q 1522 -856 1778 -856 
Q 2344 -856 2625 -561 
Q 2906 -266 2906 331 
L 2906 616 
Q 2728 306 2450 153 
Q 2172 0 1784 0 
Q 1141 0 747 490 
Q 353 981 353 1791 
Q 353 2603 747 3093 
Q 1141 3584 1784 3584 
Q 2172 3584 2450 3431 
Q 2728 3278 2906 2969 
L 2906 3500 
L 3481 3500 
L 3481 434 
z
" transform="scale(0.015625)"/>
      <path id="DejaVuSans-72" d="M 2631 2963 
Q 2534 3019 2420 3045 
Q 2306 3072 2169 3072 
Q 1681 3072 1420 2755 
Q 1159 2438 1159 1844 
L 1159 0 
L 581 0 
L 581 3500 
L 1159 3500 
L 1159 2956 
Q 1341 3275 1631 3429 
Q 1922 3584 2338 3584 
Q 2397 3584 2469 3576 
Q 2541 3569 2628 3553 
L 2631 2963 
z
" transform="scale(0.015625)"/>
      <path id="DejaVuSans-6f" d="M 1959 3097 
Q 1497 3097 1228 2736 
Q 959 2375 959 1747 
Q 959 1119 1226 758 
Q 1494 397 1959 397 
Q 2419 397 2687 759 
Q 2956 1122 2956 1747 
Q 2956 2369 2687 2733 
Q 2419 3097 1959 3097 
z
M 1959 3584 
Q 2709 3584 3137 3096 
Q 3566 2609 3566 1747 
Q 3566 888 3137 398 
Q 2709 -91 1959 -91 
Q 1206 -91 779 398 
Q 353 888 353 1747 
Q 353 2609 779 3096 
Q 1206 3584 1959 3584 
z
" transform="scale(0.015625)"/>
      <path id="DejaVuSans-66" d="M 2375 4863 
L 2375 4384 
L 1825 4384 
Q 1516 4384 1395 4259 
Q 1275 4134 1275 3809 
L 1275 3500 
L 2222 3500 
L 2222 3053 
L 1275 3053 
L 1275 0 
L 697 0 
L 697 3053 
L 147 3053 
L 147 3500 
L 697 3500 
L 697 3744 
Q 697 4328 969 4595 
Q 1241 4863 1831 4863 
L 2375 4863 
z
" transform="scale(0.015625)"/>
      <path id="DejaVuSans-53" d="M 3425 4513 
L 3425 3897 
Q 3066 4069 2747 4153 
Q 2428 4238 2131 4238 
Q 1616 4238 1336 4038 
Q 1056 3838 1056 3469 
Q 1056 3159 1242 3001 
Q 1428 2844 1947 2747 
L 2328 2669 
Q 3034 2534 3370 2195 
Q 3706 1856 3706 1288 
Q 3706 609 3251 259 
Q 2797 -91 1919 -91 
Q 1588 -91 1214 -16 
Q 841 59 441 206 
L 441 856 
Q 825 641 1194 531 
Q 1563 422 1919 422 
Q 2459 422 2753 634 
Q 3047 847 3047 1241 
Q 3047 1584 2836 1778 
Q 2625 1972 2144 2069 
L 1759 2144 
Q 1053 2284 737 2584 
Q 422 2884 422 3419 
Q 422 4038 858 4394 
Q 1294 4750 2059 4750 
Q 2388 4750 2728 4690 
Q 3069 4631 3425 4513 
z
" transform="scale(0.015625)"/>
      <path id="DejaVuSans-74" d="M 1172 4494 
L 1172 3500 
L 2356 3500 
L 2356 3053 
L 1172 3053 
L 1172 1153 
Q 1172 725 1289 603 
Q 1406 481 1766 481 
L 2356 481 
L 2356 0 
L 1766 0 
Q 1100 0 847 248 
Q 594 497 594 1153 
L 594 3053 
L 172 3053 
L 172 3500 
L 594 3500 
L 594 4494 
L 1172 4494 
z
" transform="scale(0.015625)"/>
      <path id="DejaVuSans-4e" d="M 628 4666 
L 1478 4666 
L 3547 763 
L 3547 4666 
L 4159 4666 
L 4159 0 
L 3309 0 
L 1241 3903 
L 1241 0 
L 628 0 
L 628 4666 
z
" transform="scale(0.015625)"/>
      <path id="DejaVuSans-41" d="M 2188 4044 
L 1331 1722 
L 3047 1722 
L 2188 4044 
z
M 1831 4666 
L 2547 4666 
L 4325 0 
L 3669 0 
L 3244 1197 
L 1141 1197 
L 716 0 
L 50 0 
L 1831 4666 
z
" transform="scale(0.015625)"/>
      <path id="DejaVuSans-73" d="M 2834 3397 
L 2834 2853 
Q 2591 2978 2328 3040 
Q 2066 3103 1784 3103 
Q 1356 3103 1142 2972 
Q 928 2841 928 2578 
Q 928 2378 1081 2264 
Q 1234 2150 1697 2047 
L 1894 2003 
Q 2506 1872 2764 1633 
Q 3022 1394 3022 966 
Q 3022 478 2636 193 
Q 2250 -91 1575 -91 
Q 1294 -91 989 -36 
Q 684 19 347 128 
L 347 722 
Q 666 556 975 473 
Q 1284 391 1588 391 
Q 1994 391 2212 530 
Q 2431 669 2431 922 
Q 2431 1156 2273 1281 
Q 2116 1406 1581 1522 
L 1381 1569 
Q 847 1681 609 1914 
Q 372 2147 372 2553 
Q 372 3047 722 3315 
Q 1072 3584 1716 3584 
Q 2034 3584 2315 3537 
Q 2597 3491 2834 3397 
z
" transform="scale(0.015625)"/>
      <path id="DejaVuSans-54" d="M -19 4666 
L 3928 4666 
L 3928 4134 
L 2272 4134 
L 2272 0 
L 1638 0 
L 1638 4134 
L -19 4134 
L -19 4666 
z
" transform="scale(0.015625)"/>
      <path id="DejaVuSans-47" d="M 3809 666 
L 3809 1919 
L 2778 1919 
L 2778 2438 
L 4434 2438 
L 4434 434 
Q 4069 175 3628 42 
Q 3188 -91 2688 -91 
Q 1594 -91 976 548 
Q 359 1188 359 2328 
Q 359 3472 976 4111 
Q 1594 4750 2688 4750 
Q 3144 4750 3555 4637 
Q 3966 4525 4313 4306 
L 4313 3634 
Q 3963 3931 3569 4081 
Q 3175 4231 2741 4231 
Q 1884 4231 1454 3753 
Q 1025 3275 1025 2328 
Q 1025 1384 1454 906 
Q 1884 428 2741 428 
Q 3075 428 3337 486 
Q 3600 544 3809 666 
z
" transform="scale(0.015625)"/>
      <path id="DejaVuSans-6c" d="M 603 4863 
L 1178 4863 
L 1178 0 
L 603 0 
L 603 4863 
z
" transform="scale(0.015625)"/>
     </defs>
     <use xlink:href="#DejaVuSans-56"/>
     <use xlink:href="#DejaVuSans-65" x="60.658203"/>
     <use xlink:href="#DejaVuSans-6e" x="122.181641"/>
     <use xlink:href="#DejaVuSans-6e" x="185.560547"/>
     <use xlink:href="#DejaVuSans-20" x="248.939453"/>
     <use xlink:href="#DejaVuSans-44" x="280.726562"/>
     <use xlink:href="#DejaVuSans-69" x="357.728516"/>
     <use xlink:href="#DejaVuSans-61" x="385.511719"/>
     <use xlink:href="#DejaVuSans-67" x="446.791016"/>
     <use xlink:href="#DejaVuSans-72" x="510.267578"/>
     <use xlink:href="#DejaVuSans-61" x="551.380859"/>
     <use xlink:href="#DejaVuSans-6d" x="612.660156"/>
     <use xlink:href="#DejaVuSans-20" x="710.072266"/>
     <use xlink:href="#DejaVuSans-6f" x="741.859375"/>
     <use xlink:href="#DejaVuSans-66" x="803.041016"/>
     <use xlink:href="#DejaVuSans-20" x="838.246094"/>
     <use xlink:href="#DejaVuSans-53" x="870.033203"/>
     <use xlink:href="#DejaVuSans-69" x="933.509766"/>
     <use xlink:href="#DejaVuSans-67" x="961.292969"/>
     <use xlink:href="#DejaVuSans-6e" x="1024.769531"/>
     <use xlink:href="#DejaVuSans-69" x="1088.148438"/>
     <use xlink:href="#DejaVuSans-66" x="1115.931641"/>
     <use xlink:href="#DejaVuSans-69" x="1151.136719"/>
     <use xlink:href="#DejaVuSans-63" x="1178.919922"/>
     <use xlink:href="#DejaVuSans-61" x="1233.900391"/>
     <use xlink:href="#DejaVuSans-6e" x="1295.179688"/>
     <use xlink:href="#DejaVuSans-74" x="1358.558594"/>
     <use xlink:href="#DejaVuSans-20" x="1397.767578"/>
     <use xlink:href="#DejaVuSans-6d" x="1429.554688"/>
     <use xlink:href="#DejaVuSans-69" x="1526.966797"/>
     <use xlink:href="#DejaVuSans-52" x="1554.75"/>
     <use xlink:href="#DejaVuSans-4e" x="1624.232422"/>
     <use xlink:href="#DejaVuSans-41" x="1699.037109"/>
     <use xlink:href="#DejaVuSans-73" x="1767.445312"/>
     <use xlink:href="#DejaVuSans-20" x="1819.544922"/>
     <use xlink:href="#DejaVuSans-69" x="1851.332031"/>
     <use xlink:href="#DejaVuSans-6e" x="1879.115234"/>
     <use xlink:href="#DejaVuSans-20" x="1942.494141"/>
     <use xlink:href="#DejaVuSans-74" x="1974.28125"/>
     <use xlink:href="#DejaVuSans-68" x="2013.490234"/>
     <use xlink:href="#DejaVuSans-65" x="2076.869141"/>
     <use xlink:href="#DejaVuSans-20" x="2138.392578"/>
     <use xlink:href="#DejaVuSans-54" x="2170.179688"/>
     <use xlink:href="#DejaVuSans-20" x="2231.263672"/>
     <use xlink:href="#DejaVuSans-47" x="2263.050781"/>
     <use xlink:href="#DejaVuSans-61" x="2340.541016"/>
     <use xlink:href="#DejaVuSans-6e" x="2401.820312"/>
     <use xlink:href="#DejaVuSans-67" x="2465.199219"/>
     <use xlink:href="#DejaVuSans-6c" x="2528.675781"/>
     <use xlink:href="#DejaVuSans-69" x="2556.458984"/>
     <use xlink:href="#DejaVuSans-6f" x="2584.242188"/>
     <use xlink:href="#DejaVuSans-6e" x="2645.423828"/>
    </g>
   </g>
  </g>
 </g>
 <defs>
  <clipPath id="pef54c429d2">
   <rect x="252.992373" y="69.12" width="379.615254" height="443.52"/>
  </clipPath>
 </defs>
</svg>
