<?xml version="1.0" encoding="utf-8" standalone="no"?>
<!DOCTYPE svg PUBLIC "-//W3C//DTD SVG 1.1//EN"
  "http://www.w3.org/Graphics/SVG/1.1/DTD/svg11.dtd">
<svg xmlns:xlink="http://www.w3.org/1999/xlink" width="864pt" height="576pt" viewBox="0 0 864 576" xmlns="http://www.w3.org/2000/svg" version="1.1">
 <metadata>
  <rdf:RDF xmlns:dc="http://purl.org/dc/elements/1.1/" xmlns:cc="http://creativecommons.org/ns#" xmlns:rdf="http://www.w3.org/1999/02/22-rdf-syntax-ns#">
   <cc:Work>
    <dc:type rdf:resource="http://purl.org/dc/dcmitype/StillImage"/>
    <dc:date>2024-09-11T11:16:48.289185</dc:date>
    <dc:format>image/svg+xml</dc:format>
    <dc:creator>
     <cc:Agent>
      <dc:title>Matplotlib v3.9.1, https://matplotlib.org/</dc:title>
     </cc:Agent>
    </dc:creator>
   </cc:Work>
  </rdf:RDF>
 </metadata>
 <defs>
  <style type="text/css">*{stroke-linejoin: round; stroke-linecap: butt}</style>
 </defs>
 <g id="figure_1">
  <g id="patch_1">
   <path d="M 0 576 
L 864 576 
L 864 0 
L 0 0 
z
" style="fill: #ffffff"/>
  </g>
  <g id="axes_1">
   <g id="patch_2">
    <path d="M 403.444435 158.102873 
C 383.457738 143.044721 358.900132 135.284697 333.889908 136.124152 
C 308.879684 136.963607 284.897684 146.352837 265.96567 162.717275 
C 247.033656 179.081713 234.272583 201.45243 229.822472 226.077874 
C 225.37236 250.703318 229.496701 276.12543 241.503843 298.080942 
C 251.114106 269.728501 269.794785 245.312628 294.647161 228.621987 
C 319.499537 211.931345 349.168028 203.876331 379.048912 205.706859 
C 381.565589 197.091561 384.892932 188.734072 388.986307 180.7465 
C 393.079683 172.758929 397.920705 165.177152 403.444435 158.102873 
" clip-path="url(#pfe307de432)" style="fill: #ff0000; opacity: 0.4"/>
   </g>
   <g id="patch_3">
    <path d="M 403.444435 158.102873 
C 414.594912 166.50374 424.036326 176.960363 431.258716 188.907949 
C 438.481107 200.855534 443.352057 214.075031 445.608473 227.852415 
C 471.010761 244.539113 490.122597 269.245426 499.891574 298.02544 
C 509.660552 326.805455 509.537351 358.040835 499.541648 386.742892 
C 524.161762 389.514341 549.083874 385.798691 571.824854 375.966155 
C 594.565834 366.133618 614.344464 350.52197 629.190086 330.686688 
C 644.035709 310.851406 653.438335 287.473887 656.461127 262.883368 
C 659.48392 238.292848 656.023037 213.334081 646.423307 190.493851 
C 636.823577 167.653621 621.414777 147.716554 601.732174 132.669093 
C 582.049571 117.621633 558.769317 107.980702 534.210958 104.706881 
C 509.652598 101.43306 484.659781 104.638815 461.722684 114.004737 
C 438.785587 123.370659 418.692163 138.575003 403.444435 158.102873 
" clip-path="url(#pfe307de432)" style="fill: #008000; opacity: 0.4"/>
   </g>
   <g id="patch_4">
    <path d="M 403.444435 158.102873 
C 397.920705 165.177152 393.079683 172.758929 388.986307 180.7465 
C 384.892932 188.734072 381.565589 197.091561 379.048912 205.706859 
C 390.86733 206.430865 402.541359 208.690427 413.776387 212.428521 
C 425.011414 216.166616 435.712126 221.35153 445.608473 227.852415 
C 443.352057 214.075031 438.481107 200.855534 431.258716 188.907949 
C 424.036326 176.960363 414.594912 166.50374 403.444435 158.102873 
" clip-path="url(#pfe307de432)" style="fill: #b25900; opacity: 0.4"/>
   </g>
   <g id="patch_5">
    <path d="M 241.503843 298.080942 
C 229.924803 332.241722 232.353575 369.637945 248.253984 402.014017 
C 264.154392 434.390089 292.263438 459.174318 326.375764 470.895335 
C 360.48809 482.616351 397.894091 480.343133 430.336014 464.577516 
C 462.777936 448.811899 487.678858 420.806175 499.541648 386.742892 
C 480.753763 384.627968 462.575594 378.784194 446.074814 369.554797 
C 429.574034 360.325399 415.080147 347.89468 403.444435 332.992743 
C 390.891863 342.44996 376.448861 349.09439 361.099915 352.473123 
C 345.750968 355.851857 329.852932 355.88634 314.489472 352.574224 
C 299.126013 349.262108 284.654322 342.680397 272.060842 333.277723 
C 259.467363 323.87505 249.044885 311.870021 241.503843 298.080942 
" clip-path="url(#pfe307de432)" style="fill: #0000ff; opacity: 0.4"/>
   </g>
   <g id="patch_6">
    <path d="M 241.503843 298.080942 
C 249.044885 311.870021 259.467363 323.87505 272.060842 333.277723 
C 284.654322 342.680397 299.126013 349.262108 314.489472 352.574224 
C 329.852932 355.88634 345.750968 355.851857 361.099915 352.473123 
C 376.448861 349.09439 390.891863 342.44996 403.444435 332.992743 
C 389.576433 315.231899 380.130401 294.424206 375.888803 272.29328 
C 371.647205 250.162353 372.730487 227.33662 379.048912 205.706859 
C 349.168028 203.876331 319.499537 211.931345 294.647161 228.621987 
C 269.794785 245.312628 251.114106 269.728501 241.503843 298.080942 
" clip-path="url(#pfe307de432)" style="fill: #b200b2; opacity: 0.4"/>
   </g>
   <g id="patch_7">
    <path d="M 445.608473 227.852415 
C 448.835244 247.55467 446.61229 267.769278 439.181179 286.29951 
C 431.750069 304.829742 419.3901 320.97914 403.444435 332.992743 
C 415.080147 347.89468 429.574034 360.325399 446.074814 369.554797 
C 462.575594 378.784194 480.753763 384.627968 499.541648 386.742892 
C 509.537351 358.040835 509.660552 326.805455 499.891574 298.02544 
C 490.122597 269.245426 471.010761 244.539113 445.608473 227.852415 
" clip-path="url(#pfe307de432)" style="fill: #0059b2; opacity: 0.4"/>
   </g>
   <g id="patch_8">
    <path d="M 379.048912 205.706859 
C 372.730487 227.33662 371.647205 250.162353 375.888803 272.29328 
C 380.130401 294.424206 389.576433 315.231899 403.444435 332.992743 
C 419.3901 320.97914 431.750069 304.829742 439.181179 286.29951 
C 446.61229 267.769278 448.835244 247.55467 445.608473 227.852415 
C 435.712126 221.35153 425.011414 216.166616 413.776387 212.428521 
C 402.541359 208.690427 390.86733 206.430865 379.048912 205.706859 
" clip-path="url(#pfe307de432)" style="fill: #663366; opacity: 0.4"/>
   </g>
   <g id="text_1">
    <!-- 12 -->
    <g transform="translate(281.241291 185.470176) scale(0.06 -0.06)">
     <defs>
      <path id="DejaVuSans-31" d="M 794 531 
L 1825 531 
L 1825 4091 
L 703 3866 
L 703 4441 
L 1819 4666 
L 2450 4666 
L 2450 531 
L 3481 531 
L 3481 0 
L 794 0 
L 794 531 
z
" transform="scale(0.015625)"/>
      <path id="DejaVuSans-32" d="M 1228 531 
L 3431 531 
L 3431 0 
L 469 0 
L 469 531 
Q 828 903 1448 1529 
Q 2069 2156 2228 2338 
Q 2531 2678 2651 2914 
Q 2772 3150 2772 3378 
Q 2772 3750 2511 3984 
Q 2250 4219 1831 4219 
Q 1534 4219 1204 4116 
Q 875 4013 500 3803 
L 500 4441 
Q 881 4594 1212 4672 
Q 1544 4750 1819 4750 
Q 2544 4750 2975 4387 
Q 3406 4025 3406 3419 
Q 3406 3131 3298 2873 
Q 3191 2616 2906 2266 
Q 2828 2175 2409 1742 
Q 1991 1309 1228 531 
z
" transform="scale(0.015625)"/>
     </defs>
     <use xlink:href="#DejaVuSans-31"/>
     <use xlink:href="#DejaVuSans-32" x="63.623047"/>
    </g>
   </g>
   <g id="text_2">
    <!-- 45 -->
    <g transform="translate(585.279329 214.751084) scale(0.06 -0.06)">
     <defs>
      <path id="DejaVuSans-34" d="M 2419 4116 
L 825 1625 
L 2419 1625 
L 2419 4116 
z
M 2253 4666 
L 3047 4666 
L 3047 1625 
L 3713 1625 
L 3713 1100 
L 3047 1100 
L 3047 0 
L 2419 0 
L 2419 1100 
L 313 1100 
L 313 1709 
L 2253 4666 
z
" transform="scale(0.015625)"/>
      <path id="DejaVuSans-35" d="M 691 4666 
L 3169 4666 
L 3169 4134 
L 1269 4134 
L 1269 2991 
Q 1406 3038 1543 3061 
Q 1681 3084 1819 3084 
Q 2600 3084 3056 2656 
Q 3513 2228 3513 1497 
Q 3513 744 3044 326 
Q 2575 -91 1722 -91 
Q 1428 -91 1123 -41 
Q 819 9 494 109 
L 494 744 
Q 775 591 1075 516 
Q 1375 441 1709 441 
Q 2250 441 2565 725 
Q 2881 1009 2881 1497 
Q 2881 1984 2565 2268 
Q 2250 2553 1709 2553 
Q 1456 2553 1204 2497 
Q 953 2441 691 2322 
L 691 4666 
z
" transform="scale(0.015625)"/>
     </defs>
     <use xlink:href="#DejaVuSans-34"/>
     <use xlink:href="#DejaVuSans-35" x="63.623047"/>
    </g>
   </g>
   <g id="text_3">
    <!-- mmu-miR-144-3p -->
    <g transform="translate(389.899294 185.986683) scale(0.06 -0.06)">
     <defs>
      <path id="DejaVuSans-6d" d="M 3328 2828 
Q 3544 3216 3844 3400 
Q 4144 3584 4550 3584 
Q 5097 3584 5394 3201 
Q 5691 2819 5691 2113 
L 5691 0 
L 5113 0 
L 5113 2094 
Q 5113 2597 4934 2840 
Q 4756 3084 4391 3084 
Q 3944 3084 3684 2787 
Q 3425 2491 3425 1978 
L 3425 0 
L 2847 0 
L 2847 2094 
Q 2847 2600 2669 2842 
Q 2491 3084 2119 3084 
Q 1678 3084 1418 2786 
Q 1159 2488 1159 1978 
L 1159 0 
L 581 0 
L 581 3500 
L 1159 3500 
L 1159 2956 
Q 1356 3278 1631 3431 
Q 1906 3584 2284 3584 
Q 2666 3584 2933 3390 
Q 3200 3197 3328 2828 
z
" transform="scale(0.015625)"/>
      <path id="DejaVuSans-75" d="M 544 1381 
L 544 3500 
L 1119 3500 
L 1119 1403 
Q 1119 906 1312 657 
Q 1506 409 1894 409 
Q 2359 409 2629 706 
Q 2900 1003 2900 1516 
L 2900 3500 
L 3475 3500 
L 3475 0 
L 2900 0 
L 2900 538 
Q 2691 219 2414 64 
Q 2138 -91 1772 -91 
Q 1169 -91 856 284 
Q 544 659 544 1381 
z
M 1991 3584 
L 1991 3584 
z
" transform="scale(0.015625)"/>
      <path id="DejaVuSans-2d" d="M 313 2009 
L 1997 2009 
L 1997 1497 
L 313 1497 
L 313 2009 
z
" transform="scale(0.015625)"/>
      <path id="DejaVuSans-69" d="M 603 3500 
L 1178 3500 
L 1178 0 
L 603 0 
L 603 3500 
z
M 603 4863 
L 1178 4863 
L 1178 4134 
L 603 4134 
L 603 4863 
z
" transform="scale(0.015625)"/>
      <path id="DejaVuSans-52" d="M 2841 2188 
Q 3044 2119 3236 1894 
Q 3428 1669 3622 1275 
L 4263 0 
L 3584 0 
L 2988 1197 
Q 2756 1666 2539 1819 
Q 2322 1972 1947 1972 
L 1259 1972 
L 1259 0 
L 628 0 
L 628 4666 
L 2053 4666 
Q 2853 4666 3247 4331 
Q 3641 3997 3641 3322 
Q 3641 2881 3436 2590 
Q 3231 2300 2841 2188 
z
M 1259 4147 
L 1259 2491 
L 2053 2491 
Q 2509 2491 2742 2702 
Q 2975 2913 2975 3322 
Q 2975 3731 2742 3939 
Q 2509 4147 2053 4147 
L 1259 4147 
z
" transform="scale(0.015625)"/>
      <path id="DejaVuSans-33" d="M 2597 2516 
Q 3050 2419 3304 2112 
Q 3559 1806 3559 1356 
Q 3559 666 3084 287 
Q 2609 -91 1734 -91 
Q 1441 -91 1130 -33 
Q 819 25 488 141 
L 488 750 
Q 750 597 1062 519 
Q 1375 441 1716 441 
Q 2309 441 2620 675 
Q 2931 909 2931 1356 
Q 2931 1769 2642 2001 
Q 2353 2234 1838 2234 
L 1294 2234 
L 1294 2753 
L 1863 2753 
Q 2328 2753 2575 2939 
Q 2822 3125 2822 3475 
Q 2822 3834 2567 4026 
Q 2313 4219 1838 4219 
Q 1578 4219 1281 4162 
Q 984 4106 628 3988 
L 628 4550 
Q 988 4650 1302 4700 
Q 1616 4750 1894 4750 
Q 2613 4750 3031 4423 
Q 3450 4097 3450 3541 
Q 3450 3153 3228 2886 
Q 3006 2619 2597 2516 
z
" transform="scale(0.015625)"/>
      <path id="DejaVuSans-70" d="M 1159 525 
L 1159 -1331 
L 581 -1331 
L 581 3500 
L 1159 3500 
L 1159 2969 
Q 1341 3281 1617 3432 
Q 1894 3584 2278 3584 
Q 2916 3584 3314 3078 
Q 3713 2572 3713 1747 
Q 3713 922 3314 415 
Q 2916 -91 2278 -91 
Q 1894 -91 1617 61 
Q 1341 213 1159 525 
z
M 3116 1747 
Q 3116 2381 2855 2742 
Q 2594 3103 2138 3103 
Q 1681 3103 1420 2742 
Q 1159 2381 1159 1747 
Q 1159 1113 1420 752 
Q 1681 391 2138 391 
Q 2594 391 2855 752 
Q 3116 1113 3116 1747 
z
" transform="scale(0.015625)"/>
     </defs>
     <use xlink:href="#DejaVuSans-6d"/>
     <use xlink:href="#DejaVuSans-6d" x="97.412109"/>
     <use xlink:href="#DejaVuSans-75" x="194.824219"/>
     <use xlink:href="#DejaVuSans-2d" x="258.203125"/>
     <use xlink:href="#DejaVuSans-6d" x="294.287109"/>
     <use xlink:href="#DejaVuSans-69" x="391.699219"/>
     <use xlink:href="#DejaVuSans-52" x="419.482422"/>
     <use xlink:href="#DejaVuSans-2d" x="484.964844"/>
     <use xlink:href="#DejaVuSans-31" x="521.048828"/>
     <use xlink:href="#DejaVuSans-34" x="584.671875"/>
     <use xlink:href="#DejaVuSans-34" x="648.294922"/>
     <use xlink:href="#DejaVuSans-2d" x="711.917969"/>
     <use xlink:href="#DejaVuSans-33" x="748.001953"/>
     <use xlink:href="#DejaVuSans-70" x="811.625"/>
    </g>
    <!-- mmu-miR-451a -->
    <g transform="translate(392.956482 192.70537) scale(0.06 -0.06)">
     <defs>
      <path id="DejaVuSans-61" d="M 2194 1759 
Q 1497 1759 1228 1600 
Q 959 1441 959 1056 
Q 959 750 1161 570 
Q 1363 391 1709 391 
Q 2188 391 2477 730 
Q 2766 1069 2766 1631 
L 2766 1759 
L 2194 1759 
z
M 3341 1997 
L 3341 0 
L 2766 0 
L 2766 531 
Q 2569 213 2275 61 
Q 1981 -91 1556 -91 
Q 1019 -91 701 211 
Q 384 513 384 1019 
Q 384 1609 779 1909 
Q 1175 2209 1959 2209 
L 2766 2209 
L 2766 2266 
Q 2766 2663 2505 2880 
Q 2244 3097 1772 3097 
Q 1472 3097 1187 3025 
Q 903 2953 641 2809 
L 641 3341 
Q 956 3463 1253 3523 
Q 1550 3584 1831 3584 
Q 2591 3584 2966 3190 
Q 3341 2797 3341 1997 
z
" transform="scale(0.015625)"/>
     </defs>
     <use xlink:href="#DejaVuSans-6d"/>
     <use xlink:href="#DejaVuSans-6d" x="97.412109"/>
     <use xlink:href="#DejaVuSans-75" x="194.824219"/>
     <use xlink:href="#DejaVuSans-2d" x="258.203125"/>
     <use xlink:href="#DejaVuSans-6d" x="294.287109"/>
     <use xlink:href="#DejaVuSans-69" x="391.699219"/>
     <use xlink:href="#DejaVuSans-52" x="419.482422"/>
     <use xlink:href="#DejaVuSans-2d" x="484.964844"/>
     <use xlink:href="#DejaVuSans-34" x="521.048828"/>
     <use xlink:href="#DejaVuSans-35" x="584.671875"/>
     <use xlink:href="#DejaVuSans-31" x="648.294922"/>
     <use xlink:href="#DejaVuSans-61" x="711.917969"/>
    </g>
    <!-- mmu-miR-503-5p -->
    <g transform="translate(389.899294 199.424058) scale(0.06 -0.06)">
     <defs>
      <path id="DejaVuSans-30" d="M 2034 4250 
Q 1547 4250 1301 3770 
Q 1056 3291 1056 2328 
Q 1056 1369 1301 889 
Q 1547 409 2034 409 
Q 2525 409 2770 889 
Q 3016 1369 3016 2328 
Q 3016 3291 2770 3770 
Q 2525 4250 2034 4250 
z
M 2034 4750 
Q 2819 4750 3233 4129 
Q 3647 3509 3647 2328 
Q 3647 1150 3233 529 
Q 2819 -91 2034 -91 
Q 1250 -91 836 529 
Q 422 1150 422 2328 
Q 422 3509 836 4129 
Q 1250 4750 2034 4750 
z
" transform="scale(0.015625)"/>
     </defs>
     <use xlink:href="#DejaVuSans-6d"/>
     <use xlink:href="#DejaVuSans-6d" x="97.412109"/>
     <use xlink:href="#DejaVuSans-75" x="194.824219"/>
     <use xlink:href="#DejaVuSans-2d" x="258.203125"/>
     <use xlink:href="#DejaVuSans-6d" x="294.287109"/>
     <use xlink:href="#DejaVuSans-69" x="391.699219"/>
     <use xlink:href="#DejaVuSans-52" x="419.482422"/>
     <use xlink:href="#DejaVuSans-2d" x="484.964844"/>
     <use xlink:href="#DejaVuSans-35" x="521.048828"/>
     <use xlink:href="#DejaVuSans-30" x="584.671875"/>
     <use xlink:href="#DejaVuSans-33" x="648.294922"/>
     <use xlink:href="#DejaVuSans-2d" x="711.917969"/>
     <use xlink:href="#DejaVuSans-35" x="748.001953"/>
     <use xlink:href="#DejaVuSans-70" x="811.625"/>
    </g>
    <!--  -->
    <g transform="translate(416.151638 206.142745) scale(0.06 -0.06)"/>
   </g>
   <g id="text_4">
    <!-- 26 -->
    <g transform="translate(335.818528 422.297266) scale(0.06 -0.06)">
     <defs>
      <path id="DejaVuSans-36" d="M 2113 2584 
Q 1688 2584 1439 2293 
Q 1191 2003 1191 1497 
Q 1191 994 1439 701 
Q 1688 409 2113 409 
Q 2538 409 2786 701 
Q 3034 994 3034 1497 
Q 3034 2003 2786 2293 
Q 2538 2584 2113 2584 
z
M 3366 4563 
L 3366 3988 
Q 3128 4100 2886 4159 
Q 2644 4219 2406 4219 
Q 1781 4219 1451 3797 
Q 1122 3375 1075 2522 
Q 1259 2794 1537 2939 
Q 1816 3084 2150 3084 
Q 2853 3084 3261 2657 
Q 3669 2231 3669 1497 
Q 3669 778 3244 343 
Q 2819 -91 2113 -91 
Q 1303 -91 875 529 
Q 447 1150 447 2328 
Q 447 3434 972 4092 
Q 1497 4750 2381 4750 
Q 2619 4750 2861 4703 
Q 3103 4656 3366 4563 
z
" transform="scale(0.015625)"/>
     </defs>
     <use xlink:href="#DejaVuSans-32"/>
     <use xlink:href="#DejaVuSans-36" x="63.623047"/>
    </g>
   </g>
   <g id="text_5">
    <!-- mmu-miR-199a-5p -->
    <g transform="translate(294.527085 237.192476) scale(0.06 -0.06)">
     <defs>
      <path id="DejaVuSans-39" d="M 703 97 
L 703 672 
Q 941 559 1184 500 
Q 1428 441 1663 441 
Q 2288 441 2617 861 
Q 2947 1281 2994 2138 
Q 2813 1869 2534 1725 
Q 2256 1581 1919 1581 
Q 1219 1581 811 2004 
Q 403 2428 403 3163 
Q 403 3881 828 4315 
Q 1253 4750 1959 4750 
Q 2769 4750 3195 4129 
Q 3622 3509 3622 2328 
Q 3622 1225 3098 567 
Q 2575 -91 1691 -91 
Q 1453 -91 1209 -44 
Q 966 3 703 97 
z
M 1959 2075 
Q 2384 2075 2632 2365 
Q 2881 2656 2881 3163 
Q 2881 3666 2632 3958 
Q 2384 4250 1959 4250 
Q 1534 4250 1286 3958 
Q 1038 3666 1038 3163 
Q 1038 2656 1286 2365 
Q 1534 2075 1959 2075 
z
" transform="scale(0.015625)"/>
     </defs>
     <use xlink:href="#DejaVuSans-6d"/>
     <use xlink:href="#DejaVuSans-6d" x="97.412109"/>
     <use xlink:href="#DejaVuSans-75" x="194.824219"/>
     <use xlink:href="#DejaVuSans-2d" x="258.203125"/>
     <use xlink:href="#DejaVuSans-6d" x="294.287109"/>
     <use xlink:href="#DejaVuSans-69" x="391.699219"/>
     <use xlink:href="#DejaVuSans-52" x="419.482422"/>
     <use xlink:href="#DejaVuSans-2d" x="484.964844"/>
     <use xlink:href="#DejaVuSans-31" x="521.048828"/>
     <use xlink:href="#DejaVuSans-39" x="584.671875"/>
     <use xlink:href="#DejaVuSans-39" x="648.294922"/>
     <use xlink:href="#DejaVuSans-61" x="711.917969"/>
     <use xlink:href="#DejaVuSans-2d" x="773.197266"/>
     <use xlink:href="#DejaVuSans-35" x="809.28125"/>
     <use xlink:href="#DejaVuSans-70" x="872.904297"/>
    </g>
    <!-- mmu-miR-145a-3p -->
    <g transform="translate(294.527085 243.911164) scale(0.06 -0.06)">
     <use xlink:href="#DejaVuSans-6d"/>
     <use xlink:href="#DejaVuSans-6d" x="97.412109"/>
     <use xlink:href="#DejaVuSans-75" x="194.824219"/>
     <use xlink:href="#DejaVuSans-2d" x="258.203125"/>
     <use xlink:href="#DejaVuSans-6d" x="294.287109"/>
     <use xlink:href="#DejaVuSans-69" x="391.699219"/>
     <use xlink:href="#DejaVuSans-52" x="419.482422"/>
     <use xlink:href="#DejaVuSans-2d" x="484.964844"/>
     <use xlink:href="#DejaVuSans-31" x="521.048828"/>
     <use xlink:href="#DejaVuSans-34" x="584.671875"/>
     <use xlink:href="#DejaVuSans-35" x="648.294922"/>
     <use xlink:href="#DejaVuSans-61" x="711.917969"/>
     <use xlink:href="#DejaVuSans-2d" x="773.197266"/>
     <use xlink:href="#DejaVuSans-33" x="809.28125"/>
     <use xlink:href="#DejaVuSans-70" x="872.904297"/>
    </g>
    <!-- mmu-miR-200b-3p -->
    <g transform="translate(294.460992 250.629851) scale(0.06 -0.06)">
     <defs>
      <path id="DejaVuSans-62" d="M 3116 1747 
Q 3116 2381 2855 2742 
Q 2594 3103 2138 3103 
Q 1681 3103 1420 2742 
Q 1159 2381 1159 1747 
Q 1159 1113 1420 752 
Q 1681 391 2138 391 
Q 2594 391 2855 752 
Q 3116 1113 3116 1747 
z
M 1159 2969 
Q 1341 3281 1617 3432 
Q 1894 3584 2278 3584 
Q 2916 3584 3314 3078 
Q 3713 2572 3713 1747 
Q 3713 922 3314 415 
Q 2916 -91 2278 -91 
Q 1894 -91 1617 61 
Q 1341 213 1159 525 
L 1159 0 
L 581 0 
L 581 4863 
L 1159 4863 
L 1159 2969 
z
" transform="scale(0.015625)"/>
     </defs>
     <use xlink:href="#DejaVuSans-6d"/>
     <use xlink:href="#DejaVuSans-6d" x="97.412109"/>
     <use xlink:href="#DejaVuSans-75" x="194.824219"/>
     <use xlink:href="#DejaVuSans-2d" x="258.203125"/>
     <use xlink:href="#DejaVuSans-6d" x="294.287109"/>
     <use xlink:href="#DejaVuSans-69" x="391.699219"/>
     <use xlink:href="#DejaVuSans-52" x="419.482422"/>
     <use xlink:href="#DejaVuSans-2d" x="484.964844"/>
     <use xlink:href="#DejaVuSans-32" x="521.048828"/>
     <use xlink:href="#DejaVuSans-30" x="584.671875"/>
     <use xlink:href="#DejaVuSans-30" x="648.294922"/>
     <use xlink:href="#DejaVuSans-62" x="711.917969"/>
     <use xlink:href="#DejaVuSans-2d" x="775.394531"/>
     <use xlink:href="#DejaVuSans-33" x="811.478516"/>
     <use xlink:href="#DejaVuSans-70" x="875.101562"/>
    </g>
    <!-- mmu-miR-203-3p -->
    <g transform="translate(296.365523 257.348539) scale(0.06 -0.06)">
     <use xlink:href="#DejaVuSans-6d"/>
     <use xlink:href="#DejaVuSans-6d" x="97.412109"/>
     <use xlink:href="#DejaVuSans-75" x="194.824219"/>
     <use xlink:href="#DejaVuSans-2d" x="258.203125"/>
     <use xlink:href="#DejaVuSans-6d" x="294.287109"/>
     <use xlink:href="#DejaVuSans-69" x="391.699219"/>
     <use xlink:href="#DejaVuSans-52" x="419.482422"/>
     <use xlink:href="#DejaVuSans-2d" x="484.964844"/>
     <use xlink:href="#DejaVuSans-32" x="521.048828"/>
     <use xlink:href="#DejaVuSans-30" x="584.671875"/>
     <use xlink:href="#DejaVuSans-33" x="648.294922"/>
     <use xlink:href="#DejaVuSans-2d" x="711.917969"/>
     <use xlink:href="#DejaVuSans-33" x="748.001953"/>
     <use xlink:href="#DejaVuSans-70" x="811.625"/>
    </g>
    <!-- mmu-miR-143-3p -->
    <g transform="translate(296.365523 264.067226) scale(0.06 -0.06)">
     <use xlink:href="#DejaVuSans-6d"/>
     <use xlink:href="#DejaVuSans-6d" x="97.412109"/>
     <use xlink:href="#DejaVuSans-75" x="194.824219"/>
     <use xlink:href="#DejaVuSans-2d" x="258.203125"/>
     <use xlink:href="#DejaVuSans-6d" x="294.287109"/>
     <use xlink:href="#DejaVuSans-69" x="391.699219"/>
     <use xlink:href="#DejaVuSans-52" x="419.482422"/>
     <use xlink:href="#DejaVuSans-2d" x="484.964844"/>
     <use xlink:href="#DejaVuSans-31" x="521.048828"/>
     <use xlink:href="#DejaVuSans-34" x="584.671875"/>
     <use xlink:href="#DejaVuSans-33" x="648.294922"/>
     <use xlink:href="#DejaVuSans-2d" x="711.917969"/>
     <use xlink:href="#DejaVuSans-33" x="748.001953"/>
     <use xlink:href="#DejaVuSans-70" x="811.625"/>
    </g>
    <!-- mmu-miR-143-5p -->
    <g transform="translate(296.365523 270.785914) scale(0.06 -0.06)">
     <use xlink:href="#DejaVuSans-6d"/>
     <use xlink:href="#DejaVuSans-6d" x="97.412109"/>
     <use xlink:href="#DejaVuSans-75" x="194.824219"/>
     <use xlink:href="#DejaVuSans-2d" x="258.203125"/>
     <use xlink:href="#DejaVuSans-6d" x="294.287109"/>
     <use xlink:href="#DejaVuSans-69" x="391.699219"/>
     <use xlink:href="#DejaVuSans-52" x="419.482422"/>
     <use xlink:href="#DejaVuSans-2d" x="484.964844"/>
     <use xlink:href="#DejaVuSans-31" x="521.048828"/>
     <use xlink:href="#DejaVuSans-34" x="584.671875"/>
     <use xlink:href="#DejaVuSans-33" x="648.294922"/>
     <use xlink:href="#DejaVuSans-2d" x="711.917969"/>
     <use xlink:href="#DejaVuSans-35" x="748.001953"/>
     <use xlink:href="#DejaVuSans-70" x="811.625"/>
    </g>
    <!-- mmu-miR-31-5p -->
    <g transform="translate(298.274273 277.504601) scale(0.06 -0.06)">
     <use xlink:href="#DejaVuSans-6d"/>
     <use xlink:href="#DejaVuSans-6d" x="97.412109"/>
     <use xlink:href="#DejaVuSans-75" x="194.824219"/>
     <use xlink:href="#DejaVuSans-2d" x="258.203125"/>
     <use xlink:href="#DejaVuSans-6d" x="294.287109"/>
     <use xlink:href="#DejaVuSans-69" x="391.699219"/>
     <use xlink:href="#DejaVuSans-52" x="419.482422"/>
     <use xlink:href="#DejaVuSans-2d" x="484.964844"/>
     <use xlink:href="#DejaVuSans-33" x="521.048828"/>
     <use xlink:href="#DejaVuSans-31" x="584.671875"/>
     <use xlink:href="#DejaVuSans-2d" x="648.294922"/>
     <use xlink:href="#DejaVuSans-35" x="684.378906"/>
     <use xlink:href="#DejaVuSans-70" x="748.001953"/>
    </g>
    <!-- mmu-miR-140-3p -->
    <g transform="translate(296.365523 284.223289) scale(0.06 -0.06)">
     <use xlink:href="#DejaVuSans-6d"/>
     <use xlink:href="#DejaVuSans-6d" x="97.412109"/>
     <use xlink:href="#DejaVuSans-75" x="194.824219"/>
     <use xlink:href="#DejaVuSans-2d" x="258.203125"/>
     <use xlink:href="#DejaVuSans-6d" x="294.287109"/>
     <use xlink:href="#DejaVuSans-69" x="391.699219"/>
     <use xlink:href="#DejaVuSans-52" x="419.482422"/>
     <use xlink:href="#DejaVuSans-2d" x="484.964844"/>
     <use xlink:href="#DejaVuSans-31" x="521.048828"/>
     <use xlink:href="#DejaVuSans-34" x="584.671875"/>
     <use xlink:href="#DejaVuSans-30" x="648.294922"/>
     <use xlink:href="#DejaVuSans-2d" x="711.917969"/>
     <use xlink:href="#DejaVuSans-33" x="748.001953"/>
     <use xlink:href="#DejaVuSans-70" x="811.625"/>
    </g>
    <!-- mmu-miR-199a-3p -->
    <g transform="translate(294.527085 290.941976) scale(0.06 -0.06)">
     <use xlink:href="#DejaVuSans-6d"/>
     <use xlink:href="#DejaVuSans-6d" x="97.412109"/>
     <use xlink:href="#DejaVuSans-75" x="194.824219"/>
     <use xlink:href="#DejaVuSans-2d" x="258.203125"/>
     <use xlink:href="#DejaVuSans-6d" x="294.287109"/>
     <use xlink:href="#DejaVuSans-69" x="391.699219"/>
     <use xlink:href="#DejaVuSans-52" x="419.482422"/>
     <use xlink:href="#DejaVuSans-2d" x="484.964844"/>
     <use xlink:href="#DejaVuSans-31" x="521.048828"/>
     <use xlink:href="#DejaVuSans-39" x="584.671875"/>
     <use xlink:href="#DejaVuSans-39" x="648.294922"/>
     <use xlink:href="#DejaVuSans-61" x="711.917969"/>
     <use xlink:href="#DejaVuSans-2d" x="773.197266"/>
     <use xlink:href="#DejaVuSans-33" x="809.28125"/>
     <use xlink:href="#DejaVuSans-70" x="872.904297"/>
    </g>
    <!-- mmu-miR-199b-3p -->
    <g transform="translate(294.460992 297.660664) scale(0.06 -0.06)">
     <use xlink:href="#DejaVuSans-6d"/>
     <use xlink:href="#DejaVuSans-6d" x="97.412109"/>
     <use xlink:href="#DejaVuSans-75" x="194.824219"/>
     <use xlink:href="#DejaVuSans-2d" x="258.203125"/>
     <use xlink:href="#DejaVuSans-6d" x="294.287109"/>
     <use xlink:href="#DejaVuSans-69" x="391.699219"/>
     <use xlink:href="#DejaVuSans-52" x="419.482422"/>
     <use xlink:href="#DejaVuSans-2d" x="484.964844"/>
     <use xlink:href="#DejaVuSans-31" x="521.048828"/>
     <use xlink:href="#DejaVuSans-39" x="584.671875"/>
     <use xlink:href="#DejaVuSans-39" x="648.294922"/>
     <use xlink:href="#DejaVuSans-62" x="711.917969"/>
     <use xlink:href="#DejaVuSans-2d" x="775.394531"/>
     <use xlink:href="#DejaVuSans-33" x="811.478516"/>
     <use xlink:href="#DejaVuSans-70" x="875.101562"/>
    </g>
    <!-- mmu-miR-214-3p -->
    <g transform="translate(296.365523 304.379351) scale(0.06 -0.06)">
     <use xlink:href="#DejaVuSans-6d"/>
     <use xlink:href="#DejaVuSans-6d" x="97.412109"/>
     <use xlink:href="#DejaVuSans-75" x="194.824219"/>
     <use xlink:href="#DejaVuSans-2d" x="258.203125"/>
     <use xlink:href="#DejaVuSans-6d" x="294.287109"/>
     <use xlink:href="#DejaVuSans-69" x="391.699219"/>
     <use xlink:href="#DejaVuSans-52" x="419.482422"/>
     <use xlink:href="#DejaVuSans-2d" x="484.964844"/>
     <use xlink:href="#DejaVuSans-32" x="521.048828"/>
     <use xlink:href="#DejaVuSans-31" x="584.671875"/>
     <use xlink:href="#DejaVuSans-34" x="648.294922"/>
     <use xlink:href="#DejaVuSans-2d" x="711.917969"/>
     <use xlink:href="#DejaVuSans-33" x="748.001953"/>
     <use xlink:href="#DejaVuSans-70" x="811.625"/>
    </g>
    <!-- mmu-miR-214-5p -->
    <g transform="translate(296.365523 311.098039) scale(0.06 -0.06)">
     <use xlink:href="#DejaVuSans-6d"/>
     <use xlink:href="#DejaVuSans-6d" x="97.412109"/>
     <use xlink:href="#DejaVuSans-75" x="194.824219"/>
     <use xlink:href="#DejaVuSans-2d" x="258.203125"/>
     <use xlink:href="#DejaVuSans-6d" x="294.287109"/>
     <use xlink:href="#DejaVuSans-69" x="391.699219"/>
     <use xlink:href="#DejaVuSans-52" x="419.482422"/>
     <use xlink:href="#DejaVuSans-2d" x="484.964844"/>
     <use xlink:href="#DejaVuSans-32" x="521.048828"/>
     <use xlink:href="#DejaVuSans-31" x="584.671875"/>
     <use xlink:href="#DejaVuSans-34" x="648.294922"/>
     <use xlink:href="#DejaVuSans-2d" x="711.917969"/>
     <use xlink:href="#DejaVuSans-35" x="748.001953"/>
     <use xlink:href="#DejaVuSans-70" x="811.625"/>
    </g>
    <!-- mmu-miR-148a-5p -->
    <g transform="translate(294.527085 317.816726) scale(0.06 -0.06)">
     <defs>
      <path id="DejaVuSans-38" d="M 2034 2216 
Q 1584 2216 1326 1975 
Q 1069 1734 1069 1313 
Q 1069 891 1326 650 
Q 1584 409 2034 409 
Q 2484 409 2743 651 
Q 3003 894 3003 1313 
Q 3003 1734 2745 1975 
Q 2488 2216 2034 2216 
z
M 1403 2484 
Q 997 2584 770 2862 
Q 544 3141 544 3541 
Q 544 4100 942 4425 
Q 1341 4750 2034 4750 
Q 2731 4750 3128 4425 
Q 3525 4100 3525 3541 
Q 3525 3141 3298 2862 
Q 3072 2584 2669 2484 
Q 3125 2378 3379 2068 
Q 3634 1759 3634 1313 
Q 3634 634 3220 271 
Q 2806 -91 2034 -91 
Q 1263 -91 848 271 
Q 434 634 434 1313 
Q 434 1759 690 2068 
Q 947 2378 1403 2484 
z
M 1172 3481 
Q 1172 3119 1398 2916 
Q 1625 2713 2034 2713 
Q 2441 2713 2670 2916 
Q 2900 3119 2900 3481 
Q 2900 3844 2670 4047 
Q 2441 4250 2034 4250 
Q 1625 4250 1398 4047 
Q 1172 3844 1172 3481 
z
" transform="scale(0.015625)"/>
     </defs>
     <use xlink:href="#DejaVuSans-6d"/>
     <use xlink:href="#DejaVuSans-6d" x="97.412109"/>
     <use xlink:href="#DejaVuSans-75" x="194.824219"/>
     <use xlink:href="#DejaVuSans-2d" x="258.203125"/>
     <use xlink:href="#DejaVuSans-6d" x="294.287109"/>
     <use xlink:href="#DejaVuSans-69" x="391.699219"/>
     <use xlink:href="#DejaVuSans-52" x="419.482422"/>
     <use xlink:href="#DejaVuSans-2d" x="484.964844"/>
     <use xlink:href="#DejaVuSans-31" x="521.048828"/>
     <use xlink:href="#DejaVuSans-34" x="584.671875"/>
     <use xlink:href="#DejaVuSans-38" x="648.294922"/>
     <use xlink:href="#DejaVuSans-61" x="711.917969"/>
     <use xlink:href="#DejaVuSans-2d" x="773.197266"/>
     <use xlink:href="#DejaVuSans-35" x="809.28125"/>
     <use xlink:href="#DejaVuSans-70" x="872.904297"/>
    </g>
    <!-- mmu-miR-376a-3p -->
    <g transform="translate(294.527085 324.535414) scale(0.06 -0.06)">
     <defs>
      <path id="DejaVuSans-37" d="M 525 4666 
L 3525 4666 
L 3525 4397 
L 1831 0 
L 1172 0 
L 2766 4134 
L 525 4134 
L 525 4666 
z
" transform="scale(0.015625)"/>
     </defs>
     <use xlink:href="#DejaVuSans-6d"/>
     <use xlink:href="#DejaVuSans-6d" x="97.412109"/>
     <use xlink:href="#DejaVuSans-75" x="194.824219"/>
     <use xlink:href="#DejaVuSans-2d" x="258.203125"/>
     <use xlink:href="#DejaVuSans-6d" x="294.287109"/>
     <use xlink:href="#DejaVuSans-69" x="391.699219"/>
     <use xlink:href="#DejaVuSans-52" x="419.482422"/>
     <use xlink:href="#DejaVuSans-2d" x="484.964844"/>
     <use xlink:href="#DejaVuSans-33" x="521.048828"/>
     <use xlink:href="#DejaVuSans-37" x="584.671875"/>
     <use xlink:href="#DejaVuSans-36" x="648.294922"/>
     <use xlink:href="#DejaVuSans-61" x="711.917969"/>
     <use xlink:href="#DejaVuSans-2d" x="773.197266"/>
     <use xlink:href="#DejaVuSans-33" x="809.28125"/>
     <use xlink:href="#DejaVuSans-70" x="872.904297"/>
    </g>
    <!-- mmu-miR-200a-3p -->
    <g transform="translate(294.527085 331.254101) scale(0.06 -0.06)">
     <use xlink:href="#DejaVuSans-6d"/>
     <use xlink:href="#DejaVuSans-6d" x="97.412109"/>
     <use xlink:href="#DejaVuSans-75" x="194.824219"/>
     <use xlink:href="#DejaVuSans-2d" x="258.203125"/>
     <use xlink:href="#DejaVuSans-6d" x="294.287109"/>
     <use xlink:href="#DejaVuSans-69" x="391.699219"/>
     <use xlink:href="#DejaVuSans-52" x="419.482422"/>
     <use xlink:href="#DejaVuSans-2d" x="484.964844"/>
     <use xlink:href="#DejaVuSans-32" x="521.048828"/>
     <use xlink:href="#DejaVuSans-30" x="584.671875"/>
     <use xlink:href="#DejaVuSans-30" x="648.294922"/>
     <use xlink:href="#DejaVuSans-61" x="711.917969"/>
     <use xlink:href="#DejaVuSans-2d" x="773.197266"/>
     <use xlink:href="#DejaVuSans-33" x="809.28125"/>
     <use xlink:href="#DejaVuSans-70" x="872.904297"/>
    </g>
    <!-- mmu-miR-133a-3p -->
    <g transform="translate(294.527085 337.972789) scale(0.06 -0.06)">
     <use xlink:href="#DejaVuSans-6d"/>
     <use xlink:href="#DejaVuSans-6d" x="97.412109"/>
     <use xlink:href="#DejaVuSans-75" x="194.824219"/>
     <use xlink:href="#DejaVuSans-2d" x="258.203125"/>
     <use xlink:href="#DejaVuSans-6d" x="294.287109"/>
     <use xlink:href="#DejaVuSans-69" x="391.699219"/>
     <use xlink:href="#DejaVuSans-52" x="419.482422"/>
     <use xlink:href="#DejaVuSans-2d" x="484.964844"/>
     <use xlink:href="#DejaVuSans-31" x="521.048828"/>
     <use xlink:href="#DejaVuSans-33" x="584.671875"/>
     <use xlink:href="#DejaVuSans-33" x="648.294922"/>
     <use xlink:href="#DejaVuSans-61" x="711.917969"/>
     <use xlink:href="#DejaVuSans-2d" x="773.197266"/>
     <use xlink:href="#DejaVuSans-33" x="809.28125"/>
     <use xlink:href="#DejaVuSans-70" x="872.904297"/>
    </g>
    <!-- mmu-miR-145a-5p -->
    <g transform="translate(294.527085 344.691476) scale(0.06 -0.06)">
     <use xlink:href="#DejaVuSans-6d"/>
     <use xlink:href="#DejaVuSans-6d" x="97.412109"/>
     <use xlink:href="#DejaVuSans-75" x="194.824219"/>
     <use xlink:href="#DejaVuSans-2d" x="258.203125"/>
     <use xlink:href="#DejaVuSans-6d" x="294.287109"/>
     <use xlink:href="#DejaVuSans-69" x="391.699219"/>
     <use xlink:href="#DejaVuSans-52" x="419.482422"/>
     <use xlink:href="#DejaVuSans-2d" x="484.964844"/>
     <use xlink:href="#DejaVuSans-31" x="521.048828"/>
     <use xlink:href="#DejaVuSans-34" x="584.671875"/>
     <use xlink:href="#DejaVuSans-35" x="648.294922"/>
     <use xlink:href="#DejaVuSans-61" x="711.917969"/>
     <use xlink:href="#DejaVuSans-2d" x="773.197266"/>
     <use xlink:href="#DejaVuSans-35" x="809.28125"/>
     <use xlink:href="#DejaVuSans-70" x="872.904297"/>
    </g>
    <!--  -->
    <g transform="translate(322.617867 351.410164) scale(0.06 -0.06)"/>
   </g>
   <g id="text_6">
    <!-- mmu-miR-20a-5p -->
    <g transform="translate(439.779477 279.856376) scale(0.06 -0.06)">
     <use xlink:href="#DejaVuSans-6d"/>
     <use xlink:href="#DejaVuSans-6d" x="97.412109"/>
     <use xlink:href="#DejaVuSans-75" x="194.824219"/>
     <use xlink:href="#DejaVuSans-2d" x="258.203125"/>
     <use xlink:href="#DejaVuSans-6d" x="294.287109"/>
     <use xlink:href="#DejaVuSans-69" x="391.699219"/>
     <use xlink:href="#DejaVuSans-52" x="419.482422"/>
     <use xlink:href="#DejaVuSans-2d" x="484.964844"/>
     <use xlink:href="#DejaVuSans-32" x="521.048828"/>
     <use xlink:href="#DejaVuSans-30" x="584.671875"/>
     <use xlink:href="#DejaVuSans-61" x="648.294922"/>
     <use xlink:href="#DejaVuSans-2d" x="709.574219"/>
     <use xlink:href="#DejaVuSans-35" x="745.658203"/>
     <use xlink:href="#DejaVuSans-70" x="809.28125"/>
    </g>
    <!-- mmu-miR-223-3p -->
    <g transform="translate(439.709164 286.575064) scale(0.06 -0.06)">
     <use xlink:href="#DejaVuSans-6d"/>
     <use xlink:href="#DejaVuSans-6d" x="97.412109"/>
     <use xlink:href="#DejaVuSans-75" x="194.824219"/>
     <use xlink:href="#DejaVuSans-2d" x="258.203125"/>
     <use xlink:href="#DejaVuSans-6d" x="294.287109"/>
     <use xlink:href="#DejaVuSans-69" x="391.699219"/>
     <use xlink:href="#DejaVuSans-52" x="419.482422"/>
     <use xlink:href="#DejaVuSans-2d" x="484.964844"/>
     <use xlink:href="#DejaVuSans-32" x="521.048828"/>
     <use xlink:href="#DejaVuSans-32" x="584.671875"/>
     <use xlink:href="#DejaVuSans-33" x="648.294922"/>
     <use xlink:href="#DejaVuSans-2d" x="711.917969"/>
     <use xlink:href="#DejaVuSans-33" x="748.001953"/>
     <use xlink:href="#DejaVuSans-70" x="811.625"/>
    </g>
    <!-- mmu-miR-17-5p -->
    <g transform="translate(441.617914 293.293751) scale(0.06 -0.06)">
     <use xlink:href="#DejaVuSans-6d"/>
     <use xlink:href="#DejaVuSans-6d" x="97.412109"/>
     <use xlink:href="#DejaVuSans-75" x="194.824219"/>
     <use xlink:href="#DejaVuSans-2d" x="258.203125"/>
     <use xlink:href="#DejaVuSans-6d" x="294.287109"/>
     <use xlink:href="#DejaVuSans-69" x="391.699219"/>
     <use xlink:href="#DejaVuSans-52" x="419.482422"/>
     <use xlink:href="#DejaVuSans-2d" x="484.964844"/>
     <use xlink:href="#DejaVuSans-31" x="521.048828"/>
     <use xlink:href="#DejaVuSans-37" x="584.671875"/>
     <use xlink:href="#DejaVuSans-2d" x="648.294922"/>
     <use xlink:href="#DejaVuSans-35" x="684.378906"/>
     <use xlink:href="#DejaVuSans-70" x="748.001953"/>
    </g>
    <!-- mmu-miR-142a-5p -->
    <g transform="translate(437.870727 300.012439) scale(0.06 -0.06)">
     <use xlink:href="#DejaVuSans-6d"/>
     <use xlink:href="#DejaVuSans-6d" x="97.412109"/>
     <use xlink:href="#DejaVuSans-75" x="194.824219"/>
     <use xlink:href="#DejaVuSans-2d" x="258.203125"/>
     <use xlink:href="#DejaVuSans-6d" x="294.287109"/>
     <use xlink:href="#DejaVuSans-69" x="391.699219"/>
     <use xlink:href="#DejaVuSans-52" x="419.482422"/>
     <use xlink:href="#DejaVuSans-2d" x="484.964844"/>
     <use xlink:href="#DejaVuSans-31" x="521.048828"/>
     <use xlink:href="#DejaVuSans-34" x="584.671875"/>
     <use xlink:href="#DejaVuSans-32" x="648.294922"/>
     <use xlink:href="#DejaVuSans-61" x="711.917969"/>
     <use xlink:href="#DejaVuSans-2d" x="773.197266"/>
     <use xlink:href="#DejaVuSans-35" x="809.28125"/>
     <use xlink:href="#DejaVuSans-70" x="872.904297"/>
    </g>
    <!-- mmu-miR-150-5p -->
    <g transform="translate(439.709164 306.731126) scale(0.06 -0.06)">
     <use xlink:href="#DejaVuSans-6d"/>
     <use xlink:href="#DejaVuSans-6d" x="97.412109"/>
     <use xlink:href="#DejaVuSans-75" x="194.824219"/>
     <use xlink:href="#DejaVuSans-2d" x="258.203125"/>
     <use xlink:href="#DejaVuSans-6d" x="294.287109"/>
     <use xlink:href="#DejaVuSans-69" x="391.699219"/>
     <use xlink:href="#DejaVuSans-52" x="419.482422"/>
     <use xlink:href="#DejaVuSans-2d" x="484.964844"/>
     <use xlink:href="#DejaVuSans-31" x="521.048828"/>
     <use xlink:href="#DejaVuSans-35" x="584.671875"/>
     <use xlink:href="#DejaVuSans-30" x="648.294922"/>
     <use xlink:href="#DejaVuSans-2d" x="711.917969"/>
     <use xlink:href="#DejaVuSans-35" x="748.001953"/>
     <use xlink:href="#DejaVuSans-70" x="811.625"/>
    </g>
    <!-- mmu-miR-146a-5p -->
    <g transform="translate(437.870727 313.449814) scale(0.06 -0.06)">
     <use xlink:href="#DejaVuSans-6d"/>
     <use xlink:href="#DejaVuSans-6d" x="97.412109"/>
     <use xlink:href="#DejaVuSans-75" x="194.824219"/>
     <use xlink:href="#DejaVuSans-2d" x="258.203125"/>
     <use xlink:href="#DejaVuSans-6d" x="294.287109"/>
     <use xlink:href="#DejaVuSans-69" x="391.699219"/>
     <use xlink:href="#DejaVuSans-52" x="419.482422"/>
     <use xlink:href="#DejaVuSans-2d" x="484.964844"/>
     <use xlink:href="#DejaVuSans-31" x="521.048828"/>
     <use xlink:href="#DejaVuSans-34" x="584.671875"/>
     <use xlink:href="#DejaVuSans-36" x="648.294922"/>
     <use xlink:href="#DejaVuSans-61" x="711.917969"/>
     <use xlink:href="#DejaVuSans-2d" x="773.197266"/>
     <use xlink:href="#DejaVuSans-35" x="809.28125"/>
     <use xlink:href="#DejaVuSans-70" x="872.904297"/>
    </g>
    <!-- mmu-miR-146b-5p -->
    <g transform="translate(437.804633 320.168501) scale(0.06 -0.06)">
     <use xlink:href="#DejaVuSans-6d"/>
     <use xlink:href="#DejaVuSans-6d" x="97.412109"/>
     <use xlink:href="#DejaVuSans-75" x="194.824219"/>
     <use xlink:href="#DejaVuSans-2d" x="258.203125"/>
     <use xlink:href="#DejaVuSans-6d" x="294.287109"/>
     <use xlink:href="#DejaVuSans-69" x="391.699219"/>
     <use xlink:href="#DejaVuSans-52" x="419.482422"/>
     <use xlink:href="#DejaVuSans-2d" x="484.964844"/>
     <use xlink:href="#DejaVuSans-31" x="521.048828"/>
     <use xlink:href="#DejaVuSans-34" x="584.671875"/>
     <use xlink:href="#DejaVuSans-36" x="648.294922"/>
     <use xlink:href="#DejaVuSans-62" x="711.917969"/>
     <use xlink:href="#DejaVuSans-2d" x="775.394531"/>
     <use xlink:href="#DejaVuSans-35" x="811.478516"/>
     <use xlink:href="#DejaVuSans-70" x="875.101562"/>
    </g>
    <!-- mmu-miR-183-5p -->
    <g transform="translate(439.709164 326.887189) scale(0.06 -0.06)">
     <use xlink:href="#DejaVuSans-6d"/>
     <use xlink:href="#DejaVuSans-6d" x="97.412109"/>
     <use xlink:href="#DejaVuSans-75" x="194.824219"/>
     <use xlink:href="#DejaVuSans-2d" x="258.203125"/>
     <use xlink:href="#DejaVuSans-6d" x="294.287109"/>
     <use xlink:href="#DejaVuSans-69" x="391.699219"/>
     <use xlink:href="#DejaVuSans-52" x="419.482422"/>
     <use xlink:href="#DejaVuSans-2d" x="484.964844"/>
     <use xlink:href="#DejaVuSans-31" x="521.048828"/>
     <use xlink:href="#DejaVuSans-38" x="584.671875"/>
     <use xlink:href="#DejaVuSans-33" x="648.294922"/>
     <use xlink:href="#DejaVuSans-2d" x="711.917969"/>
     <use xlink:href="#DejaVuSans-35" x="748.001953"/>
     <use xlink:href="#DejaVuSans-70" x="811.625"/>
    </g>
    <!-- mmu-miR-15b-5p -->
    <g transform="translate(439.713383 333.605876) scale(0.06 -0.06)">
     <use xlink:href="#DejaVuSans-6d"/>
     <use xlink:href="#DejaVuSans-6d" x="97.412109"/>
     <use xlink:href="#DejaVuSans-75" x="194.824219"/>
     <use xlink:href="#DejaVuSans-2d" x="258.203125"/>
     <use xlink:href="#DejaVuSans-6d" x="294.287109"/>
     <use xlink:href="#DejaVuSans-69" x="391.699219"/>
     <use xlink:href="#DejaVuSans-52" x="419.482422"/>
     <use xlink:href="#DejaVuSans-2d" x="484.964844"/>
     <use xlink:href="#DejaVuSans-31" x="521.048828"/>
     <use xlink:href="#DejaVuSans-35" x="584.671875"/>
     <use xlink:href="#DejaVuSans-62" x="648.294922"/>
     <use xlink:href="#DejaVuSans-2d" x="711.771484"/>
     <use xlink:href="#DejaVuSans-35" x="747.855469"/>
     <use xlink:href="#DejaVuSans-70" x="811.478516"/>
    </g>
    <!-- mmu-miR-142a-3p -->
    <g transform="translate(437.870727 340.324564) scale(0.06 -0.06)">
     <use xlink:href="#DejaVuSans-6d"/>
     <use xlink:href="#DejaVuSans-6d" x="97.412109"/>
     <use xlink:href="#DejaVuSans-75" x="194.824219"/>
     <use xlink:href="#DejaVuSans-2d" x="258.203125"/>
     <use xlink:href="#DejaVuSans-6d" x="294.287109"/>
     <use xlink:href="#DejaVuSans-69" x="391.699219"/>
     <use xlink:href="#DejaVuSans-52" x="419.482422"/>
     <use xlink:href="#DejaVuSans-2d" x="484.964844"/>
     <use xlink:href="#DejaVuSans-31" x="521.048828"/>
     <use xlink:href="#DejaVuSans-34" x="584.671875"/>
     <use xlink:href="#DejaVuSans-32" x="648.294922"/>
     <use xlink:href="#DejaVuSans-61" x="711.917969"/>
     <use xlink:href="#DejaVuSans-2d" x="773.197266"/>
     <use xlink:href="#DejaVuSans-33" x="809.28125"/>
     <use xlink:href="#DejaVuSans-70" x="872.904297"/>
    </g>
    <!--  -->
    <g transform="translate(465.961508 347.043251) scale(0.06 -0.06)"/>
   </g>
   <g id="text_7">
    <!-- mmu-miR-21a-5p -->
    <g transform="translate(384.361586 247.56882) scale(0.06 -0.06)">
     <use xlink:href="#DejaVuSans-6d"/>
     <use xlink:href="#DejaVuSans-6d" x="97.412109"/>
     <use xlink:href="#DejaVuSans-75" x="194.824219"/>
     <use xlink:href="#DejaVuSans-2d" x="258.203125"/>
     <use xlink:href="#DejaVuSans-6d" x="294.287109"/>
     <use xlink:href="#DejaVuSans-69" x="391.699219"/>
     <use xlink:href="#DejaVuSans-52" x="419.482422"/>
     <use xlink:href="#DejaVuSans-2d" x="484.964844"/>
     <use xlink:href="#DejaVuSans-32" x="521.048828"/>
     <use xlink:href="#DejaVuSans-31" x="584.671875"/>
     <use xlink:href="#DejaVuSans-61" x="648.294922"/>
     <use xlink:href="#DejaVuSans-2d" x="709.574219"/>
     <use xlink:href="#DejaVuSans-35" x="745.658203"/>
     <use xlink:href="#DejaVuSans-70" x="809.28125"/>
    </g>
    <!-- mmu-miR-3473e -->
    <g transform="translate(385.432211 254.287507) scale(0.06 -0.06)">
     <defs>
      <path id="DejaVuSans-65" d="M 3597 1894 
L 3597 1613 
L 953 1613 
Q 991 1019 1311 708 
Q 1631 397 2203 397 
Q 2534 397 2845 478 
Q 3156 559 3463 722 
L 3463 178 
Q 3153 47 2828 -22 
Q 2503 -91 2169 -91 
Q 1331 -91 842 396 
Q 353 884 353 1716 
Q 353 2575 817 3079 
Q 1281 3584 2069 3584 
Q 2775 3584 3186 3129 
Q 3597 2675 3597 1894 
z
M 3022 2063 
Q 3016 2534 2758 2815 
Q 2500 3097 2075 3097 
Q 1594 3097 1305 2825 
Q 1016 2553 972 2059 
L 3022 2063 
z
" transform="scale(0.015625)"/>
     </defs>
     <use xlink:href="#DejaVuSans-6d"/>
     <use xlink:href="#DejaVuSans-6d" x="97.412109"/>
     <use xlink:href="#DejaVuSans-75" x="194.824219"/>
     <use xlink:href="#DejaVuSans-2d" x="258.203125"/>
     <use xlink:href="#DejaVuSans-6d" x="294.287109"/>
     <use xlink:href="#DejaVuSans-69" x="391.699219"/>
     <use xlink:href="#DejaVuSans-52" x="419.482422"/>
     <use xlink:href="#DejaVuSans-2d" x="484.964844"/>
     <use xlink:href="#DejaVuSans-33" x="521.048828"/>
     <use xlink:href="#DejaVuSans-34" x="584.671875"/>
     <use xlink:href="#DejaVuSans-37" x="648.294922"/>
     <use xlink:href="#DejaVuSans-33" x="711.917969"/>
     <use xlink:href="#DejaVuSans-65" x="775.541016"/>
    </g>
    <!-- mmu-miR-155-5p -->
    <g transform="translate(384.291273 261.006195) scale(0.06 -0.06)">
     <use xlink:href="#DejaVuSans-6d"/>
     <use xlink:href="#DejaVuSans-6d" x="97.412109"/>
     <use xlink:href="#DejaVuSans-75" x="194.824219"/>
     <use xlink:href="#DejaVuSans-2d" x="258.203125"/>
     <use xlink:href="#DejaVuSans-6d" x="294.287109"/>
     <use xlink:href="#DejaVuSans-69" x="391.699219"/>
     <use xlink:href="#DejaVuSans-52" x="419.482422"/>
     <use xlink:href="#DejaVuSans-2d" x="484.964844"/>
     <use xlink:href="#DejaVuSans-31" x="521.048828"/>
     <use xlink:href="#DejaVuSans-35" x="584.671875"/>
     <use xlink:href="#DejaVuSans-35" x="648.294922"/>
     <use xlink:href="#DejaVuSans-2d" x="711.917969"/>
     <use xlink:href="#DejaVuSans-35" x="748.001953"/>
     <use xlink:href="#DejaVuSans-70" x="811.625"/>
    </g>
    <!-- mmu-miR-200c-3p -->
    <g transform="translate(382.641742 267.724882) scale(0.06 -0.06)">
     <defs>
      <path id="DejaVuSans-63" d="M 3122 3366 
L 3122 2828 
Q 2878 2963 2633 3030 
Q 2388 3097 2138 3097 
Q 1578 3097 1268 2742 
Q 959 2388 959 1747 
Q 959 1106 1268 751 
Q 1578 397 2138 397 
Q 2388 397 2633 464 
Q 2878 531 3122 666 
L 3122 134 
Q 2881 22 2623 -34 
Q 2366 -91 2075 -91 
Q 1284 -91 818 406 
Q 353 903 353 1747 
Q 353 2603 823 3093 
Q 1294 3584 2113 3584 
Q 2378 3584 2631 3529 
Q 2884 3475 3122 3366 
z
" transform="scale(0.015625)"/>
     </defs>
     <use xlink:href="#DejaVuSans-6d"/>
     <use xlink:href="#DejaVuSans-6d" x="97.412109"/>
     <use xlink:href="#DejaVuSans-75" x="194.824219"/>
     <use xlink:href="#DejaVuSans-2d" x="258.203125"/>
     <use xlink:href="#DejaVuSans-6d" x="294.287109"/>
     <use xlink:href="#DejaVuSans-69" x="391.699219"/>
     <use xlink:href="#DejaVuSans-52" x="419.482422"/>
     <use xlink:href="#DejaVuSans-2d" x="484.964844"/>
     <use xlink:href="#DejaVuSans-32" x="521.048828"/>
     <use xlink:href="#DejaVuSans-30" x="584.671875"/>
     <use xlink:href="#DejaVuSans-30" x="648.294922"/>
     <use xlink:href="#DejaVuSans-63" x="711.917969"/>
     <use xlink:href="#DejaVuSans-2d" x="766.898438"/>
     <use xlink:href="#DejaVuSans-33" x="802.982422"/>
     <use xlink:href="#DejaVuSans-70" x="866.605469"/>
    </g>
    <!-- mmu-miR-206-3p -->
    <g transform="translate(384.291273 274.44357) scale(0.06 -0.06)">
     <use xlink:href="#DejaVuSans-6d"/>
     <use xlink:href="#DejaVuSans-6d" x="97.412109"/>
     <use xlink:href="#DejaVuSans-75" x="194.824219"/>
     <use xlink:href="#DejaVuSans-2d" x="258.203125"/>
     <use xlink:href="#DejaVuSans-6d" x="294.287109"/>
     <use xlink:href="#DejaVuSans-69" x="391.699219"/>
     <use xlink:href="#DejaVuSans-52" x="419.482422"/>
     <use xlink:href="#DejaVuSans-2d" x="484.964844"/>
     <use xlink:href="#DejaVuSans-32" x="521.048828"/>
     <use xlink:href="#DejaVuSans-30" x="584.671875"/>
     <use xlink:href="#DejaVuSans-36" x="648.294922"/>
     <use xlink:href="#DejaVuSans-2d" x="711.917969"/>
     <use xlink:href="#DejaVuSans-33" x="748.001953"/>
     <use xlink:href="#DejaVuSans-70" x="811.625"/>
    </g>
    <!-- mmu-miR-1a-3p -->
    <g transform="translate(386.270336 281.162257) scale(0.06 -0.06)">
     <use xlink:href="#DejaVuSans-6d"/>
     <use xlink:href="#DejaVuSans-6d" x="97.412109"/>
     <use xlink:href="#DejaVuSans-75" x="194.824219"/>
     <use xlink:href="#DejaVuSans-2d" x="258.203125"/>
     <use xlink:href="#DejaVuSans-6d" x="294.287109"/>
     <use xlink:href="#DejaVuSans-69" x="391.699219"/>
     <use xlink:href="#DejaVuSans-52" x="419.482422"/>
     <use xlink:href="#DejaVuSans-2d" x="484.964844"/>
     <use xlink:href="#DejaVuSans-31" x="521.048828"/>
     <use xlink:href="#DejaVuSans-61" x="584.671875"/>
     <use xlink:href="#DejaVuSans-2d" x="645.951172"/>
     <use xlink:href="#DejaVuSans-33" x="682.035156"/>
     <use xlink:href="#DejaVuSans-70" x="745.658203"/>
    </g>
    <!--  -->
    <g transform="translate(410.543617 287.880945) scale(0.06 -0.06)"/>
   </g>
   <g id="text_8">
    <!-- 4h -->
    <g transform="translate(267.580018 136.062533) scale(0.12 -0.12)">
     <defs>
      <path id="DejaVuSans-68" d="M 3513 2113 
L 3513 0 
L 2938 0 
L 2938 2094 
Q 2938 2591 2744 2837 
Q 2550 3084 2163 3084 
Q 1697 3084 1428 2787 
Q 1159 2491 1159 1978 
L 1159 0 
L 581 0 
L 581 4863 
L 1159 4863 
L 1159 2956 
Q 1366 3272 1645 3428 
Q 1925 3584 2291 3584 
Q 2894 3584 3203 3211 
Q 3513 2838 3513 2113 
z
" transform="scale(0.015625)"/>
     </defs>
     <use xlink:href="#DejaVuSans-34"/>
     <use xlink:href="#DejaVuSans-68" x="63.623047"/>
    </g>
   </g>
   <g id="text_9">
    <!-- 24h -->
    <g transform="translate(586.479192 103.460952) scale(0.12 -0.12)">
     <use xlink:href="#DejaVuSans-32"/>
     <use xlink:href="#DejaVuSans-34" x="63.623047"/>
     <use xlink:href="#DejaVuSans-68" x="127.246094"/>
    </g>
   </g>
   <g id="text_10">
    <!-- 168h -->
    <g transform="translate(355.452122 501.059546) scale(0.12 -0.12)">
     <use xlink:href="#DejaVuSans-31"/>
     <use xlink:href="#DejaVuSans-36" x="63.623047"/>
     <use xlink:href="#DejaVuSans-38" x="127.246094"/>
     <use xlink:href="#DejaVuSans-68" x="190.869141"/>
    </g>
   </g>
   <g id="text_11">
    <!-- Venn Diagram of Significant miRNAs in the S Ganglion -->
    <g transform="translate(280.131562 63.12) scale(0.12 -0.12)">
     <defs>
      <path id="DejaVuSans-56" d="M 1831 0 
L 50 4666 
L 709 4666 
L 2188 738 
L 3669 4666 
L 4325 4666 
L 2547 0 
L 1831 0 
z
" transform="scale(0.015625)"/>
      <path id="DejaVuSans-6e" d="M 3513 2113 
L 3513 0 
L 2938 0 
L 2938 2094 
Q 2938 2591 2744 2837 
Q 2550 3084 2163 3084 
Q 1697 3084 1428 2787 
Q 1159 2491 1159 1978 
L 1159 0 
L 581 0 
L 581 3500 
L 1159 3500 
L 1159 2956 
Q 1366 3272 1645 3428 
Q 1925 3584 2291 3584 
Q 2894 3584 3203 3211 
Q 3513 2838 3513 2113 
z
" transform="scale(0.015625)"/>
      <path id="DejaVuSans-20" transform="scale(0.015625)"/>
      <path id="DejaVuSans-44" d="M 1259 4147 
L 1259 519 
L 2022 519 
Q 2988 519 3436 956 
Q 3884 1394 3884 2338 
Q 3884 3275 3436 3711 
Q 2988 4147 2022 4147 
L 1259 4147 
z
M 628 4666 
L 1925 4666 
Q 3281 4666 3915 4102 
Q 4550 3538 4550 2338 
Q 4550 1131 3912 565 
Q 3275 0 1925 0 
L 628 0 
L 628 4666 
z
" transform="scale(0.015625)"/>
      <path id="DejaVuSans-67" d="M 2906 1791 
Q 2906 2416 2648 2759 
Q 2391 3103 1925 3103 
Q 1463 3103 1205 2759 
Q 947 2416 947 1791 
Q 947 1169 1205 825 
Q 1463 481 1925 481 
Q 2391 481 2648 825 
Q 2906 1169 2906 1791 
z
M 3481 434 
Q 3481 -459 3084 -895 
Q 2688 -1331 1869 -1331 
Q 1566 -1331 1297 -1286 
Q 1028 -1241 775 -1147 
L 775 -588 
Q 1028 -725 1275 -790 
Q 1522 -856 1778 -856 
Q 2344 -856 2625 -561 
Q 2906 -266 2906 331 
L 2906 616 
Q 2728 306 2450 153 
Q 2172 0 1784 0 
Q 1141 0 747 490 
Q 353 981 353 1791 
Q 353 2603 747 3093 
Q 1141 3584 1784 3584 
Q 2172 3584 2450 3431 
Q 2728 3278 2906 2969 
L 2906 3500 
L 3481 3500 
L 3481 434 
z
" transform="scale(0.015625)"/>
      <path id="DejaVuSans-72" d="M 2631 2963 
Q 2534 3019 2420 3045 
Q 2306 3072 2169 3072 
Q 1681 3072 1420 2755 
Q 1159 2438 1159 1844 
L 1159 0 
L 581 0 
L 581 3500 
L 1159 3500 
L 1159 2956 
Q 1341 3275 1631 3429 
Q 1922 3584 2338 3584 
Q 2397 3584 2469 3576 
Q 2541 3569 2628 3553 
L 2631 2963 
z
" transform="scale(0.015625)"/>
      <path id="DejaVuSans-6f" d="M 1959 3097 
Q 1497 3097 1228 2736 
Q 959 2375 959 1747 
Q 959 1119 1226 758 
Q 1494 397 1959 397 
Q 2419 397 2687 759 
Q 2956 1122 2956 1747 
Q 2956 2369 2687 2733 
Q 2419 3097 1959 3097 
z
M 1959 3584 
Q 2709 3584 3137 3096 
Q 3566 2609 3566 1747 
Q 3566 888 3137 398 
Q 2709 -91 1959 -91 
Q 1206 -91 779 398 
Q 353 888 353 1747 
Q 353 2609 779 3096 
Q 1206 3584 1959 3584 
z
" transform="scale(0.015625)"/>
      <path id="DejaVuSans-66" d="M 2375 4863 
L 2375 4384 
L 1825 4384 
Q 1516 4384 1395 4259 
Q 1275 4134 1275 3809 
L 1275 3500 
L 2222 3500 
L 2222 3053 
L 1275 3053 
L 1275 0 
L 697 0 
L 697 3053 
L 147 3053 
L 147 3500 
L 697 3500 
L 697 3744 
Q 697 4328 969 4595 
Q 1241 4863 1831 4863 
L 2375 4863 
z
" transform="scale(0.015625)"/>
      <path id="DejaVuSans-53" d="M 3425 4513 
L 3425 3897 
Q 3066 4069 2747 4153 
Q 2428 4238 2131 4238 
Q 1616 4238 1336 4038 
Q 1056 3838 1056 3469 
Q 1056 3159 1242 3001 
Q 1428 2844 1947 2747 
L 2328 2669 
Q 3034 2534 3370 2195 
Q 3706 1856 3706 1288 
Q 3706 609 3251 259 
Q 2797 -91 1919 -91 
Q 1588 -91 1214 -16 
Q 841 59 441 206 
L 441 856 
Q 825 641 1194 531 
Q 1563 422 1919 422 
Q 2459 422 2753 634 
Q 3047 847 3047 1241 
Q 3047 1584 2836 1778 
Q 2625 1972 2144 2069 
L 1759 2144 
Q 1053 2284 737 2584 
Q 422 2884 422 3419 
Q 422 4038 858 4394 
Q 1294 4750 2059 4750 
Q 2388 4750 2728 4690 
Q 3069 4631 3425 4513 
z
" transform="scale(0.015625)"/>
      <path id="DejaVuSans-74" d="M 1172 4494 
L 1172 3500 
L 2356 3500 
L 2356 3053 
L 1172 3053 
L 1172 1153 
Q 1172 725 1289 603 
Q 1406 481 1766 481 
L 2356 481 
L 2356 0 
L 1766 0 
Q 1100 0 847 248 
Q 594 497 594 1153 
L 594 3053 
L 172 3053 
L 172 3500 
L 594 3500 
L 594 4494 
L 1172 4494 
z
" transform="scale(0.015625)"/>
      <path id="DejaVuSans-4e" d="M 628 4666 
L 1478 4666 
L 3547 763 
L 3547 4666 
L 4159 4666 
L 4159 0 
L 3309 0 
L 1241 3903 
L 1241 0 
L 628 0 
L 628 4666 
z
" transform="scale(0.015625)"/>
      <path id="DejaVuSans-41" d="M 2188 4044 
L 1331 1722 
L 3047 1722 
L 2188 4044 
z
M 1831 4666 
L 2547 4666 
L 4325 0 
L 3669 0 
L 3244 1197 
L 1141 1197 
L 716 0 
L 50 0 
L 1831 4666 
z
" transform="scale(0.015625)"/>
      <path id="DejaVuSans-73" d="M 2834 3397 
L 2834 2853 
Q 2591 2978 2328 3040 
Q 2066 3103 1784 3103 
Q 1356 3103 1142 2972 
Q 928 2841 928 2578 
Q 928 2378 1081 2264 
Q 1234 2150 1697 2047 
L 1894 2003 
Q 2506 1872 2764 1633 
Q 3022 1394 3022 966 
Q 3022 478 2636 193 
Q 2250 -91 1575 -91 
Q 1294 -91 989 -36 
Q 684 19 347 128 
L 347 722 
Q 666 556 975 473 
Q 1284 391 1588 391 
Q 1994 391 2212 530 
Q 2431 669 2431 922 
Q 2431 1156 2273 1281 
Q 2116 1406 1581 1522 
L 1381 1569 
Q 847 1681 609 1914 
Q 372 2147 372 2553 
Q 372 3047 722 3315 
Q 1072 3584 1716 3584 
Q 2034 3584 2315 3537 
Q 2597 3491 2834 3397 
z
" transform="scale(0.015625)"/>
      <path id="DejaVuSans-47" d="M 3809 666 
L 3809 1919 
L 2778 1919 
L 2778 2438 
L 4434 2438 
L 4434 434 
Q 4069 175 3628 42 
Q 3188 -91 2688 -91 
Q 1594 -91 976 548 
Q 359 1188 359 2328 
Q 359 3472 976 4111 
Q 1594 4750 2688 4750 
Q 3144 4750 3555 4637 
Q 3966 4525 4313 4306 
L 4313 3634 
Q 3963 3931 3569 4081 
Q 3175 4231 2741 4231 
Q 1884 4231 1454 3753 
Q 1025 3275 1025 2328 
Q 1025 1384 1454 906 
Q 1884 428 2741 428 
Q 3075 428 3337 486 
Q 3600 544 3809 666 
z
" transform="scale(0.015625)"/>
      <path id="DejaVuSans-6c" d="M 603 4863 
L 1178 4863 
L 1178 0 
L 603 0 
L 603 4863 
z
" transform="scale(0.015625)"/>
     </defs>
     <use xlink:href="#DejaVuSans-56"/>
     <use xlink:href="#DejaVuSans-65" x="60.658203"/>
     <use xlink:href="#DejaVuSans-6e" x="122.181641"/>
     <use xlink:href="#DejaVuSans-6e" x="185.560547"/>
     <use xlink:href="#DejaVuSans-20" x="248.939453"/>
     <use xlink:href="#DejaVuSans-44" x="280.726562"/>
     <use xlink:href="#DejaVuSans-69" x="357.728516"/>
     <use xlink:href="#DejaVuSans-61" x="385.511719"/>
     <use xlink:href="#DejaVuSans-67" x="446.791016"/>
     <use xlink:href="#DejaVuSans-72" x="510.267578"/>
     <use xlink:href="#DejaVuSans-61" x="551.380859"/>
     <use xlink:href="#DejaVuSans-6d" x="612.660156"/>
     <use xlink:href="#DejaVuSans-20" x="710.072266"/>
     <use xlink:href="#DejaVuSans-6f" x="741.859375"/>
     <use xlink:href="#DejaVuSans-66" x="803.041016"/>
     <use xlink:href="#DejaVuSans-20" x="838.246094"/>
     <use xlink:href="#DejaVuSans-53" x="870.033203"/>
     <use xlink:href="#DejaVuSans-69" x="933.509766"/>
     <use xlink:href="#DejaVuSans-67" x="961.292969"/>
     <use xlink:href="#DejaVuSans-6e" x="1024.769531"/>
     <use xlink:href="#DejaVuSans-69" x="1088.148438"/>
     <use xlink:href="#DejaVuSans-66" x="1115.931641"/>
     <use xlink:href="#DejaVuSans-69" x="1151.136719"/>
     <use xlink:href="#DejaVuSans-63" x="1178.919922"/>
     <use xlink:href="#DejaVuSans-61" x="1233.900391"/>
     <use xlink:href="#DejaVuSans-6e" x="1295.179688"/>
     <use xlink:href="#DejaVuSans-74" x="1358.558594"/>
     <use xlink:href="#DejaVuSans-20" x="1397.767578"/>
     <use xlink:href="#DejaVuSans-6d" x="1429.554688"/>
     <use xlink:href="#DejaVuSans-69" x="1526.966797"/>
     <use xlink:href="#DejaVuSans-52" x="1554.75"/>
     <use xlink:href="#DejaVuSans-4e" x="1624.232422"/>
     <use xlink:href="#DejaVuSans-41" x="1699.037109"/>
     <use xlink:href="#DejaVuSans-73" x="1767.445312"/>
     <use xlink:href="#DejaVuSans-20" x="1819.544922"/>
     <use xlink:href="#DejaVuSans-69" x="1851.332031"/>
     <use xlink:href="#DejaVuSans-6e" x="1879.115234"/>
     <use xlink:href="#DejaVuSans-20" x="1942.494141"/>
     <use xlink:href="#DejaVuSans-74" x="1974.28125"/>
     <use xlink:href="#DejaVuSans-68" x="2013.490234"/>
     <use xlink:href="#DejaVuSans-65" x="2076.869141"/>
     <use xlink:href="#DejaVuSans-20" x="2138.392578"/>
     <use xlink:href="#DejaVuSans-53" x="2170.179688"/>
     <use xlink:href="#DejaVuSans-20" x="2233.65625"/>
     <use xlink:href="#DejaVuSans-47" x="2265.443359"/>
     <use xlink:href="#DejaVuSans-61" x="2342.933594"/>
     <use xlink:href="#DejaVuSans-6e" x="2404.212891"/>
     <use xlink:href="#DejaVuSans-67" x="2467.591797"/>
     <use xlink:href="#DejaVuSans-6c" x="2531.068359"/>
     <use xlink:href="#DejaVuSans-69" x="2558.851562"/>
     <use xlink:href="#DejaVuSans-6f" x="2586.634766"/>
     <use xlink:href="#DejaVuSans-6e" x="2647.816406"/>
    </g>
   </g>
  </g>
 </g>
 <defs>
  <clipPath id="pfe307de432">
   <rect x="193.736428" y="69.12" width="498.127145" height="443.52"/>
  </clipPath>
 </defs>
</svg>
